<svg width="265" height="189" viewBox="0 0 265 189" fill="none" xmlns="http://www.w3.org/2000/svg">
<path d="M108.929 43.5087C106.671 43.2161 86.6338 43.2161 83.0387 43.5087C82.9771 43.5221 82.9228 43.5583 82.8867 43.6099C82.8505 43.6615 82.8352 43.7249 82.8436 43.7874C82.8564 43.834 82.8811 43.8765 82.9153 43.9107C82.9495 43.9449 82.992 43.9697 83.0387 43.9824C86.2715 44.2611 106.629 44.3865 108.859 44.0939C109.179 44.0661 109.277 43.5505 108.929 43.5087ZM203.055 78.3723C202.776 78.3723 199.195 79.6403 200.143 80.1559L201.146 80.992C200.923 81.4936 203.111 83.7788 201.606 89.1575C200.979 88.7255 200.965 89.1575 201.048 89.2968C203.375 91.6935 219.999 105.001 223.706 107.411C224.04 107.899 226.158 106.854 226.492 106.743C233.854 103.604 241.041 100.069 248.021 96.1525C250.571 94.7591 250.543 89.7567 247.45 87.7919C244.196 85.6281 240.807 83.6733 237.305 81.9395L241.625 78.5535C241.932 78.3166 241.764 77.4387 240.594 78.3863C238.073 74.3136 237.053 69.4889 237.71 64.7446C237.877 64.647 239.744 63.5323 238.922 63.17C234.742 61.4282 220.891 56.3422 216.627 56.0774C215.234 55.9799 204.086 64.8978 203.041 66.6954C200.811 70.4158 201.494 74.6658 203.125 78.4141L203.055 78.3723ZM201.94 89.3665C203.334 87.8476 202.902 83.6813 202.233 81.842C204.142 83.3747 219.483 94.9402 224.36 98.0336C226.994 103.607 224.054 106.311 224.151 106.729C215.986 101.057 209.339 94.5779 201.94 89.3665ZM247.352 88.7394C249.679 89.9378 249.15 94.9263 247.477 95.5115C239.897 99.5664 232.401 103.217 224.569 106.659C225.598 105.271 226.159 103.593 226.172 101.866L236.901 97.4623C237.096 97.3648 236.901 97.1 236.748 97.1418C233.146 98.3461 229.618 99.7653 226.186 101.392C226.159 100.037 225.738 98.7203 224.974 97.6017C228.248 96.3058 244.983 87.6247 247.352 88.7394ZM224.124 74.5822C228.223 71.1875 232.513 68.0286 236.971 65.1208C236.646 66.8151 236.585 68.5495 236.79 70.2626C236.107 70.4855 227.663 76.6723 227.231 77.0067C227.05 77.1461 227.231 77.4387 227.454 77.3272L236.887 70.9175C237.18 72.8822 238.364 77.3551 240.19 78.5674C238.337 80.0723 229.168 87.3321 226.938 87.3321C225.267 85.7196 224.11 83.6482 223.614 81.3792C223.118 79.1102 223.305 76.7451 224.151 74.5822H224.124ZM222.298 62.5569C223.274 63.3929 219.233 65.7478 219.079 65.7896C218.62 65.929 218.313 65.4552 219.302 64.5077C219.804 64.0757 221.643 62.0413 222.298 62.5708V62.5569ZM214.704 64.8839C215.401 63.4905 218.299 61.1774 219.525 60.3413C219.586 60.2992 219.654 60.2695 219.726 60.2537C219.798 60.2379 219.872 60.2364 219.944 60.2494C220.017 60.2623 220.086 60.2894 220.148 60.3291C220.21 60.3688 220.264 60.4203 220.306 60.4807C220.348 60.541 220.377 60.6091 220.393 60.681C220.409 60.7529 220.41 60.8272 220.398 60.8997C220.385 60.9721 220.357 61.0413 220.318 61.1033C220.278 61.1653 220.227 61.2189 220.166 61.261C219.079 62.097 216.125 64.87 215.303 65.4413C215.241 65.4754 215.172 65.4934 215.101 65.4934C215.03 65.4934 214.961 65.4754 214.899 65.4413C214.85 65.4188 214.806 65.3869 214.77 65.3473C214.734 65.3076 214.705 65.2612 214.687 65.2106C214.669 65.1599 214.661 65.1062 214.664 65.0525C214.667 64.9988 214.681 64.9462 214.704 64.8978V64.8839ZM204.476 67.2945C210.454 68.9166 216.327 70.9036 222.061 73.2445C222.424 73.4256 222.298 74.0387 221.866 73.9551C215.892 72.2906 210.025 70.2664 204.295 67.8937C204.231 67.858 204.182 67.8017 204.154 67.734C204.127 67.6662 204.124 67.5912 204.145 67.5213C204.166 67.4514 204.21 67.3909 204.271 67.3496C204.331 67.3084 204.403 67.2889 204.476 67.2945ZM203.445 79.0412C210.092 82.7895 222.465 87.555 227.133 88.2517C228.067 88.3911 235.647 83.0682 236.887 82.1625C237.696 82.9567 244.426 86.7608 246.14 87.8198C243.659 87.9452 225.656 96.3336 224.36 97.1558C216.627 91.373 208.601 85.5067 200.672 80.0026L203.459 79.0412H203.445ZM108.929 43.5087H108.943H108.929ZM131.558 16.9499C131.473 16.915 131.378 16.915 131.293 16.9499C130.471 17.4515 125.719 23.917 124.758 25.1293C123.838 23.8752 122.905 22.6351 121.971 21.4228C121.79 21.1998 121.414 21.4228 121.553 21.7154C122.487 23.2064 123.49 24.6416 124.507 26.0769C124.674 26.2998 124.995 26.1883 125.134 26.0072C126.012 24.8924 131.6 18.1482 131.837 17.3818C131.847 17.3352 131.848 17.2869 131.839 17.2399C131.831 17.1929 131.813 17.148 131.787 17.1079C131.761 17.0677 131.728 17.0331 131.688 17.006C131.649 16.9789 131.605 16.9598 131.558 16.9499ZM104.985 46.2119C96.6247 46.3791 87.3583 46.2119 83.7633 46.5185C83.6894 46.5185 83.6185 46.5478 83.5662 46.6001C83.514 46.6524 83.4846 46.7233 83.4846 46.7972C83.4846 46.8711 83.514 46.942 83.5662 46.9942C83.6185 47.0465 83.6894 47.0759 83.7633 47.0759C88.0829 47.0759 101.53 47.5218 104.985 46.7832C105.278 46.7136 105.222 46.2955 104.985 46.2119ZM105.292 32.208C105.57 32.208 105.654 31.7342 105.292 31.6924C102.505 31.2744 85.7838 32.0965 81.7289 32.7235C81.655 32.7235 81.5841 32.7529 81.5318 32.8051C81.4796 32.8574 81.4502 32.9283 81.4502 33.0022C81.4502 33.0761 81.4796 33.147 81.5318 33.1993C81.5841 33.2515 81.655 33.2809 81.7289 33.2809C87.1911 33.2809 99.6066 32.4309 105.222 32.2358L105.292 32.208ZM99.7459 34.9948C99.9828 34.9948 100.108 34.521 99.7459 34.4374C98.3525 34.0891 84.4182 34.4374 82.3141 34.6743C82.281 34.6794 82.2492 34.691 82.2206 34.7086C82.1921 34.7261 82.1673 34.7492 82.1478 34.7765C82.1283 34.8038 82.1145 34.8347 82.1072 34.8674C82.0998 34.9001 82.0991 34.934 82.1051 34.9669C82.1126 35.0212 82.1368 35.0717 82.1742 35.1116C82.2116 35.1515 82.2605 35.1789 82.3141 35.1899C85.0034 35.3432 98.1017 35.4407 99.7459 34.9948ZM129.454 42.6587C130.22 41.5439 121.818 41.948 121.456 42.3243C121.093 42.7005 121.456 48.4275 121.456 48.957C121.456 49.7791 129.245 49.7652 129.551 49.5283C129.899 47.261 129.899 44.9539 129.551 42.6866L129.454 42.6587ZM128.855 48.9013C128.116 48.9013 122.64 48.9988 122.194 48.6504C122.194 46.6857 122.069 44.7349 121.999 42.7841H128.966C128.715 44.8136 128.678 46.8639 128.855 48.9013Z" fill="#3AAFA9"/>
<path d="M227.691 81.3821C229.642 80.2256 231.634 79.0969 233.515 77.8428C233.78 77.6617 233.515 77.1879 233.209 77.3551L227.482 81.0616C227.449 81.0932 227.429 81.135 227.424 81.1798C227.419 81.2246 227.43 81.2698 227.455 81.3076C227.479 81.3454 227.516 81.3735 227.559 81.3871C227.602 81.4006 227.649 81.3989 227.691 81.3821ZM213.645 96.682C213.478 96.5705 213.255 96.8353 213.422 96.9746C214.815 98.1869 221.671 102.98 223.176 104.039C223.371 104.179 223.538 103.858 223.357 103.719C220.431 101.489 216.752 98.5492 213.645 96.682ZM123.378 37.8095C124.103 37.8095 129.774 38.4645 129.719 37.5309C129.663 36.5973 129.579 31.2325 129.217 31.0653C129.119 30.1317 122.055 30.8145 121.4 30.9399C120.996 30.9399 121.163 36.3743 121.191 37.0292C121.233 37.9767 122.751 37.7817 123.378 37.8095ZM128.855 31.3858V37.2522C126.508 37.0107 124.145 36.9641 121.79 37.1128C121.882 35.2035 121.845 33.2901 121.678 31.3858C122.835 31.3858 128.116 31.567 128.855 31.3858ZM222.869 101.364C222.905 101.393 222.949 101.41 222.995 101.41C223.041 101.41 223.085 101.393 223.12 101.364C223.148 101.333 223.163 101.294 223.163 101.252C223.163 101.211 223.148 101.172 223.12 101.141C216.738 96.6123 210.398 91.164 204.128 86.914C203.947 86.7747 203.668 87.0395 203.849 87.2206C207.361 90.5648 218.327 98.368 222.925 101.434L222.869 101.364ZM240.719 93.3656H240.747H240.719ZM129.691 21.8966C129.671 21.8343 129.629 21.7821 129.571 21.7508C129.514 21.7196 129.447 21.7119 129.384 21.7293C129.342 21.7393 129.303 21.7599 129.272 21.7892C129.24 21.8185 129.216 21.8554 129.203 21.8966V26.7736H121.483C121.348 24.528 121.097 22.2909 120.731 20.0712C122.911 20.1724 125.095 20.1165 127.266 19.904C127.315 19.8882 127.357 19.856 127.385 19.8128C127.413 19.7697 127.425 19.7182 127.419 19.6671C127.411 19.6374 127.397 19.6097 127.378 19.5858C127.359 19.5618 127.335 19.542 127.308 19.5277C126.792 19.3605 120.341 18.8031 120.536 19.9179C119.895 19.9179 120.828 26.885 120.828 26.885C121.163 27.735 122.57 27.4424 123.309 27.4424C124.047 27.4424 129.175 27.5678 129.593 27.4424C130.262 27.1777 129.886 22.7187 129.733 21.8687L129.691 21.8966Z" fill="#3AAFA9"/>
<path d="M264.338 148.309C246.586 149.395 228.829 150.324 211.067 151.095C210.835 148.554 210.369 146.04 209.674 143.585C227.324 143.12 244.974 142.577 262.624 141.955C262.714 141.944 262.798 141.904 262.863 141.841C262.929 141.778 262.972 141.696 262.986 141.606C262.998 141.497 262.967 141.388 262.899 141.302C262.831 141.216 262.733 141.16 262.624 141.146C244.9 141.806 227.18 142.349 209.465 142.777C205.284 128.201 196.464 114.337 186.18 103.357C185.86 99.65 185.846 97.7828 184.257 94.0623C181.192 87.0255 177.806 85.5624 177.89 87.2345C177.889 87.675 177.959 88.1126 178.099 88.5304C177.541 87.8337 173.444 83.5698 172.608 85.869C171.992 85.4811 171.296 85.2372 170.572 85.1551C169.849 85.0731 169.116 85.1552 168.428 85.3952C165.822 81.2149 161.461 81.2149 158.674 79.8215C153.351 77.0346 155.804 68.1445 159.719 64.8282C159.719 64.8282 176.538 64.5077 176.552 64.2987C176.858 60.3553 180.217 0.340186 180.217 0.340186C138.776 -0.481938 94.1861 0.340184 53.052 1.17624C52.7733 1.17624 52.5365 1.35739 52.5643 1.60821C55.0446 22.7187 61.1339 65.929 61.1339 65.929C62.1372 66.3331 153.226 64.9118 158.674 64.8282C156.344 67.3696 155.069 70.7026 155.107 74.1502C155.386 82.9288 162.367 79.1944 168.08 85.6181C164.373 87.2067 163.899 91.9025 165.293 95.2607C165.546 95.9045 165.889 96.5096 166.31 97.0582C166.369 98.3676 166.741 99.6437 167.397 100.779C169.181 104.165 172.358 105.335 172.525 105.837C172.525 113.724 174.183 123.338 175.758 131.03C170.449 128.243 154.703 121.597 138.511 121.123C139.431 113.138 146.328 112.135 145.381 106.798C148.265 106.687 151.15 106.575 154.034 106.436C154.759 106.436 153.964 104.207 153.881 103.83C152.71 98.6746 151.535 93.5282 150.355 88.3911C150.174 87.6944 149.366 83.0124 148.683 83.0124L139.696 83.1796C137.717 81.2985 133.077 80.6018 131.182 82.7895C128.395 77.4248 119.783 78.2051 119.505 83.4165C117.15 81.8141 113.652 81.4936 111.52 83.6673C111.297 83.7649 69.1462 84.3362 62.8757 84.587H62.7643C62.6965 84.6301 62.6483 84.6979 62.6301 84.7761C62.6119 84.8543 62.625 84.9365 62.6667 85.0051C62.7782 85.7296 59.1413 102.925 58.7094 107.063C58.7094 107.648 65.0216 107.565 65.6765 107.565C56.675 118.113 48.5791 130.013 46.1685 143.933C30.9801 143.696 15.7917 143.32 0.603296 143.376C0.529384 143.376 0.458499 143.405 0.406235 143.457C0.353971 143.51 0.32461 143.581 0.32461 143.655C0.32461 143.728 0.353971 143.799 0.406235 143.852C0.458499 143.904 0.529384 143.933 0.603296 143.933C15.722 144.588 30.8825 144.658 46.0152 144.769C45.5644 147.532 45.3778 150.332 45.4578 153.13C30.4088 152.823 15.3597 152.35 0.32461 152.099C-0.00981338 152.099 -0.0655506 152.628 0.32461 152.628C15.3737 153.395 30.4506 153.673 45.5275 153.896C45.9177 161.463 48.8996 170.743 56.3127 174.143C59.3643 180.135 65.8298 185.527 73.0338 183.98C72.8248 185.067 72.6297 186.182 72.4207 187.297C72.3371 187.798 73.0896 188.007 73.1732 187.506C75.2215 176.47 77.3535 165.378 80.9346 154.732C81.0461 154.398 80.5444 154.272 80.419 154.593C76.9354 163.845 74.9707 173.572 73.1592 183.256C65.788 184.329 59.9077 179.633 56.8561 173.279C55.2143 169.921 54.2646 166.268 54.0636 162.536C53.8625 158.804 54.4141 155.07 55.6856 151.555C59.4897 141.801 69.6199 134.834 79.569 130.069C89.685 125.275 100.549 122.253 111.688 121.137C112.482 128.578 121.038 131.1 127.559 130.71C134.08 130.319 137.94 128.327 138.497 121.75C138.581 121.75 162.032 122.265 182.279 135.796C188.229 139.767 193.635 144.867 196.798 151.346C199.892 157.603 200.979 165.281 198.192 171.802C194.207 181.305 186.933 182.685 182.112 183.535C180.407 173.331 177.116 163.458 172.358 154.272C172.232 154.036 171.842 154.189 171.967 154.44C176.93 165.14 180.314 176.503 182.014 188.175C182.014 188.537 182.739 188.635 182.739 188.175C182.682 186.899 182.514 185.631 182.237 184.385C187.492 183.933 192.358 181.43 195.781 177.417C206.929 174.631 211.792 162.577 211.109 151.959C228.908 151.235 246.688 150.306 264.449 149.173C264.937 148.991 264.756 148.309 264.338 148.309ZM61.1897 57.1225C58.4028 39.3981 56.1873 21.7572 53.6651 4.01884C95.4681 3.29426 138.358 3.60081 179.59 2.9041L176.371 55.1717C158.967 55.7012 63.4331 56.2446 61.1897 57.1225ZM145.214 106.018C144.958 105.275 144.47 104.635 143.82 104.193C144.543 103.044 144.933 101.718 144.949 100.361H145.701L146.746 105.934L145.214 106.018ZM144.043 95.8041C144.282 95.6121 144.501 95.3974 144.698 95.1631C145.032 96.6541 145.311 98.1451 145.59 99.6361H144.921C144.989 98.3021 144.685 96.9754 144.043 95.8041ZM153.574 105.656L147.164 105.934C146.997 104.053 146.635 102.2 146.3 100.361C148.304 100.427 150.309 100.376 152.306 100.207C152.724 102.005 153.156 103.844 153.574 105.656ZM152.181 99.5664H146.189L145.186 94.341L150.968 94.1738L152.181 99.5664ZM150.787 93.5746L145.339 93.7419C145.444 93.0811 145.397 92.4051 145.201 91.7652C145.005 91.1254 144.667 90.5386 144.21 90.0493C144.127 89.6312 144.043 89.1993 143.932 88.7673L149.673 88.6419L150.787 93.5746ZM148.655 83.6255C148.962 85.019 149.241 86.5099 149.519 87.9591L143.792 88.0567C143.5 86.5916 143.123 85.1447 142.664 83.7231L148.655 83.6255ZM143.388 89.5337C142.71 89.2253 141.943 89.1709 141.228 89.3804C141.292 89.2079 141.343 89.0309 141.382 88.8509H143.221L143.388 89.5337ZM141.995 83.737C142.256 85.1999 142.6 86.6468 143.026 88.0706H141.479C141.639 86.5268 141.211 84.9795 140.281 83.737H141.995ZM108.26 84.3362H110.949C110.381 85.2141 110.181 86.2801 110.392 87.3042L108.023 87.987C108.134 86.7886 108.26 85.4509 108.26 84.3362ZM107.507 84.3362V88.2239C107.271 88.3642 107.043 88.5177 106.825 88.6837L100.234 88.7952C100.295 87.3495 100.253 85.9013 100.108 84.4616L107.507 84.3362ZM104.581 94.4386H100.192V89.5616L105.905 89.464C105.301 90.1257 104.865 90.9234 104.634 91.7893C104.404 92.6553 104.386 93.564 104.581 94.4386ZM100.22 100.89H104.024C104.078 102.106 104.528 103.271 105.306 104.207C104.846 104.525 104.476 104.956 104.232 105.459C103.988 105.962 103.878 106.519 103.912 107.077H100.15C100.192 104.987 100.22 102.938 100.22 100.89ZM104.4 99.2041C104.278 99.495 104.189 99.7989 104.135 100.11H100.289V95.0795H104.79C105.093 95.9111 105.636 96.6339 106.351 97.1558C105.48 97.6064 104.777 98.3243 104.344 99.2041H104.4ZM99.732 107.063H82.4674C82.6485 104.666 82.4674 103.161 84.0141 101.099L99.5787 100.918C99.5648 102.966 99.6066 105.015 99.6762 107.063H99.732ZM84.5854 100.333C86.0354 98.8668 87.1315 97.0891 87.7903 95.1353H91.2738V100.249L84.5854 100.333ZM92.1656 84.6149L99.4672 84.4895C99.3887 85.9329 99.3887 87.3796 99.4672 88.823L92.1238 88.9484C92.1238 87.5132 92.1378 86.064 92.1656 84.6149ZM92.0681 89.7148L99.4394 89.5894V94.4664H91.9706C91.9706 92.8779 91.9706 91.3033 92.0681 89.7148ZM91.9706 95.1213H99.509V100.152L91.664 100.249C91.7755 98.5352 91.8591 96.8771 91.9706 95.1213ZM85.0034 84.7403L91.6779 84.6288L91.5247 88.9624L84.7247 89.0739C84.8902 87.6357 84.9414 86.1866 84.878 84.7403H85.0034ZM84.669 89.8263L91.5107 89.7148L91.3853 94.4525H87.9714C88.1386 93.6861 88.4452 92.432 87.5395 92.014C86.6337 91.596 85.7698 93.6861 84.0977 94.4386C84.251 92.9058 84.3903 91.373 84.5436 89.8402L84.669 89.8263ZM78.7051 84.8518L84.46 84.7542C84.2609 86.1914 84.1353 87.6378 84.0837 89.0878H83.61C84.2092 87.6247 80.9764 86.6772 78.1895 89.0878C78.2313 88.3772 78.6215 85.3255 78.5797 84.8518H78.7051ZM83.9026 89.9099C83.8051 91.4288 83.7215 92.9337 83.6239 94.4525H81.4502C81.0321 93.2263 81.4502 90.3419 82.5649 89.9099H83.8747H83.9026ZM77.869 84.8936L77.6461 89.2132H75.0404C74.0092 87.0673 74.6641 85.437 73.6469 84.9214L77.869 84.8936ZM77.3117 89.9935C76.9904 90.3959 76.719 90.8357 76.5035 91.3033L75.4723 90.0353L77.3117 89.9935ZM68.4076 85.0747L72.8806 84.9911C71.4871 85.66 71.2781 88.0288 71.2781 89.3247H69.174C68.4634 88.7116 68.1568 89.3247 67.6273 89.3247L68.3798 84.9911L68.4076 85.0747ZM71.5011 92.1533C70.7278 91.6375 70.0994 90.9323 69.6757 90.105H71.2502C71.2668 90.7915 71.332 91.476 71.4453 92.1533H71.5011ZM66.8888 94.2435L67.5576 90.1468C67.418 91.5612 67.5941 92.989 68.0732 94.3271L66.8888 94.2435ZM68.2822 94.9263C68.8535 96.8353 69.6757 98.577 70.0658 100.5L65.8855 100.584L66.7216 94.9123L68.2822 94.9263ZM63.2241 85.0887H67.7945C67.5298 86.4821 67.279 87.987 67.0281 89.4501C65.5093 89.4501 63.9765 89.5337 62.4577 89.6034C62.7859 88.1142 63.0232 86.6066 63.1683 85.0887H63.2241ZM62.3602 90.1747H66.8888C66.6798 91.5681 66.4568 92.9615 66.2339 94.2574H61.5659C61.8028 92.864 62.0536 91.5124 62.3044 90.1747H62.3602ZM61.5102 94.7451C63.0429 94.8287 64.5757 94.8705 66.1085 94.8984C65.8437 96.7795 65.5372 98.6885 65.2864 100.584C63.656 100.584 62.0257 100.695 60.3954 100.765C60.7716 98.7582 61.1339 96.7517 61.5102 94.7451ZM64.6454 106.826H59.2667C59.6151 104.959 59.9774 103.106 60.3536 101.252L65.1888 101.378C64.8949 103.182 64.6949 105.001 64.5896 106.826H64.6454ZM65.0355 106.826L65.8577 101.252H70.1912C70.233 101.623 70.233 101.997 70.1912 102.367L66.2757 106.84L65.0355 106.826ZM55.5463 149.646C53.9165 153.36 53.1017 157.38 53.157 161.435C53.2123 165.49 54.1363 169.486 55.8668 173.153C42.3784 164.04 45.2488 143.891 50.9898 131.016C55.6856 120.468 63.1265 111.508 70.7486 102.911C71.8633 101.643 68.2544 93.1566 68.129 91.0804C68.0453 89.5337 68.6863 89.2132 69.2576 90.314C69.8289 91.4148 70.6511 92.6689 71.7797 92.9337C72.2256 94.2435 72.574 93.8255 72.5183 93.6164C72.0445 91.3173 71.2224 88.0427 72.7551 85.9247C73.8699 84.4477 73.8281 87.1649 73.9396 87.6944C74.2043 88.9624 75.333 91.4148 76.3502 91.8747C76.0018 92.864 76.5871 92.5156 76.6289 92.3902C78.6076 87.1927 84.655 87.9312 82.7042 89.2132C82.1899 89.5202 81.7528 89.9412 81.4267 90.4436C81.1006 90.9461 80.8941 91.5167 80.8231 92.1115C80.1125 97.0303 83.9862 96.2918 86.8009 92.864C87.9714 91.4706 88.0271 94.4664 86.1739 97.4902C84.5993 100.054 82.4674 100.974 82.2165 104.332C81.5198 112.539 79.8338 122.335 78.7051 129.553C69.4527 134.026 59.9913 140.073 55.4905 149.66L55.5463 149.646ZM79.4297 129.177C80.7902 122.092 81.7624 114.937 82.3419 107.746H103.954C104.762 112.414 110.559 113.041 111.493 120.287C100.371 121.374 89.5229 124.382 79.4297 129.177ZM138.26 117.932C137.913 119.028 137.689 120.159 137.591 121.304C137.034 127.212 134.526 129.177 127.963 129.664C120.996 130.236 113.443 128.034 112.384 120.524C111.451 113.835 109.305 114.42 105.863 109.738C104.832 108.345 103.912 105.753 105.863 104.666C106.821 105.719 108.022 106.523 109.361 107.007C112.37 113.765 113.388 121.555 122.138 122.419C139.055 123.993 135.264 114.783 140.629 106.743C141.672 106.26 142.617 105.59 143.416 104.764C144.024 105.272 144.444 105.971 144.609 106.746C144.773 107.522 144.672 108.33 144.322 109.042C142.956 112.344 139.668 113.598 138.26 117.932ZM172.79 86.6772C173.263 87.7362 173.751 88.7812 174.183 89.8402C173.5 88.9624 170.156 85.3116 169.041 87.2624C168.47 88.2796 169.668 89.7984 170.156 90.7042C168.286 91.0353 166.614 92.0731 165.488 93.6025C163.704 87.1231 170.003 83.8903 172.79 86.6772ZM166.491 96.1664C166.227 95.5115 165.948 94.8427 165.669 94.1877C166.892 92.7561 168.535 91.7467 170.365 91.3033C171.149 92.9217 171.658 94.6595 171.87 96.4451C172.246 100.012 169.515 97.4623 168.191 96.2361C167.676 95.7066 166.812 95.4836 166.422 96.1664H166.491ZM196.659 176.163C201.271 169.698 201.466 161.351 198.791 154.05C195.001 143.724 185.985 136.492 176.496 131.434C174.672 123.008 173.488 114.456 172.957 105.851C172.957 104.541 168.526 103.649 167.146 98.5074C166.895 97.5738 166.38 95.1213 168.066 96.8771C169.752 98.6328 172.622 100.249 172.497 96.4033C172.33 91.8468 169.236 88.8091 169.515 87.778C169.863 86.4821 172.441 88.9206 172.859 89.3386C173.948 90.5369 174.936 91.8232 175.813 93.1845C175.967 93.4074 176.343 93.1845 176.203 92.9755C175.878 92.4181 175.544 91.8607 175.2 91.3033C175.423 90.8296 172.915 86.3985 173.361 85.9804C173.807 85.5624 175.813 87.0116 176.259 87.3739C178.586 89.3943 178.698 90.746 179.492 91.791C179.528 91.8038 179.567 91.8038 179.603 91.791C179.653 91.7951 179.702 91.78 179.741 91.7489C179.78 91.7179 179.805 91.6731 179.812 91.6238C179.729 90.732 179.213 90.2304 178.962 89.6173C178.712 89.0042 178.196 87.6247 178.544 87.137C178.712 86.9977 179.673 87.7083 179.785 87.8198C180.704 88.7003 181.471 89.7267 182.056 90.8574C186.32 98.1451 185.038 102.841 185.762 103.552C196.339 115.465 207.639 132.911 209.924 148.657C211.471 159.581 208.029 172.317 196.589 176.163H196.659Z" fill="#3AAFA9"/>
<path d="M95.5935 24.4187C95.914 24.3211 95.7886 23.8613 95.4959 23.8195C90.4238 23.917 85.0313 23.8195 80.0288 23.9588C79.6387 23.9588 79.6944 24.558 80.0288 24.6137C82.5928 25.0318 93.364 25.1014 95.5935 24.4187ZM228.624 98.9394C230.519 98.1172 239.772 94.3828 240.873 93.7558C240.893 93.7375 240.91 93.715 240.921 93.6897C240.933 93.6645 240.939 93.6372 240.939 93.6095C240.939 93.5818 240.933 93.5544 240.921 93.5292C240.91 93.504 240.893 93.4815 240.873 93.4632C240.85 93.4294 240.819 93.4025 240.782 93.3853C240.745 93.3681 240.704 93.3613 240.664 93.3656C238.323 93.8533 230.742 97.4623 228.387 98.6328C228.262 98.7303 228.429 99.023 228.624 98.9394ZM135.167 66.2216L105.626 66.6675C106.894 80.992 135.543 81.2149 135.167 66.2216ZM135.167 35.5661C135.167 35.6266 135.19 35.6848 135.231 35.7289C135.273 35.7729 135.329 35.7994 135.39 35.803C140.114 35.9145 150.104 36.2071 153.881 35.6915C154.187 35.6915 154.09 35.176 153.881 35.176C148.544 35.176 140.838 35.176 135.46 35.3292C135.424 35.3207 135.387 35.3203 135.352 35.3283C135.316 35.3363 135.283 35.3524 135.255 35.3753C135.226 35.3982 135.204 35.4274 135.188 35.4605C135.173 35.4936 135.166 35.5297 135.167 35.5661ZM94.7574 14.6647C95.1476 14.6647 94.9804 14.1073 94.6599 14.0515C85.0591 14.3302 74.6084 14.5392 65.2445 14.7483C65.2132 14.7533 65.1832 14.7646 65.1563 14.7814C65.1294 14.7982 65.1062 14.8203 65.088 14.8463C65.0698 14.8723 65.057 14.9017 65.0504 14.9327C65.0438 14.9637 65.0435 14.9958 65.0495 15.0269C65.0575 15.0758 65.0807 15.1208 65.1157 15.1558C65.1507 15.1908 65.1957 15.214 65.2445 15.222C72.0584 15.7097 85.9091 14.9712 94.7574 14.6647ZM100.122 11.4737C100.443 11.4737 100.54 10.9163 100.122 10.8745C97.0008 10.4983 66.2199 10.9999 64.0741 11.4737C63.865 11.4737 63.879 11.8917 64.0741 11.8917C71.9748 11.8778 90.9115 11.3344 100.122 11.4737ZM39.5497 111.006V110.993V111.006ZM40.1349 111.243C41.2084 109.258 42.0322 107.147 42.5874 104.959C42.8468 104.207 42.9061 103.401 42.7596 102.619C42.613 101.837 42.2655 101.107 41.7513 100.5C42.2571 99.2273 42.5171 97.8703 42.5177 96.5008C42.239 94.2296 39.8284 94.3689 38.5325 96.1107C33.3071 103.078 27.5383 114.225 27.7055 122.795C27.608 123.199 27.817 123.659 28.1793 123.324C34.3657 117.195 38.9417 109.632 41.5005 101.308C43.2423 103.9 40.5529 108.373 39.5497 110.993C39.4243 111.341 39.9538 111.55 40.1349 111.243ZM28.235 122.224C28.3372 120.677 28.5514 119.141 28.876 117.625L31.0219 119.172C30.1162 120.175 29.1826 121.22 28.235 122.224ZM41.18 99.9287C40.2364 99.1368 39.1032 98.6038 37.8915 98.382C38.3571 97.5314 38.9181 96.7367 39.5636 96.0131C40.1907 95.4279 41.389 95.191 41.7513 96.1804C41.8743 97.4488 41.6779 98.7278 41.18 99.9008V99.9287ZM76.6428 28.9473C76.0297 29.1981 72.4625 34.521 71.8076 35.4546C70.9968 34.3773 70.0614 33.3997 69.0207 32.5424C68.9626 32.5154 68.8967 32.5105 68.8352 32.5284C68.7737 32.5463 68.7208 32.5859 68.6863 32.6399C68.666 32.6938 68.666 32.7532 68.6863 32.8071C69.4809 34.1081 70.4154 35.3183 71.4732 36.4161C71.5111 36.458 71.5573 36.4914 71.6089 36.5143C71.6605 36.5372 71.7163 36.549 71.7728 36.549C71.8292 36.549 71.885 36.5372 71.9366 36.5143C71.9882 36.4914 72.0345 36.458 72.0724 36.4161V36.3464L76.6428 30.1039C77.2838 29.1981 77.1026 28.7104 76.6428 28.9473ZM160.249 21.6318C160.541 21.6318 160.597 21.0744 160.249 21.0326C151.555 20.6003 142.842 20.7259 134.164 21.4089C133.871 21.4089 133.899 21.9244 134.164 21.9105C140.741 21.8548 153.072 22.0638 160.249 21.6318Z" fill="#3AAFA9"/>
<path d="M76.6428 37.3915C77.2002 37.1686 76.0855 33.0161 75.9322 32.3612C75.9276 32.332 75.9173 32.3039 75.9019 32.2786C75.8864 32.2533 75.8662 32.2313 75.8422 32.2138C75.8183 32.1963 75.7912 32.1837 75.7624 32.1768C75.7336 32.1698 75.7037 32.1685 75.6744 32.1731C75.6451 32.1777 75.617 32.188 75.5917 32.2034C75.5664 32.2188 75.5444 32.2391 75.5269 32.263C75.5095 32.287 75.4969 32.3141 75.4899 32.3429C75.4829 32.3717 75.4817 32.4016 75.4863 32.4309C75.6535 33.9219 75.8207 35.4268 76.0994 36.8899C73.7724 37.071 71.6683 37.0571 69.397 37.1546C68.979 35.3432 68.6167 32.9743 68.0036 31.1768C69.7562 31.3242 71.5181 31.3242 73.2707 31.1768C74.4273 31.1768 74.3437 30.4522 73.3543 30.4662C72.7691 30.4662 67.7806 30.3686 67.7806 30.9678C67.1257 30.9678 68.5052 36.8063 68.5888 37.1964C68.6032 37.2659 68.6393 37.329 68.6919 37.3766C68.7445 37.4242 68.8109 37.4538 68.8814 37.4612C69.0486 38.1858 76.3781 38.0743 76.6428 37.3915ZM161.029 32.5006C161.017 32.4464 160.987 32.3979 160.944 32.3626C160.901 32.3273 160.848 32.3072 160.792 32.3055C152.348 32.0825 143.318 32.4866 134.763 32.4727C134.512 32.4727 134.498 32.8907 134.763 32.9186C142.259 33.4202 153.853 33.7268 160.848 32.8071C160.911 32.7877 160.964 32.7455 160.998 32.6889C161.031 32.6322 161.042 32.565 161.029 32.5006ZM69.0765 27.317C71.0311 27.3715 72.9872 27.283 74.9289 27.0523C76.1412 27.3588 74.2879 19.7507 74.065 19.4023C74.0356 19.3367 73.9859 19.2822 73.9231 19.2471C73.8604 19.2119 73.7879 19.198 73.7166 19.2072C72.4625 19.2072 66.638 19.2072 65.8159 19.3884C64.8126 18.5802 66.2757 25.4498 66.4847 26.2719C66.8888 27.6514 67.7806 27.317 69.0765 27.317ZM65.9831 19.8622C68.5542 20.1762 71.1515 20.2135 73.7306 19.9736L74.6224 26.4113L67.3208 26.7875C67.3765 26.3137 66.1503 20.7818 65.9831 19.8622ZM154.424 24.558C154.498 24.558 154.569 24.5287 154.621 24.4764C154.673 24.4241 154.703 24.3532 154.703 24.2793C154.703 24.2054 154.673 24.1345 154.621 24.0823C154.569 24.03 154.498 24.0006 154.424 24.0006C152.696 23.6523 137.842 24.1818 134.763 24.4465C134.526 24.4465 134.526 24.8506 134.763 24.8646C136.435 24.9342 152.766 24.976 154.424 24.558ZM37.4178 68.7576C37.6825 68.7576 39.6472 67.6429 40.1071 69.4544C40.748 71.9347 43.2562 70.4437 43.6603 68.5486C44.1759 66.2077 41.9464 64.3683 39.3128 64.3683C33.962 64.3683 35.1883 69.0085 37.4178 68.7576ZM39.3128 64.9118C42.3226 65.0093 44.1759 67.8519 42.3505 69.524C40.7899 70.9175 40.9571 68.9109 40.2046 68.1306C38.6997 66.7372 37.5014 68.4232 36.6514 67.7126C34.9096 66.3191 38.2399 64.8282 39.3128 64.9118ZM71.947 42.2128C69.7593 42.2128 69.6757 41.8505 69.9544 43.9824C70.038 44.5816 70.4699 48.8176 71.1945 48.8595C71.3478 49.5283 77.6043 49.2914 78.3985 49.0545C79.4715 49.0545 78.3985 45.7521 78.3985 45.3759C77.4789 40.5267 78.6215 42.0316 71.947 42.2128ZM71.5429 48.539C71.1945 46.7832 70.9298 44.4562 70.4281 42.7841C72.7097 43.0071 75.0108 42.9227 77.2699 42.5333C77.4117 44.4734 77.7146 46.3983 78.1756 48.2881C76.0019 48.3857 73.7445 48.4972 71.5429 48.539ZM163.217 10.6516C160.653 10.4147 123.727 10.6516 119.045 11.0139C118.984 11.0242 118.93 11.0575 118.894 11.1069C118.858 11.1563 118.842 11.2178 118.85 11.2786C118.86 11.3266 118.883 11.3707 118.918 11.4054C118.953 11.4401 118.997 11.4638 119.045 11.4737C123.016 11.6827 160.374 11.5852 163.217 11.2647C163.298 11.2647 163.376 11.2324 163.433 11.1749C163.491 11.1174 163.523 11.0394 163.523 10.9581C163.523 10.8768 163.491 10.7989 163.433 10.7414C163.376 10.6839 163.298 10.6516 163.217 10.6516ZM100.331 20.8933C100.652 20.8236 100.54 20.3917 100.261 20.3359L79.0953 20.8654C79.0645 20.8687 79.0348 20.8784 79.008 20.8938C78.9811 20.9091 78.9578 20.93 78.9394 20.9549C78.9211 20.9798 78.9081 21.0082 78.9014 21.0384C78.8946 21.0686 78.8942 21.0998 78.9002 21.1302C78.9083 21.179 78.9314 21.2241 78.9664 21.259C79.0014 21.294 79.0464 21.3172 79.0953 21.3253C84.4042 21.7154 95.7189 21.8269 100.331 20.8933ZM184.257 60.0626C184.355 61.1216 185.414 71.6838 185.804 72.4502C188.591 77.8846 198.847 78.0239 199.07 69.9839C199.46 66.6396 200.811 57.0389 200.282 54.6561C200.435 53.8758 201.243 50.4758 201.397 48.6783C201.397 48.3857 201.954 40.4292 200.839 41.6415C199.351 43.6223 198.032 45.7245 196.896 47.9259C196.701 48.7758 196.506 49.6119 196.297 50.448C195.68 50.2155 195.04 50.0519 194.388 49.9603C194.388 49.389 193.97 46.6021 193.775 45.4874C192.813 43.6202 191.824 41.948 190.988 40.0112C189.803 37.0989 189.775 37.0432 189.441 40.248C188.883 43.5128 188.883 46.8487 189.441 50.1135C183.129 51.4234 183.784 55.1438 184.244 60.0626H184.257ZM199.502 44.7349C199.672 44.8998 199.876 45.0261 200.1 45.1055C200.323 45.1848 200.561 45.2152 200.798 45.1947V48.7062C200.21 48.7631 199.618 48.7012 199.055 48.524C198.493 48.3469 197.971 48.0581 197.523 47.675C198.206 46.7136 198.916 45.7242 199.502 44.7349ZM197.495 48.3996C198.418 49.0558 199.526 49.4022 200.658 49.389C200.198 51.9807 199.739 54.5586 199.376 57.1643C198.902 58.8643 196.589 59.4774 195.084 59.6864C196.004 56.0077 196.701 52.0504 197.495 48.3578V48.3996ZM194.708 58.6831C194.64 59.033 194.594 59.3866 194.569 59.7421L191.169 59.8258L189.775 46.6996C190.406 46.8898 191.073 46.9233 191.719 46.797C192.365 46.6707 192.97 46.3886 193.482 45.975C193.482 45.975 194.388 58.4741 194.708 58.6413V58.6831ZM189.943 42.2407C190.156 42.2964 190.379 42.3079 190.597 42.2743C190.815 42.2408 191.024 42.1629 191.211 42.0456L193.12 45.4734C192.619 45.8463 192.039 46.0982 191.425 46.2094C190.811 46.3206 190.18 46.2881 189.58 46.1144C189.556 44.7998 189.678 43.4867 189.943 42.1988V42.2407ZM199.599 58.293C199.348 61.8044 198.902 69.2175 197.997 72.5338C196.394 76.8395 189.413 76.9092 186.334 72.5338C185.748 67.6986 185.163 62.7798 184.592 58.0143C187.198 61.7905 197.328 61.3307 199.599 58.2512V58.293Z" fill="#3AAFA9"/>
<path d="M12.2803 73.6486C14.4011 74.7561 16.6401 75.6209 18.9548 76.2264C14.5098 82.3436 27.2318 91.0665 38.8669 86.4124C44.2038 84.2805 49.5406 77.5084 44.3152 72.8125C49.889 68.3117 51.8537 61.8184 51.6168 54.6979C51.2545 43.7177 46.4054 35.6358 35.2997 33.0301C29.8284 31.7497 24.0949 32.1926 18.8851 34.2981L16.7253 30.5637C17.4081 30.2014 18.1187 29.8531 18.8155 29.5465C20.6548 28.9195 20.0974 27.5678 19.0105 27.9719C-2.33682 35.7612 -7.26957 63.8388 12.2803 73.6486ZM19.122 75.251C18.7318 73.8576 19.7769 72.4642 19.2892 70.9453C18.1745 67.3363 13.5065 69.4265 12.3221 66.988C11.0262 64.3265 14.4819 63.8667 15.1786 61.9577C15.3018 61.6235 15.3332 61.2624 15.2695 60.9119C15.2058 60.5615 15.0493 60.2345 14.8163 59.9651C12.8098 57.4569 8.16964 60.1044 9.4934 54.252C10.4967 49.8349 14.7606 47.7447 17.854 49.6955C20.9474 51.6463 22.8007 52.9561 26.7162 50.6709C33.2375 46.839 32.4293 54.8512 30.4367 57.2758C29.3777 58.5856 27.4547 58.5159 25.9777 59.0733C21.1564 60.8848 21.1843 64.1315 25.0023 64.9257C26.4793 65.2323 28.3744 65.0929 29.5309 66.2077C32.6662 69.2593 26.1867 75.7805 24.1384 76.8535C23.0376 76.6305 19.6794 75.9756 19.122 75.251ZM36.8046 34.2563C45.012 36.8063 49.3455 42.7423 50.516 51.2283C51.0724 54.8905 50.9353 58.6248 50.1119 62.2364C49.7775 62.6962 45.0677 63.9921 43.5489 62.0413C42.9625 61.2528 42.5709 60.3368 42.4063 59.3681C42.2416 58.3994 42.3084 57.4055 42.6013 56.4676C43.507 54.1266 46.5865 52.0643 45.639 49.6676C44.3292 46.3513 40.4972 50.8799 38.8809 49.9463C36.4563 48.5529 40.9989 45.8775 35.8153 44.916C33.9063 44.5677 32.3457 45.348 30.9383 43.2439C27.7195 38.4227 36.094 34.2424 36.8046 34.2145V34.2563ZM20.9056 40.4292C20.9657 40.5242 21.0568 40.5955 21.1635 40.631C21.2701 40.6666 21.3858 40.6642 21.4908 40.6243C21.6115 40.5747 21.7082 40.48 21.7602 40.3603C21.8122 40.2406 21.8156 40.1054 21.7695 39.9833L19.2335 35.0366C24.4018 32.9642 30.092 32.5741 35.4948 33.9219C28.5277 36.221 27.7055 44.08 32.708 45.4316C33.767 45.7242 38.5046 45.3062 37.6825 47.3267C37.5156 47.6545 37.4221 48.0146 37.4083 48.3822C37.3945 48.7497 37.4608 49.1159 37.6027 49.4552C37.7445 49.7946 37.9585 50.099 38.2297 50.3475C38.501 50.5959 38.823 50.7823 39.1735 50.8939C41.1243 51.2422 43.2144 48.3021 44.6497 49.5004C47.1578 51.5906 40.6087 54.8233 41.7235 59.4774C42.5595 63.0446 44.0366 64.1733 47.6595 63.6577C48.4531 63.5894 49.2228 63.3518 49.9168 62.961C46.921 73.4535 35.7178 78.2887 25.4761 77.0207C27.5383 75.1256 30.7432 71.3634 31.0498 68.6601C31.5235 63.8667 26.0195 64.8282 23.999 63.7692C21.2122 62.3757 25.1974 59.9512 27.7473 59.3938C28.5829 59.2562 29.3917 58.9882 30.144 58.5995C34.3243 56.0356 33.1678 45.7242 27.1064 49.5283C21.9228 52.775 20.3204 50.016 17.9097 48.7759C14.0499 46.8111 8.75489 49.9045 8.49013 55.743C8.33686 59.7143 11.6114 58.8643 13.5204 59.9233C13.8626 60.0516 14.1482 60.2969 14.3267 60.6158C14.5053 60.9346 14.5652 61.3063 14.4958 61.6651C14.0499 63.0585 12.0294 63.3372 11.4721 65.0232C11.2517 65.6809 11.2597 66.3936 11.4949 67.0461C11.7301 67.6986 12.1787 68.2525 12.768 68.6183C14.5934 69.6773 17.8261 68.7576 18.5925 71.2797C18.9687 72.506 18.2302 73.7601 18.3138 75.0002C14.7587 73.7224 11.6282 71.4825 9.27118 68.5302C6.9142 65.5778 5.42334 62.0289 4.96475 58.279C3.71067 48.8037 9.4934 39.5931 17.9933 35.5661C18.8712 37.1825 19.972 38.8546 20.9056 40.4292ZM8.36472 36.7087C10.4565 34.5396 12.867 32.7024 15.513 31.2604C16.2897 32.452 17.0014 33.6846 17.645 34.953C13.2717 36.9847 9.63208 40.3167 7.22298 44.4939C4.81388 48.6712 3.75274 53.4902 4.18443 58.293C4.47491 61.0458 5.33775 63.7074 6.71756 66.1071C8.09737 68.5068 9.96366 70.5914 12.1967 72.2273C-1.12454 64.8282 -1.68191 47.3824 8.36472 36.7087ZM157.086 46.5324C155.887 46.2677 137.968 46.1841 135.432 46.5324C135.369 46.5324 135.309 46.5574 135.264 46.6018C135.22 46.6462 135.195 46.7065 135.195 46.7693C135.195 46.8321 135.22 46.8924 135.264 46.9368C135.309 46.9812 135.369 47.0062 135.432 47.0062C136.393 47.1455 155.121 47.466 157.086 47.0062C157.151 46.9917 157.209 46.9556 157.25 46.9036C157.292 46.8517 157.315 46.7871 157.315 46.7205C157.315 46.654 157.292 46.5894 157.25 46.5374C157.209 46.4855 157.151 46.4493 157.086 46.4349V46.5324ZM163.036 14.4835C149.589 14.6368 132.213 14.177 120.09 14.4835C119.756 14.4835 119.783 14.9573 120.09 14.9851C125.176 15.5425 158.939 15.5007 163.036 14.9851C163.075 14.9818 163.114 14.9703 163.149 14.9514C163.184 14.9325 163.215 14.9065 163.24 14.8752C163.265 14.8439 163.283 14.8078 163.294 14.7692C163.304 14.7306 163.306 14.6903 163.3 14.6507C163.278 14.5995 163.241 14.5562 163.194 14.5264C163.146 14.4966 163.091 14.4817 163.036 14.4835ZM161.545 43.5087C153.393 43.3275 143.207 43.8292 134.526 43.6062C134.275 43.6062 134.219 43.9685 134.526 43.9964C139.863 44.5259 156.57 45.0554 161.6 44.08C161.865 44.0103 161.893 43.5087 161.545 43.5087Z" fill="#3AAFA9"/>
</svg>
