<svg width="241" height="247" viewBox="0 0 241 247" fill="none" xmlns="http://www.w3.org/2000/svg">
<path d="M101.532 183.298C103.155 182.265 104.851 181.352 106.608 180.566L107.018 181.331C107.065 181.421 107.144 181.492 107.238 181.53C107.333 181.567 107.438 181.569 107.535 181.536L114.623 179.01C115.575 173.979 117.659 166.208 117.688 166.09C117.237 164.374 116.955 162.909 116.574 161.255C112.764 163.763 105.732 168.475 102.136 171.279C102.058 171.359 102.007 171.461 101.991 171.571C101.974 171.681 101.992 171.793 102.042 171.893C102.042 171.893 102.178 172.141 102.361 172.5C100.389 172.954 94.4173 174.028 93.3067 175.702C93.1566 176.061 93.1343 176.46 93.2434 176.833C93.4955 178.316 96.8447 189.513 98.7801 192.584C99.7874 194.195 101.016 193.711 101.499 191.835C101.925 189.081 101.96 186.28 101.604 183.516C101.572 183.378 101.543 183.396 101.532 183.298ZM98.127 174.089C99.3961 173.685 99.8038 173.614 102.562 172.889C103.495 174.662 105.417 178.306 106.404 180.166C104.6 180.887 102.852 181.741 101.176 182.721C99.9391 179.927 98.9198 177.041 98.127 174.089Z" fill="#3AAFA9"/>
<path d="M175.562 58.5404C175.741 58.1083 175.292 57.7093 174.92 57.4042C175.539 56.3833 176.268 55.4331 177.093 54.5704C178.545 53.3751 179.797 51.956 180.803 50.3665C181.214 49.6801 181.966 48.29 181.428 47.6993C180.89 47.1087 180.201 47.2225 179.369 47.8273C179.672 47.3156 179.887 46.7566 180.004 46.1737C180.111 45.2783 179.257 44.7715 177.883 45.7357C178.231 44.7287 178.146 43.7769 177.111 43.5465C176.275 43.3594 175.37 44.4721 174.863 45.1806C173.865 46.5597 172.964 48.0059 172.164 49.5089C171.174 48.2632 169.743 46.8958 168.535 47.7099C167.326 48.5241 168.88 50.5668 169.844 51.651L167.821 53.8699C167.412 53.7573 166.98 53.7602 166.572 53.8783C163.944 54.9748 153.583 67.4319 152.31 67.7249C151.335 67.9495 135.865 64.4784 123.376 65.3227C123.336 65.2558 123.278 65.2015 123.208 65.1661C123.139 65.1308 123.061 65.1157 122.984 65.1227C120.8 65.248 118.633 65.5788 116.512 66.1107C116.448 66.1299 116.39 66.1627 116.34 66.2069C116.291 66.2511 116.251 66.3056 116.225 66.3666L115.334 66.5717C114.924 65.7617 113.683 63.9597 113.232 63.2598C113.809 62.4682 114.732 61.9206 115.02 60.7937C115.544 58.7079 114.755 55.4733 114.011 53.4562C114.999 52.2685 114.694 50.798 114.074 49.3665C113.829 48.7866 113.185 47.4946 112.598 47.2725C112.268 47.1476 111.707 47.4776 111.232 47.7881C110.434 46.699 110.561 47.2504 110.661 46.7138C110.707 46.4664 110.709 46.2126 110.667 45.9644C111.268 46.0046 112.175 44.6121 111.43 43.2206C111.097 42.7378 110.72 42.2864 110.305 41.872C110.37 41.4774 110.588 40.9694 109.286 39.8736C108.75 39.5095 108.118 39.313 107.47 39.3093L106.983 39.4216C106.513 38.9919 105.91 38.7365 105.275 38.6983C104.324 38.6762 103.403 39.0287 102.71 39.6799C102.535 39.8877 102.414 40.1389 102.236 40.3361C101.689 40.1554 101.104 40.1282 100.543 40.2574C99.9822 40.3865 99.4675 40.6672 99.0552 41.0687C98.7999 41.2434 98.5825 41.468 98.4162 41.7289C98.2499 41.9897 98.138 42.2815 98.0873 42.5867C97.5265 42.5271 96.9595 42.585 96.4223 42.7568C95.8852 42.9286 95.3897 43.2104 94.9676 43.5843C93.3647 44.9993 92.3794 46.9856 92.2226 49.1179C92.2746 49.422 92.3439 49.7229 92.4301 50.0191L92.3135 50.046C90.6694 50.179 89.5136 54.4199 91.8122 56.9832C92.0836 57.2892 92.4032 57.5617 92.7243 57.8897C93.6471 58.7936 93.4553 59.1728 95.2693 60.1171C95.8025 60.3962 95.8694 60.3473 96.1988 60.5171C96.5282 60.6869 96.3953 60.5947 96.6911 61.1518C96.8584 61.4816 97.0894 61.7749 97.3708 62.0148C97.6522 62.2548 97.9784 62.4365 98.3305 62.5495C98.682 63.5606 99.3484 64.4324 100.232 65.0368C100.513 65.2357 100.824 65.3901 101.152 65.4947C101.241 65.5207 101.333 65.526 101.424 65.5103C102.196 67.4091 103.179 69.8846 103.601 70.9376L102.774 71.6638C101.654 72.4449 100.586 73.2988 99.5779 74.2198C99.5015 74.3037 99.459 74.413 99.4587 74.5264C98.4716 75.379 97.5407 76.1851 97.0194 76.6848C89.751 83.6174 73.424 122.045 73.5269 123.606C73.5198 123.699 73.5411 123.791 73.5879 123.871C74.0565 124.339 74.5883 124.739 75.1678 125.06C75.082 125.364 74.9623 125.657 74.8111 125.934C73.0104 127.812 70.3058 130.612 69.0236 132.85C68.9285 132.984 68.87 133.141 68.854 133.305C68.838 133.468 68.8649 133.634 68.9322 133.784C68.9995 133.934 69.1048 134.064 69.2377 134.161C69.3706 134.258 69.5265 134.319 69.6901 134.338C70.0326 134.37 70.0782 134.326 71.8845 132.716C71.431 133.345 71.1057 134.057 70.927 134.812C70.9234 135.427 71.5317 135.644 72.1752 135.384C72.5284 135.199 72.85 134.959 73.1281 134.673C73.0048 135.013 72.9824 135.38 73.0634 135.732C73.1444 136.084 73.3254 136.405 73.5847 136.656C74.9526 137.748 76.7611 132.899 77.985 131.523C78.7521 132.139 79.9632 133.713 81.1387 132.951C82.1567 132.281 80.3734 130.113 80.3158 129.378C80.6518 128.865 81.0243 128.376 81.4304 127.916C82.388 128.334 83.4221 128.548 84.4671 128.545C86.2165 128.142 100.23 105.51 101.28 103.716C101.861 108.518 103.98 129.209 105.411 133C106.063 134.714 110.373 133.989 112.187 133.672C114.576 146.52 118.655 165.878 118.606 166.102C117.191 172.803 116.808 174.633 116.287 176.684C115.326 180.367 110.889 194.161 110.707 197.106C110.691 197.568 110.719 197.74 111.361 198.441C110.325 200.192 109.409 202.01 108.617 203.884C108.278 205.079 113.056 214.384 115.633 217.475C116.216 218.167 117.152 219.224 118.025 218.99C120.653 218.284 118.45 208.765 117.763 206.121C117.744 206.039 117.695 205.967 117.627 205.918C117.942 205.09 118.308 204.283 118.722 203.5C119.113 203.654 119.515 203.778 119.924 203.871C120.321 203.947 120.661 203.578 120.902 203.266C123.792 199.675 137.37 171.561 138.873 159.424C139.552 153.887 140.396 146.256 139.943 141.091C139.642 137.828 138.944 134.615 137.862 131.522C137.852 131.477 137.86 131.429 137.884 131.39C137.909 131.351 137.948 131.323 137.993 131.313C138.038 131.303 138.085 131.311 138.124 131.335C138.163 131.359 138.191 131.399 138.202 131.444C139.468 134.513 140.319 137.737 140.734 141.032C141.548 148.157 139.4 163.892 137.699 169.888C140.115 168.841 145.013 166.641 147.323 165.328C155.014 160.91 160.921 151.656 159.651 143.084C158.953 139.068 158.038 135.093 156.908 131.177C155.576 125.718 153.61 120.434 151.05 115.433C153.016 113.696 154.744 111.791 155.109 110.322C155.893 107.183 148.384 91.8856 146.512 87.5382C151.154 86.9939 159.07 86.1199 162.017 82.4824C165.369 78.227 172.11 66.8717 175.562 58.5404ZM117.056 205.67C114.882 204.954 111.577 202.823 110.679 200.764C110.986 200.112 111.325 199.498 111.617 198.828C113.559 200.69 115.797 202.216 118.24 203.343C117.8 204.095 117.404 204.872 117.056 205.67ZM170.39 51.838C170.436 51.7904 170.463 51.7266 170.464 51.6599C170.466 51.5932 170.441 51.5285 170.396 51.4792C169.866 50.8755 168.194 48.7039 168.905 48.2499C169.311 47.9777 169.767 48.1631 170.181 48.4585C170.829 48.9796 171.385 49.6065 171.825 50.3128C171.859 50.3707 171.908 50.4181 171.967 50.4502C172.026 50.4823 172.092 50.4978 172.159 50.4949C172.226 50.4921 172.291 50.4711 172.347 50.4342C172.403 50.3973 172.448 50.3459 172.477 50.2854C173.266 48.8643 175.13 45.6105 176.363 44.5672C177.296 43.7717 177.785 44.7309 175.735 47.7041C175.243 48.2965 174.781 48.9133 174.351 49.5523C174.331 49.6008 174.326 49.6547 174.338 49.7061C174.35 49.7575 174.378 49.8039 174.417 49.8385C174.481 50.1142 174.774 50.3704 175.09 49.9962C175.825 48.9749 176.627 48.0033 177.491 47.0876C177.926 46.5978 178.478 46.2251 179.094 46.0037C179.001 47.0524 176.653 50.3843 176.467 50.7398C176.403 50.8307 176.377 50.9431 176.395 51.0528C176.413 51.1626 176.474 51.2609 176.564 51.3265C176.653 51.3922 176.765 51.42 176.875 51.4039C176.985 51.3879 177.085 51.3293 177.152 51.2408C178.153 50.2063 179.8 47.9514 180.571 48.0529C181.343 48.1543 179.687 50.6123 179.264 51.2009C176.829 54.5418 177.223 52.6647 174.528 57.059C172.61 55.7334 170.515 54.6826 168.305 53.937L170.39 51.838ZM136 113.16C135.483 111.738 134.897 110.21 134.243 108.63L134.559 107.92C136.052 104.707 135.69 100.224 134.705 96.8672C136.984 101.579 139.011 106.259 140.819 110.956L136 113.16ZM111.874 80.4875C108.597 79.0092 103.27 76.3842 100.085 74.4826L103.838 71.3854C108.57 74.1261 112.869 77.5531 116.597 81.5546C122.394 88.1001 127.26 95.4139 131.059 103.289L111.014 85.3858L112.044 80.8391C112.056 80.77 112.045 80.6991 112.015 80.6361C111.984 80.5731 111.935 80.5212 111.874 80.4875ZM116.272 66.8135C116.362 66.9155 117.453 68.3056 119.194 70.7741C119.221 70.8907 119.63 73.5877 119.749 74.5427C118.272 74.318 116.832 73.8989 115.465 73.2964C115.486 72.3202 115.571 67.8905 115.428 66.9298L116.272 66.8135ZM115.131 79.0675C115.161 78.8596 115.176 78.588 115.193 78.2716L115.989 78.4791C116.453 78.6514 116.108 77.8822 117.006 80.1318C117.096 80.5241 117.302 80.9344 117.433 81.4066C116.743 80.6389 115.921 79.8345 115.141 79.0651L115.131 79.0675ZM114.332 78.3137C111.674 75.9339 108.787 73.8237 105.713 72.0142L114.495 73.6425C114.356 74.4449 114.426 76.7846 114.342 78.3112L114.332 78.3137ZM123.916 82.649C122.189 79.9987 120.628 76.9529 120.03 76.1975C119.993 75.9275 119.931 75.6613 119.847 75.4023C120.013 75.4241 120.182 75.4228 120.348 75.3985C120.451 75.3761 120.542 75.3174 120.604 75.2332C120.667 75.149 120.697 75.045 120.689 74.9403C120.693 74.5709 120.424 72.7685 120.354 72.3713C125.232 79.4481 129.645 86.8345 133.564 94.4838C124.638 83.1191 126.411 86.5963 123.927 82.6466L123.916 82.649ZM137.346 100.87C132.259 89.8381 124.68 76.3659 117.379 66.7708C119.154 66.3629 120.96 66.0964 122.778 65.974C125.535 73.8244 124.718 73.7221 125.396 73.901C126.074 74.0799 130.047 74.7055 130.639 74.8036C130.774 75.6322 136.914 98.8033 137.356 100.868L137.346 100.87ZM112.33 48.0487C113.161 49.1276 113.664 50.4222 113.781 51.7787C113.771 52.1329 113.664 52.4776 113.47 52.7744C113.277 53.0712 113.005 53.3085 112.684 53.4598C112.364 53.6111 112.008 53.6706 111.656 53.6316C111.303 53.5925 110.969 53.4565 110.689 53.2387C109.938 52.2895 109.299 51.2564 108.786 50.1601C108.987 49.7231 111.869 48.2777 112.33 48.0487ZM100.183 62.0112C99.7548 61.9241 99.3225 61.8597 98.8878 61.8182C98.5911 61.7692 98.3096 61.653 98.0648 61.4783C97.82 61.3037 97.6185 61.0754 97.4757 60.8108C97.3328 60.5462 97.2524 60.2524 97.2407 59.952C97.229 59.6515 97.2862 59.3524 97.408 59.0775C97.9466 58.3617 98.5582 58.2543 99.3025 58.965C99.8013 59.5311 99.8029 59.5866 99.9766 59.6136C100.027 59.6232 100.079 59.6219 100.128 59.6099C100.178 59.5979 100.225 59.5754 100.265 59.5439C100.305 59.5124 100.338 59.4727 100.362 59.4273C100.386 59.382 100.4 59.3321 100.402 59.281C100.407 58.5812 100.274 57.8873 100.01 57.2389C99.7146 56.5366 98.9462 53.2971 98.943 53.1862C99.2903 53.2781 99.6559 53.2749 100.001 53.1768C101.903 52.6607 102.058 51.5867 102.636 50.6051C103.535 50.4873 103.813 50.8698 104.693 50.1314C105.098 49.7584 105.451 49.3316 105.74 48.8629C106.074 48.9175 106.402 48.9987 106.723 49.1056C107.429 49.2648 108.167 49.1936 108.829 48.9024C109.492 48.6112 110.043 48.1154 110.403 47.4876C110.571 47.6834 110.728 47.8817 110.878 48.0929C109.973 48.6196 109.162 49.2931 108.478 50.0858C108.349 50.3499 108.893 51.4976 109.022 51.7692C108.16 52.0855 107.364 52.5603 106.676 53.1692C106.39 52.6545 105.804 51.7066 105.186 51.5473C105.009 51.5347 104.832 51.5756 104.677 51.6645C103.757 52.0327 100.57 53.8499 100.286 54.507C100.015 54.9824 101.742 57.7778 102.175 58.2029C103.829 59.8094 107.275 58.4351 107.435 56.076C107.43 55.2978 107.253 54.5303 106.917 53.8282C107.225 53.7574 108.072 53.2163 108.17 53.1601C109.28 54.635 109.514 54.6816 110.77 56.2569C110.676 56.3791 110.522 56.5821 110.387 56.7248C109.749 57.3965 109.57 57.3483 109.662 57.5506C109.684 57.5898 109.719 57.6197 109.762 57.6346C109.804 57.6494 109.851 57.6483 109.892 57.6314C110.323 57.4653 110.73 57.244 111.103 56.973C111.329 56.8236 111.492 56.5951 111.558 56.3322C111.701 55.5959 109.479 53.4616 108.659 52.8577C108.786 52.8284 109.034 52.548 109.23 52.3801C109.8 53.4992 110.217 54.3859 111.469 54.5887C111.829 54.6374 112.195 54.613 112.545 54.5171C112.895 54.4211 113.222 54.2555 113.507 54.0301C114.106 55.8571 114.773 58.8968 114.263 60.7559C114.005 61.7197 112.957 62.3072 112.399 63.1836C112.234 63.4339 112.437 63.6884 112.582 63.9788C114.514 66.984 114.532 66.9685 114.567 67.4073C114.66 69.2394 114.624 71.0758 114.459 72.9029C114.167 72.8473 110.824 71.9537 104.47 71.0277C104.014 69.8711 101.576 63.6999 100.998 62.5939C100.924 62.1755 100.849 62.0923 100.17 61.9582L100.183 62.0112ZM106.608 55.9761C106.535 57.2099 105.049 58.077 103.831 58.0226C102.612 57.9682 102.404 57.4022 101.546 56.1484C101.171 55.6802 100.867 55.1597 100.643 54.6034C100.905 54.1412 104.551 52.4751 105.012 52.291C105.944 53.2817 106.504 54.5654 106.596 55.9231L106.608 55.9761ZM79.7809 129.189C79.4684 129.674 80.3045 130.832 80.6458 131.926C80.6677 132.021 80.763 132.435 80.7067 132.481C80.1675 132.807 79.4241 132.051 78.9733 131.597C78.5225 131.142 78.0278 130.497 77.5522 130.807C76.6067 131.55 74.899 135.382 74.0123 135.944C73.3097 135.123 75.4853 131.819 75.5466 131.649C75.5718 131.571 75.5752 131.488 75.5565 131.409C75.5379 131.33 75.4978 131.257 75.4406 131.199C75.3835 131.14 75.3114 131.099 75.2324 131.079C75.1533 131.059 75.0703 131.061 74.9923 131.084C74.8014 131.128 74.7132 131.327 74.4774 131.661C73.7774 132.75 72.9135 133.725 71.9163 134.551C72.6685 133.142 73.5075 131.782 74.4282 130.477C74.4719 130.405 74.4953 130.323 74.496 130.239C74.496 130.239 74.1439 129.728 73.7605 130.051C73.2237 130.532 70.6318 132.948 69.7907 133.611C69.6439 133.555 69.6888 133.411 69.7126 133.272C70.7851 131.093 73.5591 128.11 75.2488 126.236C75.4292 125.938 75.5617 125.613 75.6415 125.274C77.3356 126.251 79.099 127.103 80.9175 127.822C80.507 128.25 80.1272 128.707 79.7809 129.189ZM106.673 133.145C106.405 133.05 106.204 132.951 106.128 132.768C104.549 128.576 102.148 103.316 101.872 102.363C101.859 102.306 101.835 102.253 101.801 102.206C101.767 102.159 101.724 102.119 101.675 102.089C101.625 102.059 101.57 102.039 101.512 102.03C101.455 102.021 101.396 102.025 101.34 102.039C100.799 102.164 101.754 101.944 91.2249 117.99C90.5272 119.032 85.2196 127.11 84.1852 127.806C82.5998 128.048 75.6597 124.723 74.3661 123.469C75.3514 119.312 90.6514 83.4547 97.3096 76.9752C97.8203 76.478 98.7087 75.6816 99.6853 74.8315C100.154 75.1059 100.645 75.3402 101.153 75.5319C104.15 77.2979 108.244 79.4143 111.344 81.0002L110.245 85.485C110.226 85.5453 110.224 85.6093 110.238 85.6707C110.252 85.7321 110.282 85.7888 110.325 85.8349C132.203 105.638 131.898 105.43 132.004 105.405C134.314 110.614 136.241 115.984 137.77 121.472C138.114 122.967 138.085 122.84 138.124 122.719C138.163 122.599 138.141 122.793 138.141 122.793C136.22 126.183 111.427 134.64 106.673 133.145ZM157.194 84.5199C152.545 86.294 146.887 86.5475 145.828 86.7468C144.593 84.0547 142.815 81.6474 140.604 79.6766C140.571 79.6481 140.528 79.6333 140.484 79.6351C140.44 79.6369 140.399 79.6552 140.368 79.6863C140.337 79.7174 140.319 79.7591 140.317 79.8029C140.316 79.8467 140.331 79.8895 140.359 79.9228C141.262 81.0322 144.562 85.9552 145.374 87.1528C145.332 87.6983 154.999 107.032 154.234 110.111C153.557 112.89 146.995 117.706 144.574 119.213C142.694 113.43 140.493 107.757 137.98 102.22C137.638 99.0834 132.991 81.0392 131.307 74.3595C131.285 74.2824 131.242 74.2132 131.182 74.1598C131.122 74.1063 131.049 74.0709 130.97 74.0576L125.748 73.1501C125.146 70.6354 124.407 68.1555 123.535 65.7215C135.894 65.0412 151.306 68.6484 152.464 68.3929C154.139 68.0071 164.389 55.5981 166.878 54.623C167.981 54.179 173.89 57.3401 174.736 58.3957C171.327 66.5721 164.619 77.8303 161.261 81.9643C160.146 83.1494 158.746 84.0292 157.194 84.5199Z" fill="#3AAFA9"/>
<path d="M105.028 54.1071C104.999 54.0405 104.957 53.9804 104.904 53.9301C104.852 53.8798 104.79 53.8403 104.722 53.8139C104.654 53.7875 104.582 53.7748 104.509 53.7763C104.436 53.7779 104.365 53.7937 104.298 53.823C104.232 53.8523 104.171 53.8943 104.121 53.9468C104.071 53.9994 104.031 54.0613 104.005 54.129C103.979 54.1968 103.966 54.2691 103.967 54.3418C103.969 54.4145 103.985 54.4862 104.014 54.5527C104.47 55.5642 104.569 55.7983 105.035 55.6908C105.124 55.6708 105.205 55.6291 105.274 55.5695C105.342 55.5099 105.394 55.4342 105.425 55.3494C105.457 55.2645 105.466 55.1732 105.454 55.0836C105.441 54.994 105.406 54.909 105.352 54.8363C105.281 54.674 105.071 54.1976 105.028 54.1071ZM109.889 60.3788C110.624 60.4216 111.206 59.9415 111.146 59.7767C111.085 59.612 111.126 59.6919 110.113 59.5569C109.433 59.4677 108.554 58.7994 108.339 58.9828C108.125 59.1662 108.652 59.7593 108.766 59.867C109.072 60.1589 109.468 60.3392 109.889 60.3788ZM126.961 45.8403C126.913 51.981 127.033 57.1562 127.09 58.1813C127.076 58.6363 127.158 59.0891 127.329 59.5107C128.167 60.5794 135.975 61.2711 136.79 60.5922C137.605 59.9132 138.758 53.9647 140.264 47.7561C141.985 47.4173 143.666 46.8993 145.279 46.2105C146.975 45.4776 148.574 44.5356 150.037 43.4065C153.24 40.9272 155.531 32.9412 155.241 29.2566C154.748 25.2973 153.032 21.5904 150.332 18.6529C137.883 5.27481 113.702 19.5859 119.769 36.2313C121.277 40.0124 123.758 43.3274 126.961 45.8403ZM136.337 56.9785C136.376 57.1481 136.18 57.1709 135.277 57.2227C133.447 57.4087 131.599 57.2553 129.824 56.7701C128.99 56.5381 128.769 56.4997 128.801 56.3024C128.834 56.105 129.008 56.132 130.226 56.1864C130.332 56.162 133.863 56.4653 134.882 56.5766C136.229 56.8472 136.303 56.8301 136.337 56.9785ZM132.173 39.772C133.319 39.57 134.394 39.0765 135.293 38.3389C136.343 38.5789 137.428 38.6206 138.492 38.4619C137.475 42.1907 135.418 49.7878 135.082 53.6613L130.301 53.4561C130.76 50.6037 131.697 43.957 132.152 39.7769L132.173 39.772ZM131.6 38.9775C130.781 39.0402 129.964 38.8325 129.274 38.3863C128.584 37.9401 128.06 37.28 127.782 36.5073C126.996 34.4551 127.807 31.7676 129.982 31.8583C131.346 31.9127 131.739 32.8939 131.812 34.2281C131.836 35.2051 131.687 37.707 131.569 38.94L131.6 38.9775ZM133.897 35.7687C133.851 35.0488 133.959 34.3273 134.214 33.6526C134.326 33.291 134.537 32.9681 134.824 32.7206C135.11 32.473 135.46 32.3108 135.834 32.2523C136.672 32.3049 137.354 33.7111 136.922 34.7931C136.49 35.7611 135.877 36.6375 135.116 37.375C134.771 37.2665 134.467 37.0549 134.245 36.7686C134.023 36.4823 133.895 36.1351 133.876 35.7736L133.897 35.7687ZM121.05 24.5368C124.484 17.7281 132.899 13.4007 139.898 14.2674C143.683 14.6637 147.195 16.4221 149.78 19.2154C152.349 22.0107 153.984 25.5362 154.459 29.3027C154.731 32.7125 152.555 40.4261 149.607 42.7017C146.909 44.7712 143.773 46.1961 140.439 46.8673C140.079 46.9503 139.697 47.0382 139.618 47.3244C139.285 48.7408 138.707 51.4643 138.115 54.0345C137.253 53.8385 136.376 53.7119 135.494 53.6558C135.913 49.8525 138.201 42.0459 139.275 38.2706C140.905 38.0394 142.447 37.3918 143.754 36.3904C144.101 36.0919 144.355 35.7008 144.487 35.2629C144.619 34.825 144.624 34.3585 144.5 33.9181C144.376 33.4777 144.13 33.0818 143.789 32.7767C143.448 32.4716 143.027 32.2701 142.576 32.1957C140.747 31.7684 139.718 34.0375 139.232 35.8575C139.097 36.3353 138.947 36.8947 138.779 37.525C137.909 37.6661 137.023 37.6861 136.147 37.5842C136.822 36.8318 137.379 35.9806 137.798 35.0601C138.017 34.4759 138.049 33.8381 137.891 33.2347C137.732 32.6314 137.389 32.0922 136.911 31.6917C136.546 31.4235 136.095 31.2977 135.644 31.3379C135.193 31.3781 134.772 31.5815 134.46 31.91C133.823 32.5373 133.38 33.3352 133.185 34.2079C132.99 35.0807 133.051 35.9912 133.36 36.8302C133.588 37.2916 133.952 37.6717 134.404 37.9186C133.775 38.3668 133.061 38.683 132.307 38.8481C132.443 37.4994 132.612 35.0823 132.58 34.1183C132.571 33.5664 132.472 33.0196 132.285 32.5003C132.097 32.0607 131.787 31.6846 131.39 31.4174C130.994 31.1501 130.529 31.0031 130.051 30.9939C127.306 30.8556 126.065 34.1448 127.049 36.7206C127.374 37.6502 127.989 38.4504 128.804 39.0028C129.619 39.5552 130.59 39.8303 131.574 39.7873C131.096 43.9167 130.394 50.5652 129.939 53.4388L127.468 53.3717C127.234 45.5208 127.455 45.6595 127.221 45.6129C124.105 43.0962 121.72 39.7898 120.316 36.0383C119.624 34.1771 119.332 32.191 119.458 30.2094C119.585 28.2278 120.127 26.295 121.05 24.5368ZM139.515 37.4226C139.947 35.9051 140.752 32.6157 142.36 33.0046C142.675 33.0544 142.971 33.1893 143.215 33.3948C143.459 33.6003 143.643 33.8685 143.745 34.1706C144.154 36.0415 141.324 37.0393 139.472 37.4323L139.515 37.4226ZM181.178 32.7511C182.283 31.7054 183.733 31.1013 185.253 31.0534C186.857 30.7141 188.53 31.0014 189.929 31.8563C191.328 32.7113 192.347 34.0691 192.777 35.6513C191.688 35.3151 190.516 35.3641 189.459 35.7901C186.852 36.6362 183.706 38.8791 184.763 41.3375C185.634 43.3701 188.367 42.4392 190.355 41.3783C192.344 40.3174 193.79 38.8901 193.754 36.7436C196.763 38.0269 198.124 41.1746 198.97 44.3627C198.98 44.4077 199.008 44.4468 199.047 44.4712C199.086 44.4957 199.133 44.5037 199.178 44.4933C199.223 44.4829 199.263 44.4551 199.287 44.416C199.311 44.3769 199.319 44.3296 199.309 44.2846C198.555 40.6732 197.098 37.3021 193.69 35.9322C193.508 35.0047 193.14 34.1237 192.608 33.3426C192.076 32.5616 191.39 31.8966 190.594 31.388C189.797 30.8794 188.906 30.5378 187.973 30.3839C187.041 30.2299 186.087 30.2668 185.169 30.4923C183.647 30.6163 182.218 31.2696 181.128 32.3384C180.78 32.6196 181.026 32.8644 181.178 32.7511ZM192.599 38.1262C191.762 39.9713 188.557 41.5691 186.927 41.6654C186.322 41.7043 185.788 41.5703 185.522 40.9953C184.652 38.9627 188.044 36.9646 190.211 36.3873C191.084 36.1143 192.024 36.1374 192.883 36.4529C192.931 37.0258 192.833 37.6013 192.599 38.1262ZM173.468 21.475C174.28 19.8142 172.955 17.5514 169.782 18.2709C168.552 18.5542 168.247 19.942 168.608 21.1206C169.455 23.9287 172.648 23.104 173.468 21.475ZM169.338 20.8966C169.176 20.1968 169.295 19.2093 170.029 19.0514C171.736 18.6583 172.704 19.2728 172.906 20.1528C173.326 22.1665 169.918 24.0455 169.338 20.8966ZM196.586 141.198C186.409 139.623 186.232 158.633 182.184 175.866C182.286 176.528 182.458 177.177 182.697 177.802C183.07 179.425 185.724 190.124 186.949 191.126C187.315 191.555 188.274 190.82 188.702 190.398C192.33 186.803 195.629 182.89 198.558 178.705C198.581 178.662 198.595 178.614 198.599 178.565C198.603 178.516 198.597 178.467 198.582 178.42C199.907 175.156 203.927 158.823 204.029 151.073C204.084 145.59 201.952 142.006 196.586 141.198ZM203.016 153.897C197.879 154.407 192.693 153.942 187.728 152.527C189.128 147.259 190.959 141.199 196.48 142.049C202.625 142.989 203.576 147.65 203.009 153.865L203.016 153.897ZM191.722 185.527C191.333 185.329 190.924 185.176 190.5 185.071C188.9 184.673 187.208 184.895 185.765 185.693C185.368 184.456 182.874 176.388 182.857 176.314C191.467 177.39 188.727 176.693 197.495 178.793C196.849 179.768 194.243 182.657 191.717 185.506L191.722 185.527ZM190.126 153.583C191.29 153.91 192.47 154.178 193.661 154.388C192.11 158.765 190.881 163.25 189.985 167.806C189.061 171.938 189.12 171.902 188.242 176.38C187.104 176.285 185.97 176.211 184.837 176.137C185.457 173.594 189.761 155.051 190.121 153.562L190.126 153.583ZM188.68 176.391C190.702 169.416 192.441 160.921 194.117 154.428C195.28 154.629 196.423 154.745 197.556 154.819C197.239 156.009 196.245 159.208 195.998 160.124C195.751 161.041 193.372 170.632 193.216 171.361C192.972 172.533 192.317 175.799 192.121 176.838C190.93 176.61 189.808 176.489 188.633 176.38L188.68 176.391ZM192.535 176.888C192.91 175.562 194.434 170.008 194.616 169.296C194.887 168.196 197.828 155.561 197.984 154.832C199.023 154.883 200.105 154.88 200.792 154.856C200.072 160.604 196.836 172.101 195.981 177.601C193.949 177.165 193.487 177.048 192.487 176.876L192.535 176.888ZM187.682 152.862L189.825 153.485C187.5 160.879 185.732 168.437 184.537 176.095L182.834 175.973C185.971 161.429 185.862 159.645 187.635 152.85L187.682 152.862ZM198.092 178.087L196.315 177.692C197.262 173.901 200.664 163.951 201.169 154.847C201.787 154.816 202.392 154.777 202.971 154.722C201.921 162.62 200.274 170.426 198.044 178.075L198.092 178.087ZM166.459 192.618C166.801 192.171 166.994 191.627 167.01 191.065C167.027 190.502 166.866 189.948 166.551 189.481C166.291 188.763 165.794 188.155 165.143 187.757C164.491 187.359 163.723 187.195 162.966 187.291C162.208 187.388 161.506 187.739 160.975 188.288C160.444 188.837 160.115 189.55 160.043 190.31C158.483 189.743 156.795 189.149 155.18 188.583C155.915 186.929 159.176 186.837 159.76 187.919C159.778 187.963 159.812 187.997 159.855 188.016C159.898 188.034 159.946 188.034 159.99 188.017C160.033 188 160.068 187.966 160.086 187.923C160.104 187.88 160.105 187.831 160.088 187.788C159.504 185.98 155.416 185.782 154.369 188.312C152.808 187.79 150.878 187.162 149.279 186.716C150.254 185.375 153.115 185.341 153.666 186.375C153.689 186.41 153.723 186.435 153.763 186.447C153.802 186.458 153.845 186.456 153.882 186.439C153.92 186.422 153.951 186.392 153.968 186.355C153.986 186.318 153.991 186.276 153.98 186.236C153.447 184.55 149.629 184.212 148.452 186.471C147.689 186.248 146.907 186.099 146.116 186.026C145.969 186.001 145.818 186.02 145.681 186.079C145.544 186.138 145.427 186.236 145.345 186.36C143.431 190.318 136.385 201.073 132.439 203.043C132.338 203.083 132.249 203.149 132.181 203.234C132.113 203.319 132.069 203.421 132.054 203.529C132.038 203.637 132.05 203.747 132.091 203.848C132.131 203.95 132.197 204.038 132.282 204.106C133.414 204.826 134.646 205.374 135.939 205.731C135.123 207.036 134.516 208.18 134.06 209.011C133.82 209.424 135.144 215.952 135.75 217.32C135.823 217.45 135.941 217.55 136.082 217.6C137.628 218.204 156.55 221.684 158.081 220.282C159.104 219.343 169.785 201.487 169.905 200.99C170.083 200.212 168.892 195.574 168.441 193.713C168.227 193.171 167.038 192.808 166.459 192.618ZM135.756 214.438L135.211 212.073C140.1 213.18 151.169 215.186 155.264 215.516C156.313 215.61 156.388 215.548 156.833 215.155C159.319 212.617 166.943 198.647 168.422 196.442L168.937 198.679C164.533 205.733 157.125 218.024 156.813 217.493C155.749 217.671 136.765 214.652 135.756 214.438ZM165.371 189.106C165.9 189.66 166.273 190.345 166.453 191.09C166.504 191.328 166.499 191.575 166.439 191.811C166.38 192.048 166.266 192.267 166.108 192.453C165.081 192.064 163.141 191.35 160.85 190.515C161.446 188.112 163.867 187.521 165.328 189.116L165.371 189.106ZM133.005 203.705C137.214 201.329 143.887 191.084 145.946 186.836C146.684 186.869 147.416 186.989 148.127 187.193C147.521 189.409 149.153 191.311 149.485 190.911C149.669 190.69 149.252 190.719 148.949 189.695C148.747 188.942 148.745 188.149 148.944 187.396C150.583 187.822 152.53 188.423 154.175 188.926C153.742 191.114 155.264 192.829 155.569 192.457C155.874 192.085 155.348 192.274 155.045 191.249C154.863 190.574 154.837 189.865 154.97 189.179C156.668 189.714 158.405 190.275 160.002 190.811C159.908 191.389 159.954 191.981 160.137 192.537C160.32 193.094 160.633 193.598 161.051 194.008C161.069 194.023 161.09 194.034 161.113 194.041C161.135 194.048 161.158 194.05 161.182 194.048C161.205 194.046 161.228 194.039 161.248 194.028C161.269 194.017 161.287 194.002 161.302 193.984C161.317 193.966 161.328 193.945 161.335 193.923C161.342 193.9 161.344 193.877 161.342 193.853C161.34 193.83 161.333 193.807 161.322 193.787C161.311 193.766 161.296 193.748 161.278 193.733C160.99 193.355 160.791 192.919 160.693 192.454C160.596 191.99 160.604 191.51 160.716 191.049C163.533 191.985 165.817 192.788 166.527 193.06C166.435 193.193 157.642 205.579 154.552 209.372C151.933 209.294 137.484 205.845 133.005 203.705ZM134.768 209.518C140.059 210.532 152.102 212.939 154.725 212.838C155.179 212.822 155.356 212.815 156.032 211.967C158.911 208.323 167.627 193.666 167.762 193.769C167.774 193.799 167.782 193.832 167.784 193.864L168.272 195.985C166.345 198.427 156.377 215.26 156.014 214.651C154.953 214.895 136.105 211.834 135.135 211.644C135.011 211.204 134.833 209.994 134.768 209.518ZM157.44 219.682C156.519 220.53 138.86 217.686 136.389 216.848C136.153 216.192 135.957 215.521 135.804 214.84C140.975 216.06 155.797 218.654 157.025 218.315C158.816 217.802 168.311 200.42 168.991 199.202C169.126 199.742 169.197 200.295 169.203 200.851C169.103 201.242 158.05 219.128 157.44 219.682ZM55.8333 180.145C56.1688 181.263 56.4489 182.237 56.6613 183.159C56.6937 183.3 56.7806 183.422 56.9029 183.498C57.0252 183.575 57.1729 183.599 57.3135 183.567C57.4541 183.535 57.5761 183.448 57.6526 183.325C57.7291 183.203 57.7539 183.055 57.7215 182.915C57.4945 181.929 57.2168 180.966 56.8764 179.827C56.8342 179.689 56.7388 179.573 56.6111 179.505C56.4834 179.437 56.334 179.422 56.1956 179.465C56.0573 179.507 55.9414 179.602 55.8735 179.73C55.8055 179.858 55.791 180.007 55.8333 180.145ZM212.489 121.681C212.421 121.701 212.357 121.735 212.302 121.78C212.247 121.825 212.201 121.88 212.168 121.943C212.134 122.006 212.114 122.075 212.108 122.146C212.101 122.217 212.109 122.288 212.131 122.356C212.419 123.317 212.724 124.352 212.959 125.369C212.991 125.51 213.078 125.632 213.2 125.708C213.323 125.785 213.47 125.81 213.611 125.777C213.752 125.745 213.874 125.658 213.95 125.536C214.027 125.413 214.051 125.266 214.019 125.125C213.775 124.065 213.467 123.019 213.163 122.04C213.143 121.971 213.11 121.908 213.065 121.853C213.02 121.797 212.965 121.752 212.902 121.718C212.839 121.685 212.77 121.665 212.699 121.658C212.628 121.652 212.557 121.66 212.489 121.681ZM52.4792 178.138C52.6198 178.105 52.7418 178.018 52.8183 177.896C52.8948 177.774 52.9196 177.626 52.8872 177.486C52.8548 177.345 52.7679 177.223 52.6456 177.146C52.5233 177.07 52.3756 177.045 52.235 177.078C50.9521 177.373 49.9032 177.715 48.8381 177.938C48.6965 177.971 48.5733 178.057 48.495 178.18C48.4167 178.302 48.3896 178.45 48.4194 178.593C48.4518 178.733 48.5387 178.855 48.661 178.932C48.7833 179.008 48.931 179.033 49.0716 179.001C50.1686 178.77 51.3569 178.452 52.4792 178.138ZM208.48 119.3C207.207 119.593 206.153 119.914 205.085 120.171C204.944 120.204 204.822 120.29 204.746 120.413C204.669 120.535 204.645 120.683 204.677 120.823C204.709 120.964 204.796 121.086 204.919 121.162C205.041 121.239 205.189 121.264 205.329 121.231C206.474 120.968 207.662 120.694 208.787 120.346C208.926 120.305 209.043 120.211 209.112 120.084C209.181 119.957 209.197 119.808 209.156 119.669C209.115 119.53 209.021 119.414 208.894 119.344C208.767 119.275 208.618 119.259 208.48 119.3ZM53.4299 171.019C53.7182 171.98 54.0236 173.015 54.258 174.033C54.2929 174.172 54.3803 174.292 54.5019 174.368C54.6235 174.444 54.7698 174.47 54.9102 174.441C55.0508 174.408 55.1728 174.321 55.2493 174.199C55.3258 174.077 55.3506 173.929 55.3182 173.788C55.0741 172.728 54.7663 171.682 54.4731 170.701C54.4309 170.562 54.3354 170.446 54.2078 170.378C54.0801 170.31 53.9307 170.296 53.7923 170.338C53.654 170.38 53.5381 170.476 53.4701 170.603C53.4022 170.731 53.3877 170.881 53.4299 171.019ZM211.616 115.999C211.372 114.938 211.064 113.893 210.76 112.913C210.718 112.775 210.622 112.659 210.495 112.591C210.367 112.523 210.218 112.509 210.079 112.551C209.941 112.593 209.825 112.689 209.757 112.816C209.689 112.944 209.675 113.093 209.717 113.232C210.005 114.192 210.311 115.227 210.545 116.245C210.577 116.386 210.664 116.508 210.787 116.584C210.909 116.661 211.057 116.686 211.197 116.653C211.339 116.621 211.462 116.534 211.54 116.412C211.618 116.289 211.646 116.141 211.616 115.999ZM62.7319 175.631C62.801 175.613 62.8656 175.58 62.9221 175.537C62.9787 175.493 63.0261 175.438 63.0615 175.376C63.097 175.314 63.1199 175.246 63.1289 175.175C63.1379 175.104 63.1328 175.032 63.1139 174.963C63.0712 174.827 62.9786 174.711 62.8546 174.641C62.7306 174.57 62.5844 174.548 62.4454 174.581C61.1747 174.929 60.1136 175.218 59.0378 175.444C58.8972 175.476 58.7752 175.563 58.6987 175.685C58.6222 175.808 58.5974 175.955 58.6298 176.096C58.6622 176.237 58.7491 176.359 58.8714 176.435C58.9937 176.512 59.1414 176.536 59.282 176.504C60.4214 176.264 61.5991 175.948 62.7319 175.631ZM218.732 116.794C217.684 117.091 216.515 117.394 215.338 117.665C215.267 117.678 215.2 117.705 215.14 117.745C215.08 117.785 215.029 117.837 214.99 117.897C214.951 117.957 214.924 118.025 214.911 118.095C214.899 118.166 214.901 118.239 214.917 118.309C214.949 118.45 215.036 118.574 215.159 118.652C215.281 118.73 215.429 118.757 215.571 118.727C216.78 118.449 217.756 118.224 219.019 117.844C219.088 117.825 219.153 117.793 219.209 117.749C219.266 117.706 219.313 117.651 219.349 117.589C219.384 117.527 219.407 117.459 219.416 117.388C219.425 117.317 219.42 117.245 219.401 117.176C219.356 117.041 219.263 116.927 219.14 116.857C219.016 116.786 218.871 116.764 218.732 116.794ZM31.1321 149.827C31.2944 149.901 60.173 138.584 61.2752 137.504C61.3343 137.435 61.3752 137.353 61.3939 137.265C61.4126 137.177 61.4086 137.085 61.3823 136.999C61.0673 135.631 56.3184 123.204 54.7222 120.2C54.5258 119.832 54.3295 119.464 54.0539 119.382C52.207 118.781 24.8629 130.75 23.4098 132.246C23.3698 132.284 23.3383 132.33 23.3174 132.381C23.2964 132.432 23.2864 132.487 23.2882 132.542C23.2231 133.908 30.0632 149.403 31.1321 149.827ZM23.9935 132.647C25.8168 131.256 50.6674 120.531 53.7216 120.218C54.8699 121.908 59.9299 135.056 60.5162 137.02C59.1426 137.794 31.4545 149.385 31.3533 149.43C31.2522 149.476 31.2709 149.605 30.8944 148.989C29.3167 146.405 24.4923 135.056 23.9935 132.647Z" fill="#3AAFA9"/>
<path d="M63.8251 137.91C63.8581 137.79 63.8559 137.662 63.8188 137.543C63.4305 135.857 56.7033 117.7 55.5002 116.403C55.4075 116.308 55.2914 116.24 55.1636 116.205C55.0359 116.169 54.9011 116.169 54.7729 116.202C51.1209 116.586 22.5059 129.339 20.8488 131.161C20.6171 131.415 20.7694 131.882 20.9184 132.384C21.7302 135.133 28.9657 152.782 30.0015 152.432C30.1181 152.405 30.0562 152.33 29.9099 152.956C29.0398 156.74 28.4116 168.362 28.9806 170.542C29.1931 171.465 29.681 172.614 30.5782 172.34C36.9344 170.028 67.8352 157.552 76.6224 153.53C76.9658 153.373 77.1233 152.99 76.9882 152.452C76.6719 151.576 76.1977 150.766 75.589 150.061C73.7364 147.931 66.1567 139.55 63.8251 137.91ZM29.9894 152.089C28.9182 151.219 21.6681 133.651 21.4349 131.573C23.4891 129.827 51.733 117.304 54.9364 117.058C56.3218 119.195 62.3966 135.537 63.0008 137.53C59.5454 139.688 34.5254 149.872 29.9894 152.089ZM30.5292 152.299C31.3685 151.872 60.5329 139.807 63.1423 138.436C64.9832 139.497 74.6382 150.102 75.3228 151.038C69.4811 153.5 34.7686 167.847 29.6423 169.876C28.9766 166.647 29.6882 154.659 30.5292 152.299Z" fill="#3AAFA9"/>
<path d="M37.0479 162.376C37.9386 162.026 56.9689 155.165 63.5988 151.617C63.6398 151.596 63.6707 151.559 63.6846 151.515C63.6986 151.471 63.6944 151.423 63.6731 151.382C63.6519 151.341 63.6152 151.31 63.5711 151.296C63.5271 151.282 63.4793 151.287 63.4383 151.308C62.1153 151.914 45.6925 158.074 36.951 162.053C36.9246 162.054 36.8988 162.061 36.8757 162.074C36.8525 162.086 36.8326 162.104 36.8173 162.126C36.802 162.147 36.7919 162.172 36.7876 162.198C36.7833 162.224 36.785 162.251 36.7926 162.276C36.8002 162.302 36.8134 162.325 36.8313 162.344C36.8492 162.364 36.8713 162.379 36.8959 162.389C36.9205 162.398 36.947 162.402 36.9733 162.4C36.9996 162.398 37.0251 162.39 37.0479 162.376ZM34.3607 85.3095C34.1706 86.2953 34.0498 87.2931 33.9989 88.2957C34.0179 88.4504 34.0944 88.5922 34.2132 88.693C35.6552 90.0579 49.4785 99.9039 52.7417 100.983C53.1901 101.137 53.6957 101.199 53.9014 100.783C55.385 97.7168 57.6371 95.0865 60.4386 93.1482C62.7443 91.682 65.2617 90.5788 67.9027 89.8773C69.9792 89.1981 70.3015 88.9006 70.798 87.3236C71.3401 85.274 72.2392 83.3359 73.4542 81.5984C75.016 79.438 76.8535 77.491 78.9198 75.8067C79.011 75.723 79.0717 75.6113 79.0921 75.4893C79.1126 75.3673 79.0916 75.2419 79.0326 75.1331C78.4642 74.3036 77.7916 73.5504 77.0316 72.892C77.384 72.6769 77.7812 72.4626 77.6933 72.0809C77.4491 71.0206 65.1221 59.7694 61.9751 57.8369C61.649 57.6329 61.1867 57.3709 60.8417 57.4727C55.6088 58.9905 51.5979 65.1841 49.614 70.2409C46.16 70.9024 43.8733 71.1053 40.35 73.6472C37.8648 75.4508 35.7788 77.7481 34.2226 80.3952C33.9802 80.7972 32.3447 83.5855 32.3544 83.773C32.3641 83.9606 32.4278 83.946 34.3607 85.3095ZM76.7027 75.2454C72.4548 77.0164 70.4818 81.3451 69.3243 85.8208C68.812 87.8145 68.9164 87.8798 67.9361 88.0832C66.2081 88.3795 64.5118 88.8374 62.8696 89.451C61.67 89.9228 60.5189 90.5095 59.4323 91.2028C56.959 92.7773 54.5769 96.5414 53.456 99.1888C53.4319 99.2435 53.3964 99.2925 53.352 99.3326C53.3076 99.3726 53.2552 99.4028 53.1983 99.4212C53.1413 99.4396 53.0812 99.4457 53.0217 99.4392C52.9623 99.4327 52.9049 99.4137 52.8533 99.3835C48.5894 96.6252 41.0572 91.7949 37.1677 88.9169C36.9826 88.7921 37.1834 88.5002 37.3709 88.6356C39.8419 90.2995 46.1326 94.1988 52.8969 98.4579C54.2078 95.6662 56.4113 92.1442 59.0126 90.4956C60.4295 89.5894 61.9538 88.8633 63.5502 88.3341C65.0516 87.8661 66.5863 87.5127 68.1411 87.2768C68.6006 86.4118 69.8115 77.5135 76.6204 74.9852C76.6445 74.9956 76.6658 75.0112 76.683 75.031C76.7002 75.0507 76.7126 75.0741 76.7195 75.0993C76.7264 75.1245 76.7275 75.151 76.7228 75.1767C76.718 75.2024 76.7075 75.2268 76.6921 75.2479L76.7027 75.2454ZM61.0289 58.334C63.4913 59.33 75.0642 70.1185 76.7033 72.0968C74.8954 73.1638 73.2001 74.4109 71.6431 75.8189C70.1466 77.0566 68.9451 78.6126 68.1261 80.3734C67.307 82.1343 66.8911 84.0556 66.9087 85.9975C61.6763 80.6822 54.7943 75.0881 50.1087 70.8862C50.289 70.6995 54.1795 60.3468 61.0289 58.334ZM40.7176 74.1767C44.2286 71.7268 46.4533 71.5941 49.687 70.9945C54.118 75.6905 61.5958 82.0294 66.5147 86.1776C62.8514 86.1556 59.3115 87.5003 56.5867 89.949C54.9543 91.4414 53.2501 94.5135 52.2038 96.418C49.7921 95.254 35.1631 85.4485 32.7875 83.7626C34.9356 79.8068 37.0491 76.7186 40.7078 74.1343L40.7176 74.1767ZM27.5243 105.608C27.2199 105.484 26.8862 105.451 26.5637 105.514C26.2411 105.576 25.9436 105.731 25.7072 105.959C25.528 106.094 25.3771 106.263 25.2631 106.457C25.1492 106.65 25.0745 106.864 25.0433 107.086C25.0121 107.309 25.0249 107.535 25.0812 107.752C25.1374 107.97 25.2359 108.174 25.371 108.353C25.5061 108.532 25.6753 108.683 25.8687 108.797C26.0621 108.911 26.2761 108.986 26.4985 109.017C26.7208 109.048 26.9471 109.036 27.1644 108.979C27.3818 108.923 27.5859 108.825 27.7652 108.689C28.0683 108.546 28.3207 108.314 28.4889 108.024C28.6571 107.734 28.7332 107.4 28.7071 107.065C28.681 106.731 28.5539 106.413 28.3426 106.152C28.1314 105.892 27.846 105.702 27.5243 105.608ZM27.3129 107.889C26.6245 108.293 26.1254 108.163 25.8622 107.844C25.3495 107.169 25.5075 105.916 26.6883 106.001C27.5282 106.109 28.4541 107.269 27.3251 107.942L27.3129 107.889ZM70.2648 44.6735C70.7164 45.2283 72.094 44.6654 72.6731 44.3199C72.9774 44.1381 73.1626 43.9727 73.1212 43.6473C73.0334 42.8301 71.5523 35.914 71.038 35.329C70.9846 35.2676 70.9143 35.2232 70.8358 35.2016C70.7573 35.1799 70.6742 35.1819 70.5968 35.2073C69.4649 35.4647 68.3773 35.8883 67.3693 36.4642C66.9957 36.8294 69.722 44.0617 70.2648 44.6735ZM67.6506 36.6674C68.5977 36.3017 69.5777 36.0275 70.577 35.8483C70.8213 36.6183 72.2168 43.4536 72.2307 43.5621C71.8197 43.8257 71.3548 43.9939 70.8702 44.054C70.7398 43.8272 70.4612 43.1992 70.1117 42.4088C69.1894 40.5403 68.3679 38.6238 67.6506 36.6674ZM24.435 96.8958C24.5487 96.9245 24.6676 96.9257 24.7819 96.8994C24.8962 96.8731 25.0026 96.82 25.0924 96.7444C25.4438 96.3974 25.6836 95.9534 25.7812 95.4693C25.792 95.3929 25.7828 95.3151 25.7546 95.2433C25.7263 95.1715 25.6799 95.1083 25.6199 95.0598C24.9718 94.5727 17.9339 89.4164 17.3481 89.9756C16.6392 90.7068 15.9875 91.4915 15.3988 92.3226C15.3751 92.3562 15.3587 92.3943 15.3507 92.4346C15.3427 92.475 15.3432 92.5165 15.3522 92.5566C15.458 93.1128 22.7666 96.6325 24.435 96.8958ZM17.5388 90.222C18.4422 90.6057 21.7928 93.2282 24.867 95.5235C24.8007 95.7112 24.7057 95.8875 24.5854 96.0461C21.6692 95.0048 18.8281 93.764 16.0822 92.3327C16.5183 91.5962 17.005 90.891 17.5388 90.222ZM28.8089 62.9966C28.0947 58.8291 30.0514 56.3687 32.4413 55.3048C32.3316 58.0766 33.2296 61.4426 35.9061 61.2839C37.1824 61.2021 37.6403 60.4268 38.3599 59.4795C41.4337 55.4221 37.6264 52.9494 33.3837 54.161C33.9738 49.4028 36.8512 44.9776 41.7333 43.7304C41.7783 43.72 41.8173 43.6922 41.8418 43.6531C41.8663 43.6139 41.8742 43.5667 41.8639 43.5217C41.8535 43.4767 41.8257 43.4377 41.7866 43.4132C41.7474 43.3887 41.7002 43.3808 41.6552 43.3911C36.3295 44.506 33.0417 49.2826 32.4971 54.4322C29.7785 55.5719 27.4572 58.3395 28.4549 63.0111C28.4559 63.0343 28.4614 63.0572 28.4712 63.0783C28.481 63.0994 28.4948 63.1184 28.5119 63.1341C28.529 63.1499 28.5491 63.1621 28.5709 63.1701C28.5927 63.1781 28.6159 63.1818 28.6392 63.1808C28.6624 63.1799 28.6852 63.1743 28.7063 63.1646C28.7274 63.1548 28.7464 63.141 28.7622 63.1238C28.7779 63.1067 28.7902 63.0867 28.7982 63.0649C28.8062 63.043 28.8098 63.0198 28.8089 62.9966ZM33.3132 54.97C34.8685 54.5001 37.3346 54.4458 38.311 55.7282C38.8702 56.4591 38.731 57.5518 37.6703 58.9573C37.3957 59.397 37.0584 59.7944 36.6691 60.1368C35.235 61.1817 33.0232 59.6255 33.3132 54.97ZM70.88 204.224C69.7924 204.186 68.7082 204.365 67.691 204.752C66.6738 205.139 65.7443 205.725 64.9571 206.476C64.17 207.228 63.541 208.129 63.1074 209.127C62.6737 210.125 62.444 211.2 62.4319 212.288C62.454 214.538 63.369 216.687 64.9755 218.262C66.582 219.837 68.7484 220.71 70.9982 220.687C73.248 220.665 75.3969 219.75 76.9721 218.144C78.5473 216.537 79.4198 214.371 79.3976 212.121C79.361 211.042 79.1111 209.981 78.6624 208.999C78.2137 208.017 77.575 207.133 76.7832 206.399C75.9914 205.665 75.0621 205.095 74.049 204.721C73.0358 204.348 71.9588 204.179 70.88 204.224ZM76.1462 212.111C76.1116 213.905 75.4359 215.628 74.2415 216.968C73.047 218.308 71.4126 219.177 69.6337 219.416C67.8909 219.16 66.2944 218.297 65.1251 216.979C63.9558 215.662 63.2886 213.974 63.2409 212.213C63.2374 210.384 63.8924 208.615 65.0861 207.229C66.2798 205.843 67.9326 204.933 69.7421 204.665C71.5104 204.96 73.1179 205.87 74.2816 207.233C75.4453 208.597 76.0905 210.328 76.1038 212.12L76.1462 212.111Z" fill="#3AAFA9"/>
<path d="M85.6985 203.993C84.7021 203.887 83.6952 204.038 82.7739 204.432C82.1652 203.611 81.4746 202.853 80.7125 202.172C81.2576 201.387 82.7444 199.214 82.1005 198.502C80.031 196.935 77.7211 195.714 75.2608 194.886C74.2448 194.589 73.1799 194.497 72.1278 194.614C71.4712 194.866 70.4676 197.877 70.2439 198.553C70.0106 198.607 69.1226 198.533 69.0516 198.515C68.8758 197.752 68.0183 195.047 67.2559 194.887C66.4199 194.781 65.5746 194.77 64.736 194.854C63.9564 194.91 57.467 197.711 57.1787 198.738C56.9916 199.428 58.2898 201.575 58.6614 202.17C58.162 202.616 57.6945 203.097 57.2621 203.609C56.3753 204.606 56.6542 204.508 56.4438 204.467C56.1878 204.41 55.9242 204.395 55.6634 204.424C54.7021 204.122 53.6659 204.163 52.7316 204.54C51.8294 205.083 50.7349 210.851 50.674 212.283C50.6307 212.65 50.6819 213.023 50.8227 213.365C51.2383 214.006 53.0642 214.177 53.8258 214.236C53.9438 215.646 54.2629 217.031 54.7732 218.35C53.8988 218.82 52.0904 219.839 52.4162 220.769C52.742 221.699 56.6734 227.425 57.8166 227.687C58.4526 227.872 59.1202 227.922 59.7768 227.835C60.4334 227.747 61.0644 227.523 61.6293 227.177C61.9344 226.925 62.2225 226.654 62.4917 226.364C62.989 226.585 63.5003 226.768 64.0196 226.939C63.879 227.831 63.5674 229.823 63.9911 230.597C64.2079 231.004 64.5895 231.062 65.1187 231.13C66.5776 231.307 74.2302 231.376 75.2889 230.931C75.6878 230.772 75.8103 230.286 75.8423 229.843C75.8611 228.848 75.778 227.853 75.5941 226.875C76.1262 226.696 76.6489 226.49 77.1601 226.257C77.6203 226.758 78.1589 227.181 78.7547 227.509C79.3833 227.766 79.7953 227.47 80.3199 226.937C80.7047 227.25 81.2721 227.677 81.7614 227.621C82.9912 227.483 86.8682 221.677 87.1574 220.606C87.3984 219.713 85.5232 218.648 84.6899 218.182C85.1771 216.888 85.4813 215.533 85.5937 214.155C86.3849 214.094 87.1686 213.959 87.9343 213.75C88.2842 213.669 88.6578 213.449 88.7306 213.087C89.0379 211.464 87.5602 205.92 86.7771 204.604C86.6183 204.206 86.0777 204.04 85.6985 203.993ZM86.1776 204.91C86.8555 206.205 88.1711 211.384 87.951 212.853C87.0552 213.154 86.1203 213.325 85.1757 213.358C85.0753 213.364 84.9807 213.407 84.9105 213.479C84.8403 213.551 84.7996 213.647 84.7963 213.747C84.7042 215.278 84.3605 216.783 83.779 218.202C83.7362 218.297 83.7319 218.405 83.767 218.503C83.8021 218.601 83.8738 218.681 83.9672 218.728C84.8468 219.146 85.6443 219.719 86.3216 220.418C85.9917 221.41 82.7202 226.16 81.6484 226.742C81.4788 226.781 80.8657 226.253 80.71 226.11C80.1829 225.611 79.6877 225.08 79.2274 224.52C79.1602 224.438 79.0649 224.384 78.9602 224.369C78.8556 224.354 78.749 224.379 78.6614 224.438C75.8528 226.302 74.5303 225.892 74.7061 226.655C74.9707 227.798 75.0459 228.976 74.9288 230.143C72.3748 230.446 69.7949 230.464 67.237 230.195C67.0908 229.037 67.1529 227.862 67.4204 226.725C67.5749 225.942 66.3489 226.436 63.4172 224.566C63.3245 224.513 63.2151 224.496 63.1109 224.52C63.0067 224.544 62.9154 224.607 62.8553 224.695C61.9953 225.809 60.8123 226.974 60.5049 226.9C59.9031 226.76 56.11 221.682 55.6978 220.571C56.3309 219.872 57.1038 219.314 57.9665 218.932C58.0565 218.883 58.1255 218.803 58.1608 218.706C58.1961 218.61 58.1952 218.504 58.1584 218.408C57.5527 216.966 57.1992 215.431 57.1133 213.87C57.1082 213.774 57.0668 213.683 56.9975 213.616C56.9283 213.549 56.8362 213.511 56.7399 213.509C55.8924 213.484 55.0515 213.351 54.2373 213.115C53.965 212.999 53.9886 213.004 53.9683 212.819C54.0846 210.186 54.646 207.592 55.6288 205.146C56.1647 204.855 57.974 205.633 58.5969 205.914C58.6647 205.955 58.7458 205.968 58.823 205.95C58.9002 205.932 58.9674 205.885 59.0104 205.819C59.3812 205.201 59.798 204.613 60.2573 204.058C61.5881 202.467 62.0594 202.526 61.8239 202.134C61.0915 201.182 60.5531 200.096 60.2392 198.937C60.372 198.763 60.5337 198.612 60.7172 198.492C61.6169 197.873 62.5605 197.32 63.5404 196.837C64.7157 196.198 65.9582 195.691 67.2451 195.325C67.4897 195.369 67.9134 196.288 68.0348 196.572C68.9154 198.603 68.7505 199.098 69.0653 199.059C72.1554 198.66 72.9632 199.356 73.0898 198.936C73.441 197.773 73.903 196.646 74.4695 195.571C74.6409 195.297 74.6059 195.193 75.3617 195.421C77.6576 196.265 79.8128 197.452 81.7545 198.939C81.977 199.178 80.9357 200.959 80.1262 202.05C79.8471 202.438 80.3772 202.461 81.6895 203.99C83.0018 205.519 82.902 206.055 83.3653 205.837C84.2537 205.395 85.2007 205.083 86.1776 204.91ZM212.927 82.425C210.496 82.029 208.023 81.9493 205.571 82.1877C203.768 82.3125 201.659 82.5081 199.879 82.6834C201.002 79.9463 204.56 72.8522 205.052 71.2092C205.195 70.7632 204.623 70.3144 204.218 70.0614C201.919 68.5142 198.186 68.5925 195.353 68.7984C193.725 68.9053 186.987 69.6085 185.996 70.395C184.806 71.3389 178.343 88.4582 178.566 90.785C178.654 91.1667 178.816 91.2858 179.219 91.3382C180.909 91.5518 188.144 90.8235 189.798 90.8332C188.532 95.0324 181.995 109.746 181.481 111.729C181.361 112.226 181.56 112.459 181.844 112.483C182.886 112.642 183.938 112.721 184.991 112.718C185.4 112.747 186.118 112.035 187.166 111.012C191.88 106.465 211.784 85.5576 213.125 83.1387C213.164 83.0802 213.19 83.014 213.201 82.9446C213.212 82.8752 213.208 82.8043 213.189 82.7366C213.171 82.6689 213.137 82.606 213.092 82.5523C213.047 82.4985 212.991 82.4551 212.927 82.425ZM193.072 100.396C185.43 108.419 182.788 110.859 182.699 110.957C183.641 108.407 189.817 93.9663 190.683 90.6517C190.697 90.5884 190.697 90.5227 190.682 90.4596C190.667 90.3965 190.638 90.3375 190.598 90.2869C190.557 90.2363 190.506 90.1954 190.447 90.1672C190.389 90.139 190.325 90.1242 190.26 90.1239C189.112 89.9864 181.203 90.937 179.23 90.7102C179.009 88.6844 185.203 71.56 186.233 70.6977C187.262 69.8353 198.886 68.5765 201.355 69.6043C200.743 72.0342 196.346 81.0631 195.757 83.0633C195.639 83.4702 195.656 83.8347 196.07 83.8398C196.484 83.8448 206.72 82.7158 209.057 82.9256C206.916 85.752 195.582 97.7186 193.063 100.353L193.072 100.396ZM110.128 51.2355C110.15 51.3309 110.24 51.4329 110.541 52.0112C110.613 52.135 110.731 52.2259 110.869 52.2649C111.007 52.3039 111.155 52.2879 111.281 52.2203C111.407 52.1498 111.5 52.0323 111.539 51.8934C111.578 51.7546 111.561 51.6058 111.49 51.4799C111.289 51.0908 111.113 50.7629 111.01 50.6079C110.922 50.5057 110.798 50.4402 110.664 50.4241C110.53 50.408 110.394 50.4425 110.284 50.5209C110.174 50.5992 110.097 50.7158 110.068 50.848C110.039 50.9801 110.06 51.1182 110.128 51.2355Z" fill="#3AAFA9"/>
</svg>
