<svg width="380" height="200" viewBox="0 0 380 258" fill="none" xmlns="http://www.w3.org/2000/svg">
<path d="M202.016 178.762C234.742 177.102 264.724 176.35 269.558 179.06C272.048 180.46 275.922 198.86 277.702 211.166C287.754 209.966 300.386 208.862 313.006 208.002C311.132 198.534 309.976 192.602 305.724 183.454C305.08 182.068 306.844 181.508 307.562 182.774C311.823 190.574 314.684 199.059 316.016 207.846C333.102 206.724 349.96 206.046 360.526 206.046C359.326 195.706 352.68 171.878 340.766 159.66C331.582 150.242 313.766 141.86 297.998 139.876C297.752 142.061 296.91 144.137 295.562 145.874C294.214 147.612 292.414 148.944 290.358 149.726C281.934 153.036 266.558 153.906 252.842 146.372C238.372 150.5 211.854 166.248 202.016 178.762Z" fill="currentcolor"/>
<path d="M378.412 252.358C292.126 253.98 206.23 253.66 119.99 253.758C118.246 253.758 117.852 256.484 119.656 256.516C205.702 258.106 292.774 256.234 378.806 255.18C380.644 255.164 380.24 252.324 378.412 252.358Z" fill="currentcolor"/>
<path d="M165.958 81.872C174.816 82.038 217.986 81.234 222.576 81.036C223.96 80.976 223.924 78.588 222.576 78.588C216.414 78.588 175.874 79.37 165.958 79.89C165.718 79.9224 165.498 80.0407 165.339 80.2229C165.18 80.4052 165.092 80.639 165.092 80.881C165.092 81.123 165.18 81.3569 165.339 81.5391C165.498 81.7213 165.718 81.8396 165.958 81.872Z" fill="currentcolor"/>
<path d="M130.6 70.814C129.956 71.15 118.818 84.538 123.95 82.946C124.678 82.72 131.95 73.506 132.308 71.854C132.351 71.6399 132.327 71.4177 132.239 71.2177C132.152 71.0177 132.005 70.8495 131.818 70.736C131.632 70.6224 131.415 70.569 131.197 70.5829C130.979 70.5969 130.771 70.6775 130.6 70.814V70.814Z" fill="currentcolor"/>
<path d="M106.33 40.4C109.912 40.568 182.85 40.386 187.198 39.958C187.816 39.8762 188.381 39.568 188.784 39.0932C189.187 38.6185 189.4 38.011 189.381 37.3884C189.361 36.7659 189.112 36.1726 188.68 35.7235C188.248 35.2745 187.665 35.0017 187.044 34.958C166.746 35.21 124.55 35.314 106.444 35.71C103.728 35.772 103.5 40.272 106.33 40.4Z" fill="currentcolor"/>
<path d="M208.428 117.368C203.734 117.368 168.044 116.968 165.516 117.69C164.656 117.938 164.316 119.33 165.348 119.624C168.044 120.398 203.548 120.006 208.45 120.006C213.352 120.006 218.11 120.182 222.91 120.006C224.378 119.952 224.27 117.492 222.814 117.428C218.038 117.216 213.214 117.368 208.428 117.368Z" fill="currentcolor"/>
<path d="M164.954 136.054C164.651 136.144 164.396 136.35 164.244 136.627C164.092 136.904 164.055 137.23 164.142 137.534C164.554 138.934 162.704 138.454 223.53 139.468C223.866 139.434 224.177 139.276 224.403 139.026C224.629 138.776 224.754 138.45 224.754 138.113C224.754 137.776 224.629 137.45 224.403 137.2C224.177 136.95 223.866 136.792 223.53 136.758C165.178 135.816 168.8 135.756 164.954 136.054Z" fill="currentcolor"/>
<path d="M222.23 101.38C222.555 101.358 222.861 101.216 223.088 100.981C223.314 100.747 223.445 100.436 223.455 100.11C223.466 99.7841 223.354 99.466 223.143 99.2176C222.932 98.9691 222.635 98.8082 222.312 98.766C213.632 98.526 173.24 98.1899 165.912 99.6499C164.712 99.8879 164.98 101.636 166.126 101.738C172.324 102.296 181.8 100.214 222.23 101.38Z" fill="currentcolor"/>
<path d="M275.576 65.8479C275.684 48.6199 276.484 27.1279 275.038 10.4119C274.998 10.1609 274.867 9.93353 274.669 9.77364C274.472 9.61375 274.222 9.53269 273.968 9.54611C273.715 9.55954 273.475 9.66649 273.295 9.84632C273.116 10.0262 273.009 10.2661 272.996 10.5199C272.526 18.5399 272.968 55.8039 272.996 66.0399C273 67.7219 275.566 67.5319 275.576 65.8479Z" fill="currentcolor"/>
<path d="M124.646 145.664C127.125 148.379 129.76 150.947 132.538 153.354C133.738 154.484 135.586 152.682 134.378 151.554C131.788 148.949 129.066 146.479 126.222 144.154C125.356 143.6 123.978 144.734 124.646 145.664Z" fill="currentcolor"/>
<path d="M13.8 10.412C13.8 8.90796 11.432 8.63396 11.412 10.174C10.624 73.886 11.676 147.992 14.72 211.374C14.804 213.13 17.52 212.7 17.43 210.956C14.214 143.91 13.708 77.514 13.8 10.412Z" fill="currentcolor"/>
<path d="M43.8861 152.578C43.2141 153.578 44.772 154.85 45.558 153.916C46.572 152.716 52.4521 145.902 52.1581 144.436C51.3481 140.552 45.0341 150.88 43.8861 152.578Z" fill="currentcolor"/>
<path d="M87.884 120.258C86.858 120.068 80.35 125.844 79.036 127.098C66.75 119.064 67.972 121.042 68.124 125.898C68.1702 129.22 68.4013 132.536 68.816 135.832C68.966 136.874 70.55 136.692 70.616 135.678C70.866 131.964 70.388 128.262 70.328 124.55C81.146 131.15 77.802 130.95 87.904 122.674C89.104 124 94.818 129.56 96.548 129.35C97.948 129.176 102.662 122.842 103.784 121.492C103.784 124.358 103.876 132.538 104.726 134.854C105.166 136.054 106.326 135.63 106.386 134.436C106.534 131.892 106.226 125.862 106.232 122.926C106.232 119.582 106.222 118.726 104.822 116.726C101.782 112.382 94.082 101.74 89.384 95.964C85.246 90.874 85.064 90.764 82.16 95.26C77.686 102.198 70.176 115.66 69.028 118.22C68.542 119.298 70.204 119.806 70.782 119.008C72.706 116.35 77.062 108.536 79.068 105.098C83.578 105.278 88.0946 105.202 92.596 104.87C96.31 109.27 99.82 113.814 103.196 118.47L96.308 126.828C95.37 126.084 88.922 120.45 87.884 120.258Z" fill="currentcolor"/>
<path d="M122.342 209.8C111.596 209.2 24.0901 209.67 20.6761 210.2C20.4236 210.281 20.2053 210.444 20.0552 210.663C19.9051 210.882 19.8318 211.144 19.8466 211.409C19.8615 211.674 19.9637 211.927 20.1373 212.127C20.3109 212.328 20.5461 212.465 20.8061 212.518C53.8921 212.612 89.0061 212.35 122.15 212.386C123.762 212.386 124.038 209.9 122.342 209.8Z" fill="currentcolor"/>
<path d="M48.1021 85.966C49.2861 87.288 51.1021 85.632 50.1181 84.51C47.7301 81.8 42.6141 75.646 40.2561 73.574C39.3221 72.752 38.0561 74.038 38.7161 75.018C40.4121 77.548 45.7641 83.358 48.1021 85.966Z" fill="currentcolor"/>
<path d="M86.6001 74.2C86.7501 69.0091 86.4429 63.815 85.6821 58.678C85.5767 58.4932 85.42 58.343 85.231 58.2455C85.042 58.1479 84.8288 58.1073 84.6172 58.1284C84.4055 58.1496 84.2046 58.2317 84.0386 58.3647C83.8726 58.4977 83.7488 58.676 83.6821 58.878C83.5202 64.0631 83.7716 69.2528 84.4341 74.398C84.4944 74.656 84.6459 74.8836 84.8608 75.0386C85.0757 75.1937 85.3394 75.2658 85.6033 75.2417C85.8672 75.2176 86.1134 75.0988 86.2966 74.9074C86.4798 74.7159 86.5876 74.4647 86.6001 74.2V74.2Z" fill="currentcolor"/>
<path d="M88.3501 151.634C88.3501 153.294 87.9081 164.314 88.5041 165.76C88.6094 165.942 88.7609 166.094 88.9433 166.199C89.1256 166.304 89.3325 166.36 89.5431 166.36C89.7536 166.36 89.9605 166.304 90.1429 166.199C90.3252 166.094 90.4767 165.942 90.5821 165.76C91.2041 164.172 90.4981 153.82 90.4161 151.634C90.3081 150.464 88.3501 150.44 88.3501 151.634Z" fill="currentcolor"/>
<path d="M38.31 115.482C62.6 69.8 117.968 74.6 138.33 111.78C114.274 148.494 67.146 154.052 38.2 118.752C37.296 117.652 36.178 119.058 37 120.21C62.448 155.61 116.822 150.99 139.274 115.21C140.005 114.301 140.432 113.184 140.495 112.019C140.557 110.853 140.251 109.698 139.62 108.716C114.93 66.432 53.094 74.038 36.638 114.4C36.148 115.6 37.724 116.586 38.31 115.482Z" fill="currentcolor"/>
<path fill-rule="evenodd" clip-rule="evenodd" d="M259.708 69.084C253.452 70.284 247.934 83.95 254.836 90.348C259.062 94.266 278.524 94.4319 290.322 93.9299C290.407 95.3738 290.717 96.7956 291.24 98.1439C291.71 99.3439 293.118 99.7239 292.768 97.5599C292.577 96.3274 292.489 95.0811 292.506 93.834C294.894 93.716 296.78 93.572 297.998 93.434C297.68 96.0989 297.222 98.7452 296.626 101.362C296.296 102.796 297.906 103.064 298.452 101.696C300.126 97.3691 300.804 92.7206 300.434 88.0959C299.722 77.9019 271.136 66.8879 259.708 69.084ZM261.678 74.468C258.8 75.126 258.12 79.4979 257.858 81.8359C257.408 85.8359 254.858 83.036 255.47 79.518C255.938 76.866 258.204 72.5459 261.51 72.9759C261.702 72.9657 261.89 73.029 262.036 73.1529C262.183 73.2769 262.276 73.4521 262.298 73.6427C262.319 73.8334 262.267 74.025 262.152 74.1784C262.037 74.3318 261.867 74.4354 261.678 74.468V74.468Z" fill="currentcolor"/>
<path fill-rule="evenodd" clip-rule="evenodd" d="M283.098 110.24C284.692 107.54 285.788 104.576 286.334 101.488C289.021 101.975 291.583 102.995 293.868 104.488C295.228 105.074 295.744 103.288 295.068 102.734C292.613 100.734 289.613 99.5188 286.458 99.248C285.002 96.49 273.934 95.848 272.226 98.758C271.808 98.5234 271.345 98.3799 270.868 98.3368C270.391 98.2937 269.909 98.352 269.456 98.508C268.586 96.12 258.77 95.522 256.324 98.28C253.506 97.97 252.336 100.572 256.06 100.548C256.198 103.133 256.676 105.688 257.482 108.148C258.446 110.12 265.378 110.09 266.758 109.092C268.4 107.906 269.146 102.728 269.612 100.734C270.288 100.522 271.019 100.564 271.666 100.854C271.652 103.527 271.956 106.193 272.572 108.794C273.632 110.902 281.56 112.056 283.098 110.24ZM266 106.8C265.674 107.586 265.38 107.774 262.752 107.67C258.312 107.496 259.242 108.458 257.882 99.516C261.01 98.454 264.401 98.454 267.528 99.516C267.485 102.019 266.967 104.491 266 106.8ZM274.358 107.706C273.863 105.248 273.686 102.736 273.832 100.232C277.262 99.0075 281.027 99.1225 284.376 100.554C284.189 102.521 283.684 104.444 282.882 106.25C281.746 108.736 281.558 109.062 277.976 108.77C276.256 108.63 274.6 108.248 274.358 107.708V107.706Z" fill="currentcolor"/>
<path fill-rule="evenodd" clip-rule="evenodd" d="M276.054 106.108C276.428 107.456 279.054 107.614 278.442 103.72C278.092 101.504 274.968 102.2 276.054 106.108Z" fill="currentcolor"/>
<path fill-rule="evenodd" clip-rule="evenodd" d="M298.738 104.496C291.886 105.07 288.504 117.622 284.864 118.824C282.32 119.666 276.614 116.006 270.848 115.612C265.082 115.218 261.798 117.654 260.722 117.14C259.646 116.626 260.388 112.126 260.388 111.076C260.388 110.026 259.816 109.452 258.8 111.768C257.784 114.084 247.876 136.316 252.186 142.298C258.346 150.846 283.484 152.656 291.288 146.776C301.072 139.404 292.746 115.728 295.156 109.56C295.609 108.678 296.332 107.964 297.219 107.522C298.106 107.079 299.111 106.932 300.088 107.1C303.384 108.528 302.478 118.3 297.21 116.77C295.886 116.388 295.586 118.052 296.81 118.694C300.388 120.576 303.9 117.642 304.368 112.724C304.718 109 303.454 104.102 298.738 104.496ZM271.456 126.696C266.49 126.696 265.486 124.726 265.068 121.496C269.366 122.42 273.82 122.343 278.084 121.27C277.63 124.222 277 126.704 271.456 126.704V126.696Z" fill="currentcolor"/>
<path fill-rule="evenodd" clip-rule="evenodd" d="M269.08 105.714C268.161 107.834 267.472 110.047 267.026 112.314C266.532 115.004 270.11 115.012 272.126 114.702C273.326 114.518 273.546 113.15 272.232 113.054C271.266 112.982 269.368 112.934 269.188 112.6C269.353 110.369 269.782 108.165 270.466 106.034C270.744 105.154 269.46 104.81 269.08 105.714Z" fill="currentcolor"/>
<path fill-rule="evenodd" clip-rule="evenodd" d="M263.4 106.2C264.512 105.776 264.6 102.782 263.65 102.224C261.252 100.8 260.918 107.136 263.4 106.2Z" fill="currentcolor"/>
<path fill-rule="evenodd" clip-rule="evenodd" d="M282.966 0.859985C190.47 0.931985 92.278 0.717988 1.19004 1.49399C-0.361964 1.50599 -0.397963 5.49398 1.09404 5.50398C93.304 6.08198 190.422 5.36199 282.87 5.28999C284.53 5.28799 284.566 0.859985 282.966 0.859985Z" fill="currentcolor"/>
<path fill-rule="evenodd" clip-rule="evenodd" d="M177.586 213.768C161.786 212.828 137.312 209.736 122.568 203.406C120.672 202.59 111.306 204.12 100.672 199.206C99.5601 198.694 99.1181 200.26 100.158 200.902C105.592 204.25 112.456 205.142 118.724 205.344C120.409 205.301 122.078 205.674 123.584 206.43C140.956 212.66 159.251 215.929 177.706 216.1C179.222 216.122 179.174 213.864 177.586 213.768Z" fill="currentcolor"/>
<path fill-rule="evenodd" clip-rule="evenodd" d="M357.22 209.232C356.912 207.548 354.642 208.142 354.926 209.816C355.903 215.825 355.516 221.977 353.792 227.816C349.71 242.042 337.698 239.76 325.674 239.206C313.054 238.626 295.674 237.416 284.77 236.914C284.529 236.882 284.286 236.945 284.091 237.09C283.896 237.236 283.766 237.451 283.727 237.691C283.689 237.931 283.746 238.176 283.886 238.375C284.025 238.573 284.237 238.709 284.476 238.754C294.966 240.42 317.374 241.406 326.104 241.82C338.044 242.388 351.364 243.98 355.81 230.156C357.998 223.404 358.482 216.216 357.22 209.232V209.232Z" fill="currentcolor"/>
<path fill-rule="evenodd" clip-rule="evenodd" d="M278.954 216.36C294.406 213.903 309.972 212.225 325.592 211.334C325.845 211.311 326.078 211.192 326.245 211C326.411 210.809 326.497 210.561 326.485 210.308C326.472 210.055 326.363 209.816 326.178 209.642C325.994 209.468 325.75 209.372 325.496 209.374C309.769 210.019 294.095 211.614 278.56 214.15C278.267 214.203 278.007 214.37 277.837 214.615C277.668 214.86 277.602 215.162 277.655 215.455C277.708 215.748 277.875 216.008 278.12 216.178C278.365 216.347 278.667 216.413 278.96 216.36H278.954Z" fill="currentcolor"/>
<path fill-rule="evenodd" clip-rule="evenodd" d="M114.45 199.06C114.616 199.059 114.781 199.024 114.933 198.958C115.086 198.892 115.224 198.795 115.338 198.675C115.453 198.554 115.542 198.412 115.6 198.256C115.659 198.1 115.685 197.934 115.678 197.768C115.671 197.602 115.63 197.439 115.558 197.289C115.486 197.138 115.385 197.004 115.261 196.894C115.136 196.784 114.99 196.7 114.832 196.648C114.675 196.595 114.508 196.575 114.342 196.588C106.918 196.826 103.172 194.718 98.272 191.238C97.496 190.688 96.672 191.658 97.272 192.438C100.76 197.048 108.898 199.276 114.45 199.06Z" fill="currentcolor"/>
<path fill-rule="evenodd" clip-rule="evenodd" d="M126.8 186.4C127.704 187.968 129.6 188.18 131.288 188.562C141.258 190.828 164.072 190.072 174.654 189.948C176.158 189.93 175.854 187.986 174.308 188C166.582 188.078 143.264 188.298 131.694 186.162C129.558 185.762 129.668 186.078 128.578 184.362C126.518 181.11 123.446 177.132 119.72 177.066C118.608 177.046 118.52 178.118 119.468 178.594C122.76 180.245 125.358 183.011 126.8 186.4Z" fill="currentcolor"/>
<path fill-rule="evenodd" clip-rule="evenodd" d="M120.2 186.844C115.036 185.328 107.738 182.896 103.724 177.71C102.524 176.154 101.504 177.364 102.1 178.618C104.6 183.882 113.752 188.618 119.006 188.818C121.912 188.94 121.104 187.108 120.2 186.844Z" fill="currentcolor"/>
<path fill-rule="evenodd" clip-rule="evenodd" d="M99.286 182.762C99.1211 182.561 98.8855 182.431 98.6278 182.399C98.37 182.367 98.1097 182.434 97.9002 182.588C97.6907 182.742 97.5481 182.97 97.5015 183.225C97.455 183.481 97.5081 183.744 97.65 183.962C99.5564 186.697 102.032 188.987 104.907 190.675C107.782 192.363 110.989 193.408 114.306 193.74C114.567 193.749 114.824 193.673 115.038 193.522C115.252 193.372 115.411 193.155 115.491 192.906C115.57 192.657 115.567 192.389 115.48 192.143C115.393 191.896 115.228 191.684 115.01 191.54C113.256 190.784 105.8 190.298 99.286 182.762Z" fill="currentcolor"/>
<path fill-rule="evenodd" clip-rule="evenodd" d="M329.532 243.952C325.95 243.486 284.4 244.406 282.476 243.618C280.552 242.83 270.6 186.152 268 182.428C265.4 178.704 183.502 181.066 179.778 183.216C176.054 185.366 188.352 250.106 191.538 251.416C194.38 252.582 325.262 250.962 329.538 250.736C333.814 250.51 333.114 244.418 329.532 243.952ZM226.348 225.326C215.174 226.256 211.672 207.926 222.838 206.104C228.138 205.238 232.808 209.938 233.798 215.726C234.004 216.854 233.97 218.013 233.697 219.127C233.425 220.241 232.921 221.285 232.218 222.191C231.515 223.096 230.629 223.844 229.617 224.384C228.606 224.924 227.492 225.245 226.348 225.326V225.326Z" fill="currentcolor"/>
</svg>
