<svg width="234" height="227" viewBox="0 0 234 227" fill="none" xmlns="http://www.w3.org/2000/svg">
<path d="M111.385 32.6328C111.668 32.3992 111.693 31.7476 111.742 31.1084C112.135 23.779 112.16 16.4346 111.815 9.1028C111.656 7.46775 111.594 7.40629 109.848 7.27106C105.128 6.86537 84.8925 7.27106 83.9582 8.13161C83.3189 8.74629 83.6385 30.4199 84.2163 32.3746C84.2596 32.465 84.3252 32.543 84.4069 32.6011C84.4886 32.6591 84.5838 32.6954 84.6835 32.7065C86.2448 32.9647 110.045 33.7392 111.385 32.6328ZM84.2286 8.40207C85.2736 7.72592 108.349 7.60298 110.795 8.27913C111.422 11.2788 111.053 30.1003 110.697 31.9566C106.357 32.5467 87.4127 32.1533 84.9662 31.8951C84.299 24.083 84.0528 16.2407 84.2286 8.40207ZM112.516 39.6278C112.497 39.4952 112.443 39.3702 112.358 39.2662C112.274 39.1623 112.163 39.0833 112.037 39.0377C109.922 38.2755 85.7899 38.7796 84.831 39.7016C84.2286 40.2671 84.4499 61.8301 85.0769 63.9446C85.1201 64.035 85.1857 64.113 85.2675 64.171C85.3492 64.2291 85.4444 64.2654 85.544 64.2765C87.5602 64.6084 109 65.1247 111.828 64.3871C112.246 64.2765 112.381 64.1167 112.455 63.8462C112.946 61.9899 113.155 42.1357 112.516 39.6278ZM111.557 63.5143C107.205 64.1044 88.3593 63.7356 85.8268 63.5143C85.249 60.6253 84.7818 41.8161 85.0892 40.0212C86.1833 39.2836 109.406 39.2713 111.656 39.886C112.233 42.6152 111.926 61.4367 111.557 63.5143ZM144.381 32.3623C144.652 32.141 144.676 31.4772 144.738 30.8379C145.106 23.5073 145.106 16.1629 144.738 8.83234C144.578 7.1973 144.504 7.14812 142.783 7.0006C138.05 6.6072 117.827 7.0006 116.893 7.86115C116.253 8.46354 116.561 30.1494 117.151 32.1041C117.186 32.1975 117.248 32.2786 117.329 32.3376C117.41 32.3965 117.506 32.4307 117.606 32.4361C119.302 32.7065 143.029 33.4687 144.381 32.3623ZM117.225 8.13161C119.683 7.3817 141.591 7.39399 143.779 8.00867C144.357 10.7624 144.098 29.5348 143.68 31.6861C139.329 32.2762 120.47 31.8951 117.95 31.6861C117.281 23.8536 117.039 15.9905 117.225 8.13161ZM38.4104 80.418C38.5825 80.8974 39.2217 81.1064 39.7504 81.2294C44.2498 82.3235 60.7724 81.7334 65.8743 80.7622C66.4152 80.6639 67.497 80.4672 67.7921 80.0123C68.9231 78.1928 68.4682 48.9464 67.1159 47.3236C65.7636 45.7009 42.0001 45.9836 39.9102 47.5818C38.3366 48.7988 37.9678 79.1395 38.4104 80.418ZM40.4388 48.2088C42.4304 46.8196 65.8743 46.4139 66.8209 47.5572C68.0502 49.0324 67.9027 77.7872 67.0545 79.5205C64.7556 80.7499 42.2214 81.5244 39.3078 80.1106C38.9144 79.8771 39.2832 50.7289 40.4388 48.2088ZM8.3648 89.1341C8.46255 89.2806 8.59386 89.4017 8.74781 89.4872C8.90177 89.5727 9.07391 89.6203 9.24994 89.6259C13.6681 89.9866 18.111 89.9125 22.5147 89.4046C22.917 89.3888 23.3041 89.2469 23.6212 88.9989C24.285 88.1261 23.9408 75.8939 23.1909 75.1563C22.441 74.4187 10.4424 74.3818 9.23764 75.1563C9.05357 75.3139 8.93155 75.5317 8.89342 75.771C8.3378 80.2023 8.16095 84.6728 8.3648 89.1341ZM22.9081 88.4826C20.7247 88.7866 18.5232 88.9427 16.3188 88.9497C16.4833 88.6151 16.6681 88.2908 16.872 87.9785C17.6019 87.0234 18.5524 86.2593 19.6422 85.7519C20.732 85.2445 21.9286 85.0088 23.1294 85.065C23.1242 86.2076 23.0503 87.3488 22.9081 88.4826ZM9.76627 75.8079C11.2415 75.2301 22.5639 75.0703 22.9327 75.4268C23.044 75.7986 23.11 76.1825 23.1294 76.5701C21.2485 76.816 20.9534 80.3688 20.9043 82.262C20.1419 81.0254 19.2958 79.8425 18.3718 78.7215C18.0482 78.4624 17.6644 78.2894 17.256 78.2185C16.8477 78.1476 16.428 78.181 16.036 78.3158C15.1386 78.7092 15.3107 79.8156 15.4336 80.6884C15.7493 81.8062 16.1949 82.8831 16.7613 83.8971C16.0237 83.307 13.0732 80.922 12.2373 80.7745C11.4013 80.627 10.5899 80.6761 10.172 81.4138C8.9426 83.5774 11.9054 87.1672 13.6633 88.9251C12.1842 88.9444 10.7055 88.8623 9.23764 88.6793C9.09081 84.3816 9.26752 80.079 9.76627 75.8079Z" fill="currentcolor"/>
<path d="M3.98835 93.6582C4.16046 94.0639 4.72596 94.2115 5.21771 94.2975C8.90579 95.0597 22.1829 94.6294 26.3012 93.9656C26.7684 93.8795 27.6535 93.7443 27.9117 93.4001C28.8706 92.097 28.4649 71.7387 27.3462 70.5586C26.3996 69.5751 7.09863 69.489 5.29147 70.6692C5.05351 70.8982 4.90158 71.202 4.86119 71.5298C3.91458 75.2424 3.61954 92.7485 3.98835 93.6582ZM5.75863 71.3453C7.45514 70.4233 26.2766 70.116 27.0266 70.829C27.7765 71.542 27.8871 90.7815 27.1741 92.8469C24.8014 93.6091 10.1966 94.2237 4.86119 93.2894C4.61532 92.4535 4.83661 73.9762 5.75863 71.3453ZM191.257 68.567C191.734 69.1128 192.243 69.6301 192.781 70.116C192.794 70.1369 192.81 70.1549 192.83 70.1688C192.85 70.1827 192.873 70.1922 192.897 70.1967C192.921 70.2013 192.945 70.2007 192.969 70.195C192.993 70.1893 193.015 70.1787 193.034 70.1638C193.053 70.1489 193.069 70.1302 193.081 70.1087C193.092 70.0873 193.099 70.0636 193.101 70.0394C193.102 70.0151 193.099 69.9907 193.09 69.9679C193.082 69.9451 193.069 69.9243 193.052 69.907C192.104 68.0494 190.766 66.4182 189.13 65.1248C189.099 65.0906 189.056 65.07 189.01 65.0677C188.964 65.0654 188.918 65.0815 188.884 65.1125C188.85 65.1435 188.829 65.1868 188.827 65.2329C188.825 65.279 188.841 65.3241 188.872 65.3584C189.562 66.5022 190.36 67.5768 191.257 68.567ZM178.779 73.1771C179.267 71.3106 179.347 69.3607 179.012 67.4606C179.012 67.4149 178.994 67.3712 178.962 67.3389C178.93 67.3066 178.886 67.2885 178.84 67.2885C178.795 67.2885 178.751 67.3066 178.719 67.3389C178.686 67.3712 178.668 67.4149 178.668 67.4606C178.512 68.1732 178.41 68.8964 178.361 69.6243C178.232 70.7986 178.257 71.9846 178.435 73.1525C178.41 73.3861 178.754 73.4107 178.779 73.1771ZM162.76 71.7879C163.314 70.988 163.78 70.1307 164.149 69.2308C164.57 68.3464 164.88 67.4132 165.071 66.4525C165.066 66.4226 165.053 66.3946 165.033 66.3715C165.013 66.3484 164.987 66.331 164.959 66.321C164.93 66.311 164.899 66.3088 164.869 66.3146C164.839 66.3205 164.812 66.3341 164.789 66.3542C164.666 66.5508 164.285 67.1164 164.051 67.5835C163.328 68.8805 162.798 70.2762 162.477 71.7265C162.456 71.7483 162.44 71.7756 162.432 71.8056C162.425 71.8355 162.425 71.867 162.434 71.8967C162.443 71.9264 162.459 71.9532 162.482 71.9742C162.504 71.9953 162.532 72.0099 162.562 72.0165C162.593 72.023 162.624 72.0213 162.653 72.0116C162.683 72.0018 162.709 71.9843 162.729 71.9609C162.749 71.9375 162.763 71.9091 162.768 71.8787C162.774 71.8482 162.771 71.8169 162.76 71.7879ZM86.6259 156.589C93.1293 157.007 93.2153 149.975 86.6259 151.094C82.4215 151.315 83.7124 156.368 86.6259 156.589ZM86.6259 151.463C92.1212 151.18 91.6786 155.962 86.6259 155.655C84.8802 155.569 83.3436 152.016 86.6751 151.463H86.6259ZM110.402 152.778C116.93 153.196 116.991 146.164 110.402 147.283C106.247 147.492 107.5 152.557 110.402 152.778ZM110.402 147.652C115.897 147.369 115.467 152.151 110.402 151.844C108.681 151.758 107.132 148.205 110.451 147.652H110.402ZM124.367 155.778C130.883 156.196 130.957 149.164 124.367 150.27C120.2 150.504 121.454 155.557 124.367 155.778ZM124.367 150.651C129.863 150.369 129.432 155.151 124.367 154.843C122.646 154.757 121.085 151.18 124.416 150.651H124.367ZM128.166 145.722C134.669 146.14 134.768 139.108 128.166 140.226C123.998 140.448 125.265 145.513 128.166 145.722ZM128.166 140.607C133.661 140.325 133.219 145.095 128.166 144.8C126.445 144.701 124.884 141.148 128.215 140.607H128.166ZM79.1391 130.478C80.8255 130.885 82.6015 130.685 84.1549 129.912C86.6137 128.584 86.7243 125.56 85.2736 123.2C83.0239 119.512 78.3401 119.893 76.6681 122.536C75.9519 123.809 75.7122 125.295 75.992 126.728C76.158 127.568 76.5336 128.352 77.0838 129.007C77.634 129.663 78.3411 130.168 79.1391 130.478ZM76.914 126.593C76.6636 125.376 76.8326 124.111 77.3934 123.003C77.9835 122.157 78.8479 121.54 79.8403 121.258C80.8328 120.975 81.8923 121.045 82.8395 121.454C85.372 122.88 86.712 127.675 83.7246 129.138C82.3934 129.774 80.8875 129.947 79.4465 129.629C78.8065 129.371 78.2404 128.959 77.7985 128.429C77.3566 127.9 77.0527 127.269 76.914 126.593Z" fill="currentcolor"/>
<path d="M79.4955 123.507C79.348 123.261 78.5612 123.04 78.6227 123.79C78.6842 124.54 79.9627 124.257 79.4955 123.507ZM82.237 123.532C82.5075 123.102 81.4379 122.302 81.3273 123.323C81.2904 123.655 81.7576 124.257 82.237 123.532ZM79.1759 126.593C78.721 126.9 80.1348 128.314 81.8805 127.527C82.1491 127.417 82.382 127.235 82.5534 127C82.7248 126.766 82.828 126.489 82.8517 126.2C82.859 126.176 82.8615 126.151 82.8593 126.127C82.857 126.103 82.85 126.079 82.8386 126.057C82.8272 126.036 82.8116 126.016 82.7928 126.001C82.7739 125.985 82.7522 125.973 82.7288 125.966C82.7053 125.959 82.6807 125.956 82.6563 125.958C82.6319 125.961 82.6082 125.968 82.5865 125.979C82.5648 125.99 82.5456 126.006 82.5299 126.025C82.5142 126.044 82.5024 126.065 82.4952 126.089C82.0751 126.431 81.5757 126.662 81.043 126.761C80.5103 126.86 79.9612 126.823 79.4464 126.654C79.4166 126.613 79.3726 126.584 79.3228 126.572C79.273 126.561 79.2207 126.568 79.1759 126.593ZM94.0143 132.912C95.133 133.379 100.432 133.244 101.304 132.137C101.526 131.867 101.378 131.596 101.218 131.289C100.677 130.256 97.6655 125.216 96.5836 125.4C95.5018 125.585 94.42 128.474 94.1249 129.42C93.8299 130.367 93.1168 132.531 94.0143 132.912ZM95.2436 128.216C95.4035 127.736 96.0919 125.868 96.5836 125.757C97.0754 125.646 100.272 131.535 100.345 131.658C98.402 132.171 96.3792 132.313 94.3831 132.076C94.5008 130.752 94.8072 129.452 95.2928 128.216H95.2436ZM125.928 68.9359C125.91 68.8235 125.853 68.7212 125.766 68.6474C125.679 68.5735 125.569 68.533 125.455 68.533C125.341 68.533 125.231 68.5735 125.144 68.6474C125.058 68.7212 125 68.8235 124.982 68.9359C124.994 69.2239 125.044 69.509 125.129 69.7842C125.139 69.8522 125.164 69.9173 125.201 69.975C125.239 70.0327 125.288 70.0817 125.346 70.1187C125.404 70.1557 125.469 70.1798 125.537 70.1893C125.605 70.1989 125.674 70.1937 125.74 70.1741C125.806 70.1545 125.867 70.121 125.919 70.0758C125.971 70.0306 126.012 69.9748 126.041 69.9121C126.069 69.8495 126.083 69.7815 126.083 69.7128C126.083 69.644 126.068 69.5761 126.039 69.5137C125.984 69.3251 125.947 69.1316 125.928 68.9359ZM128.559 73.1034C128.874 72.9632 129.162 72.7675 129.408 72.5256C129.604 72.3412 129.518 72.1322 129.235 72.1814L128.412 72.3535C128.248 71.7548 128.145 71.1411 128.104 70.5218C128.104 70.0546 127.895 68.5548 127.65 68.4565C127.404 68.3581 127.342 68.8376 127.268 69.2555C127.047 70.657 127.232 73.6198 128.559 73.1034ZM130.588 68.604C130.606 68.7164 130.664 68.8187 130.75 68.8925C130.837 68.9664 130.947 69.0069 131.061 69.0069C131.175 69.0069 131.285 68.9664 131.372 68.8925C131.459 68.8187 131.516 68.7164 131.534 68.604V67.9278C131.519 67.8029 131.458 67.6883 131.362 67.6064C131.267 67.5245 131.144 67.4813 131.018 67.4853C130.892 67.4977 130.776 67.5584 130.693 67.6546C130.611 67.7508 130.568 67.8751 130.575 68.0016C130.526 68.0877 130.588 68.604 130.588 68.604ZM131.067 73.8779C130.895 73.8779 131.067 73.8779 130.145 74.6033C130.056 74.6758 129.961 74.7415 129.862 74.8C128.953 75.3286 128.535 75.0335 128.449 75.304C128.363 75.5745 129.088 76.0047 129.887 75.808C131.19 75.4884 131.399 73.9763 131.067 73.8779ZM42.0615 76.3612C42.1967 76.7792 42.7131 76.9636 43.1434 77.062C46.647 77.9471 59.2111 77.4431 62.9483 76.7055C63.4155 76.6071 64.1777 76.4473 64.4605 76.0662C65.3456 74.6033 64.9153 51.897 63.895 50.6184C62.8746 49.3399 44.8768 49.4997 43.2294 50.7783C42.0001 51.7618 41.7173 75.3532 42.0615 76.3612ZM61.8542 65.297C62.2208 65.1655 62.6122 65.1182 62.9996 65.1586C63.3869 65.1991 63.7602 65.3262 64.0917 65.5306C64.1441 68.887 64.0169 72.2439 63.7106 75.5868L63.4647 75.6728C62.6265 72.5432 60.922 69.7138 58.5472 67.5099C59.5618 66.6384 60.6711 65.8838 61.8542 65.2601V65.297ZM57.3425 55.4621C59.3709 56.7652 59.3094 60.1091 55.7689 60.146C53.6175 60.146 52.6955 59.1133 52.6955 57.884C52.6826 57.3382 52.8221 56.7996 53.0982 56.3287C53.3743 55.8578 53.7762 55.4731 54.2587 55.2178C54.7413 54.9624 55.2854 54.8466 55.8301 54.8833C56.3748 54.9199 56.8985 55.1076 57.3425 55.4252V55.4621ZM45.221 65.7887C48.823 63.6374 51.4907 63.5144 55.0559 65.7887C58.2399 67.8418 61.7313 71.9355 62.5672 75.8818C58.8792 76.5456 44.7169 77.1112 42.8975 76.1154C42.7377 75.4515 42.6762 68.4933 42.6762 67.7311C43.4583 66.9905 44.3106 66.3276 45.221 65.7519V65.7887ZM162.871 203.084C162.301 203.127 161.737 203.226 161.187 203.379C160.609 203.6 160.105 203.957 160.387 204.51C160.744 205.301 161.288 205.993 161.973 206.526C162.145 206.71 162.416 206.44 162.244 206.255C162.072 206.071 162.047 205.69 161.359 204.325C161.943 204.072 162.507 203.772 163.043 203.428C163.078 203.4 163.103 203.36 163.112 203.316C163.122 203.272 163.116 203.226 163.096 203.186C163.076 203.146 163.043 203.114 163.002 203.095C162.961 203.076 162.914 203.072 162.871 203.084ZM160.375 199.555C160.141 199.535 159.905 199.582 159.696 199.691C159.488 199.8 159.315 199.967 159.199 200.172C159.082 200.376 159.027 200.61 159.039 200.845C159.052 201.08 159.131 201.307 159.269 201.498C159.28 201.54 159.304 201.578 159.339 201.604C159.373 201.631 159.416 201.646 159.459 201.646C159.503 201.646 159.545 201.631 159.58 201.604C159.614 201.578 159.639 201.54 159.65 201.498C159.651 201.185 159.733 200.878 159.888 200.606C160.043 200.335 160.266 200.108 160.535 199.949C160.719 199.814 160.682 199.494 160.375 199.555ZM128.744 77.3201C128.615 77.3161 128.489 77.3541 128.384 77.4282C128.28 77.5024 128.202 77.6087 128.163 77.731C128.124 77.8534 128.126 77.9851 128.169 78.1062C128.211 78.2272 128.292 78.3311 128.399 78.402C128.528 78.4832 128.682 78.5119 128.831 78.4822C128.98 78.4524 129.111 78.3664 129.199 78.2422C129.254 78.1549 129.286 78.055 129.291 77.9519C129.297 77.8489 129.275 77.7461 129.23 77.6536C129.184 77.561 129.115 77.4817 129.03 77.4234C128.945 77.365 128.846 77.3294 128.744 77.3201ZM130.907 78.1315C130.753 78.1464 130.609 78.2169 130.503 78.33C130.396 78.4431 130.335 78.5911 130.33 78.7462C130.328 78.8607 130.361 78.973 130.424 79.0688C130.486 79.1647 130.576 79.2398 130.681 79.2846C130.787 79.3294 130.903 79.3418 131.015 79.3204C131.128 79.299 131.232 79.2446 131.313 79.1642C131.404 79.0841 131.468 78.9779 131.497 78.86C131.525 78.7422 131.517 78.6185 131.472 78.5056C131.428 78.3928 131.35 78.2964 131.249 78.2294C131.148 78.1625 131.029 78.1283 130.907 78.1315ZM130.87 76.2752C130.846 76.3627 130.842 76.4547 130.859 76.5441C130.875 76.6334 130.913 76.7177 130.967 76.7903C131.022 76.8629 131.093 76.9219 131.174 76.9626C131.255 77.0033 131.345 77.0247 131.436 77.0251C131.523 77.0223 131.608 77.0015 131.687 76.964C131.765 76.9264 131.835 76.8731 131.891 76.8072C131.948 76.7413 131.99 76.6643 132.016 76.5812C132.041 76.4981 132.049 76.4106 132.038 76.3244C132.011 76.1927 131.941 76.0739 131.839 75.9868C131.736 75.8997 131.608 75.8493 131.474 75.8436C131.339 75.838 131.207 75.8774 131.098 75.9556C130.988 76.0338 130.908 76.1463 130.87 76.2752ZM134.214 78.8077C134.342 78.8113 134.466 78.7729 134.569 78.6984C134.673 78.6239 134.748 78.5174 134.785 78.3956C134.821 78.2737 134.816 78.1432 134.771 78.0243C134.726 77.9054 134.642 77.8048 134.534 77.7381C134.445 77.684 134.344 77.6543 134.24 77.6519C134.137 77.6494 134.034 77.6744 133.943 77.7243C133.852 77.7742 133.776 77.8472 133.722 77.9359C133.668 78.0247 133.639 78.1261 133.637 78.2299C133.64 78.3821 133.702 78.5273 133.809 78.635C133.917 78.7426 134.062 78.8045 134.214 78.8077ZM135.284 76.0662C135.366 76.0494 135.444 76.0152 135.512 75.966C135.58 75.9167 135.637 75.8535 135.678 75.7806C135.72 75.7077 135.745 75.6267 135.753 75.5432C135.761 75.4596 135.751 75.3753 135.724 75.2959C135.696 75.2165 135.652 75.1439 135.595 75.0828C135.537 75.0218 135.467 74.9738 135.389 74.942C135.312 74.9102 135.228 74.8953 135.144 74.8984C135.06 74.9014 134.978 74.9224 134.903 74.9598C134.775 75.0236 134.674 75.1319 134.62 75.2645C134.565 75.397 134.561 75.5448 134.608 75.6802C134.654 75.8157 134.749 75.9295 134.873 76.0005C134.998 76.0716 135.144 76.0949 135.284 76.0662Z" fill="currentcolor"/>
<path d="M227.326 136.022C224.984 135.315 222.467 135.459 220.22 136.428C225.298 129.912 228.027 123.396 228.027 114.619C228.027 109.64 227.535 104.956 222.827 103.395C219.925 102.424 214.848 103.936 212.094 105.337C212.094 100.125 212.525 31.4158 210.656 26.4491C210.509 26.0189 209.673 25.8345 209.181 25.7115C203.882 24.4207 178.447 22.1095 177.217 23.179C176.418 23.8675 176.689 29.0677 176.738 30.1003C175.078 30.1003 167.174 29.9897 166.116 31.2559C164.481 33.186 155.777 55.6341 156.281 58.1297C156.306 58.2707 156.375 58.4 156.478 58.4986C161.691 63.5758 196.162 62.6538 197.735 59.4943C198.756 57.6503 191.835 33.3213 190.605 31.9321C189.376 30.5429 179.135 30.1741 177.181 30.1495C177.052 28.0983 177.126 26.0394 177.402 24.0027C177.525 23.4864 177.611 23.5356 177.808 23.4987C181.102 22.8963 207.988 25.5517 210.005 26.8179C210.914 29.6209 210.927 47.5081 211.332 105.829C207.828 107.834 205.054 110.904 203.415 114.594C201.792 114.348 199.58 116.192 198.424 117.348C196.849 118.956 195.478 120.752 194.342 122.696C194.132 119.14 193.542 115.616 192.584 112.185C189.794 104.673 181.385 91.2856 175.521 96.9406C173.297 99.447 171.786 102.504 171.144 105.792C169.005 103.76 166.652 101.967 164.125 100.444C162.637 95.2172 159.35 90.6843 154.843 87.6467C153.011 86.3597 151.07 85.2366 149.041 84.2905C149.024 84.2514 149.004 84.2142 148.979 84.1799C147.75 82.7907 144.59 82.3727 142.709 82.299C142.881 80.8852 141.664 74.7384 141.369 73.2386C141.736 73.2457 142.097 73.1522 142.414 72.9681C143.644 72.8944 148.463 72.6608 149.336 71.8863C149.496 71.7031 149.599 71.4764 149.631 71.2347C149.835 69.9689 149.967 68.6924 150.024 67.4114C150.626 58.3264 150.221 58.8059 150.503 58.8059C154.388 60.2442 155.667 56.4947 150.503 54.6752V54.3064C152.016 53.9745 153.774 53.2738 153.073 51.8477C152.788 51.4464 152.407 51.1233 151.964 50.9084C151.521 50.6936 151.032 50.5938 150.54 50.6184C150.54 47.4958 151.364 3.79203 149.397 1.44395C147.196 -1.17459 79.9628 0.116243 77.6639 2.55038C76.2747 3.95185 77.1353 65.6903 78.7334 71.5667C78.8195 71.874 79.1514 71.9355 79.471 71.9846C84.7942 72.8452 116.352 73.214 123.728 73.2878C123.884 74.0812 124.085 74.8652 124.33 75.6358C124.895 77.0428 125.73 78.3252 126.789 79.41C127.716 80.0576 128.807 80.4285 129.936 80.4795C129.567 81.3155 128.854 82.8645 128.486 83.639C125.017 84.6608 121.708 86.1584 118.651 88.0893C110.389 93.7812 104.28 104.378 99.6325 113.07C98.7629 114.791 98.0113 116.57 97.3828 118.393C92.2687 118.258 71.2466 118.995 70.6934 119.622C70.4107 119.893 70.6934 120.458 70.7672 120.962C71.7261 124.515 75.3035 136.096 76.7787 140.251C74.5536 140.608 72.3285 141.062 70.1033 141.48C70.0441 141.316 69.9743 141.156 69.8943 141.001C69.8638 140.93 69.8192 140.865 69.7632 140.811C69.7072 140.758 69.641 140.716 69.5684 140.688C69.4959 140.661 69.4186 140.648 69.341 140.651C69.2635 140.654 69.1873 140.672 69.1171 140.706C69.0469 140.739 68.9841 140.785 68.9324 140.843C68.8807 140.901 68.8411 140.969 68.8161 141.042C68.7912 141.116 68.7812 141.193 68.7869 141.271C68.7926 141.348 68.8139 141.424 68.8494 141.493C68.8731 141.545 68.8937 141.598 68.9108 141.652C66.28 142.009 64.7187 141.972 58.9161 142.796C58.8763 142.664 58.7905 142.55 58.6742 142.476C58.5579 142.401 58.4187 142.371 58.282 142.39C58.1453 142.41 58.0201 142.477 57.9289 142.581C57.8378 142.685 57.7867 142.818 57.7851 142.956C54.4167 143.46 51.4047 143.988 47.8273 144.652C47.7787 144.497 47.7212 144.345 47.6552 144.197C47.593 144.057 47.4787 143.946 47.3364 143.889C47.1941 143.832 47.0351 143.832 46.893 143.89C46.8225 143.919 46.7585 143.963 46.7048 144.017C46.6511 144.071 46.6088 144.136 46.5802 144.207C46.5516 144.278 46.5374 144.354 46.5383 144.43C46.5392 144.506 46.5553 144.582 46.5857 144.652C46.5857 144.726 46.5856 144.787 46.6717 144.861C43.6229 145.427 40.5249 146.017 37.5376 146.57V146.054C37.5135 145.904 37.4349 145.768 37.3169 145.673C37.1989 145.578 37.0498 145.529 36.8983 145.537C36.8223 145.545 36.7485 145.568 36.6813 145.604C36.614 145.64 36.5547 145.69 36.5067 145.749C36.4587 145.809 36.4229 145.877 36.4015 145.95C36.3801 146.024 36.3734 146.101 36.382 146.177C36.3943 146.377 36.3943 146.578 36.382 146.779C34.8699 147.049 33.3454 147.295 31.821 147.541C31.7747 147.416 31.6868 147.312 31.5721 147.244C31.4574 147.177 31.323 147.151 31.1915 147.171C31.0601 147.191 30.9396 147.256 30.8505 147.355C30.7613 147.454 30.709 147.58 30.7023 147.713C20.597 149.274 22.7115 148.77 19.884 143.14C19.4051 141.851 18.5902 140.713 17.5236 139.845C17.3547 139.748 17.1679 139.685 16.9743 139.66C16.7807 139.636 16.5842 139.651 16.3964 139.703C16.2085 139.756 16.0331 139.846 15.8804 139.967C15.7277 140.089 15.6009 140.24 15.5074 140.411C14.7206 141.517 15.2739 145.242 15.5074 146.668C15.741 148.094 16.995 154.708 17.8555 155.569C18.1751 155.888 19.2201 155.913 20.1544 155.962V156.245C11.6227 157.044 0.804283 160.056 0.0420795 168.637C-0.523426 175.066 4.68906 177.611 10.9711 178.976C10.5777 181.127 5.31603 209.218 5.59879 210.853C5.94301 212.709 10.3933 213.791 11.1432 211.787C12.2988 208.653 16.5155 183.18 17.0687 179.824C23.3575 180.395 29.69 180.271 35.9517 179.455C36.5172 182.799 40.7093 208.124 41.8649 211.259C42.6025 213.25 47.0651 212.169 47.397 210.325C47.6921 208.689 42.4796 180.894 41.9755 178.14C48.9706 176.05 56.1009 171.772 55.1297 164.506C64.0794 164.101 74.32 162.994 83.1714 161.839C83.163 163.423 83.5339 164.987 84.2532 166.399C85.1261 168.035 88.261 169.153 90.0189 169.719C89.6993 171.428 83.7123 203.256 84.0197 204.989C84.327 206.723 88.8142 207.915 89.5518 205.923C90.7812 202.666 95.256 175.337 95.9568 171.255C109.578 174.071 115.897 173.247 120.778 172.694C120.9 174.157 123.236 204.399 124.011 205.887C124.822 207.583 129.408 207.46 129.604 205.346C129.912 201.94 127.146 175.226 126.887 171.895C134.381 170.943 141.743 169.145 148.832 166.535C150.307 172.153 154.056 186.204 154.376 187.348C150.807 188.749 147.788 191.268 145.77 194.527C143.604 195.493 141.494 196.58 139.452 197.785C138.323 198.281 137.238 198.869 136.206 199.543C135.231 200.16 134.394 200.972 133.747 201.928C133.676 202.086 133.639 202.258 133.639 202.432C133.639 202.606 133.676 202.778 133.747 202.936C134.047 203.545 134.465 204.089 134.977 204.534C137.226 206.489 138.37 205.567 142.648 211.677C144.836 214.787 145.635 218.758 148.377 222.114C150.307 224.474 151.266 227.032 155.753 225.888C158.212 225.274 159.564 224.204 162.92 223.294C164.629 222.839 166.387 222.507 168.096 221.991C178.693 218.819 176.197 219.68 183.45 218.647C184.68 218.463 185.995 218.18 187.261 217.983C189.482 217.802 191.71 217.736 193.937 217.787C194.217 217.713 194.468 217.557 194.657 217.337C194.846 217.117 194.964 216.845 194.994 216.557C195.102 215.912 195.13 215.255 195.08 214.603C195.206 213.107 194.834 211.612 194.023 210.349C199.702 211.333 214.664 210.152 215.918 209.415C216.034 209.355 216.128 209.26 216.188 209.144C216.926 207.558 217.971 193.372 217.983 187.938C218.395 187.872 218.805 187.794 219.212 187.704C220.073 187.495 220.196 183.475 219.655 182.381C219.611 182.274 219.544 182.178 219.459 182.1C219.374 182.021 219.273 181.962 219.163 181.926C215.647 181.127 206.021 181.324 202.235 181.471C202.097 176.891 201.599 172.328 200.747 167.826C205.305 166.778 209.736 165.241 213.963 163.24C221.843 159.343 226.416 157.806 231.69 150.197C235.465 144.787 233.559 138.087 227.326 136.022ZM190.31 32.1288C191.54 33.3581 197.281 55.4866 197.182 58.9042C197.109 61.7318 162.256 62.5923 157.228 57.9331C157.29 54.0852 165.489 33.186 166.706 31.7108C167.924 30.2356 188.712 30.4077 190.31 32.1288ZM215.069 105.067C217.122 104.391 220.479 103.591 222.532 104.28C226.785 105.694 227.08 110.156 227.08 114.619C227.08 123.888 223.958 130.502 218.34 137.276C215.758 138.7 213.404 140.502 211.357 142.624C212.462 138.021 212.732 133.258 212.156 128.56C212.061 127.725 211.884 126.901 211.627 126.101C212.484 123.509 213.544 120.989 214.799 118.565C216.778 114.877 217.577 114.938 217.258 114.631C217.242 114.613 217.222 114.598 217.199 114.588C217.177 114.578 217.153 114.573 217.129 114.573C217.104 114.573 217.08 114.578 217.058 114.588C217.036 114.598 217.016 114.613 217 114.631C214.399 117.567 212.413 120.995 211.16 124.712C210.017 121.663 207.066 116.192 204.177 114.877C205.211 112.574 206.713 110.512 208.589 108.823C210.464 107.134 212.671 105.854 215.069 105.067ZM199.014 117.987C200.058 116.808 201.419 115.954 202.936 115.529C205.271 115.16 210.754 123.692 211.209 128.732C211.861 133.892 211.442 139.132 209.98 144.123C208.749 145.465 207.604 146.881 206.55 148.365C204.227 151.659 202.985 152.323 201.042 157.597C201.374 144.541 202.407 127.773 202.407 127.22C202.419 127.191 202.424 127.161 202.422 127.13C202.419 127.099 202.409 127.069 202.391 127.044C202.374 127.018 202.351 126.997 202.324 126.983C202.296 126.968 202.266 126.961 202.235 126.962C202.026 126.962 202.026 127.22 202.001 127.416C201.669 130.551 200.44 151.18 200.194 159.183C198.018 148.697 192.818 144.738 191.06 142.193C190.384 133.723 192.941 123.974 199.014 117.987ZM174.427 127.416C175.656 130.797 177.857 135.604 180.574 137.928C177.769 137.338 174.86 137.482 172.128 138.345C172.755 136.145 174.095 130.06 174.451 127.38L174.427 127.416ZM170.431 141.345C170.41 141.013 170.491 140.682 170.665 140.399C173.124 137.153 186.388 137.067 194.023 147.308C197.716 152.524 199.755 158.731 199.875 165.121C196.469 159.368 184.667 148.082 177.058 145.451C177.034 145.443 177.009 145.44 176.985 145.441C176.96 145.443 176.936 145.449 176.914 145.46C176.891 145.471 176.871 145.486 176.855 145.504C176.839 145.523 176.826 145.545 176.818 145.568C176.81 145.591 176.806 145.616 176.808 145.641C176.809 145.666 176.816 145.69 176.827 145.712C176.838 145.734 176.853 145.754 176.871 145.771C176.89 145.787 176.911 145.8 176.935 145.808C185.897 149.09 199.985 164.359 199.801 167.469C199.04 167.454 198.279 167.503 197.527 167.617C196.46 167.616 195.396 167.534 194.342 167.371C190.974 166.793 188.81 165.244 183.684 160.425C180.076 157.125 176.726 153.554 173.665 149.742C172.497 147.713 170.395 143.718 170.431 141.345ZM171.907 106.271C172.474 103.029 173.929 100.007 176.111 97.543C181.201 92.6256 189.204 105.866 191.65 112.455C192.688 116.303 193.306 120.252 193.494 124.232C191.11 129.398 190.001 135.06 190.261 140.743C186.745 135.432 181.852 123.888 180.07 114.926C179.738 113.34 178.398 104.968 178.398 103.997C178.545 103.751 178.029 103.469 178.004 103.997C178.303 109.426 179.097 114.817 180.377 120.102C182.257 126.688 184.888 133.037 188.22 139.022C190.876 143.939 191.404 142.046 185.54 139.354C184.35 138.833 183.116 138.422 181.852 138.124C181.196 137.642 180.586 137.099 180.033 136.501C175.177 130.883 170.726 115.234 171.907 106.284V106.271ZM79.471 144.382C81.2782 144.48 83.2943 143.976 84.0443 142.353L92.8342 142.574C92.7531 143.367 92.9816 144.16 93.472 144.788C93.9623 145.416 94.6765 145.83 95.465 145.943C96.1852 146.037 96.9171 145.982 97.6151 145.782C98.3131 145.581 98.9622 145.238 99.5219 144.775C99.8136 144.518 100.04 144.196 100.183 143.835C100.327 143.474 100.382 143.084 100.346 142.697L106.136 142.783C106.443 143.226 123.642 141.222 125.179 140.497C125.941 140.14 125.72 138.886 125.277 138.173C125.425 138.173 125.351 138.173 125.523 138.456C125.627 138.713 125.802 138.934 126.027 139.095C128.133 139.352 130.269 139.104 132.26 138.37C132.653 138.1 132.604 137.78 132.518 137.276C143.435 135.727 142.525 136.047 148.721 134.621C149.065 134.547 144.418 136.157 141.652 137.645C140.317 138.348 139.077 139.22 137.964 140.239C135.161 142.931 128.99 162.269 124.06 163.203C118.04 164.212 111.909 164.386 105.841 163.719C106.016 163.29 106.06 162.818 105.968 162.363C105.876 161.908 105.652 161.491 105.324 161.162C104.812 160.692 104.211 160.327 103.557 160.089C102.903 159.85 102.209 159.743 101.513 159.773C99.3744 159.773 98.3048 161.089 98.6859 162.797C93.059 161.889 87.5045 160.579 82.065 158.876C81.5241 157.327 79.7538 146.263 79.471 144.382ZM79.2743 142.169L82.9624 142.329C82.5181 142.765 81.9812 143.095 81.3917 143.295C80.8021 143.495 80.175 143.56 79.5571 143.484C79.5079 143.349 79.4096 142.808 79.2743 142.169ZM99.4358 142.685C99.4418 142.767 99.4418 142.849 99.4358 142.931C99.4003 143.232 99.2937 143.521 99.1249 143.773C98.956 144.025 98.7298 144.234 98.4647 144.382C97.5606 144.902 96.5144 145.122 95.4773 145.009C94.9764 144.906 94.5201 144.649 94.172 144.274C93.8238 143.9 93.6011 143.426 93.5349 142.919C93.5288 142.808 93.5288 142.697 93.5349 142.587L99.4358 142.685ZM110.857 133.612L107.894 133.981C116.93 121.884 111.803 127.343 110.857 133.612ZM107.304 134.842L110.992 134.424C111.299 134.965 114.25 135.924 114.815 136.108C114.707 136.313 114.617 136.527 114.545 136.747C111.902 136.551 109.123 136.366 106.246 136.268L107.304 134.842ZM131.657 137.657C129.984 138.133 128.245 138.341 126.506 138.272C125.182 135.223 124.048 132.094 123.113 128.904C124.521 127.671 126.21 126.802 128.031 126.372C128.572 127.662 131.596 136.354 131.657 137.657ZM125.007 137.325C118.098 137.755 116.401 138.001 115.307 137.731C115.233 134.743 120.36 133.194 123.335 132.715C123.925 134.522 124.539 136.17 125.007 137.313V137.325ZM110.807 140.017C112.209 139.821 123.101 138.37 124.503 138.702C124.673 138.996 124.754 139.334 124.736 139.673C123.04 140.19 106.628 142.378 106.48 142.39C106.323 141.914 106.24 141.416 106.234 140.915V140.817C106.849 140.804 104.55 140.878 110.807 140.005V140.017ZM105.533 137.092C107.992 137.19 110.562 137.325 114.385 137.632C114.385 137.964 114.385 138.272 114.729 138.518C115.073 138.763 115.958 138.407 110.525 139.427C108.991 139.635 107.483 140.001 106.025 140.521C105.288 136.797 105.251 137.423 105.533 137.079V137.092ZM104.993 163.338C98.6613 162.675 99.0916 162.896 99.0793 162.625C99.0429 162.301 99.0958 161.972 99.2323 161.676C99.3688 161.379 99.5837 161.125 99.8538 160.941C101.231 160.044 105.779 161.126 104.993 163.326V163.338ZM148.143 84.3397C147.811 84.5979 136.378 93.2894 134.694 94.3467C133.842 93.0186 132.901 91.7495 131.879 90.548C133.256 89.0236 142.525 82.6432 142.525 82.6432C142.918 82.6432 146.692 83.0489 148.143 84.3274V84.3397ZM123.826 86.0239C125.33 85.416 126.875 84.9148 128.449 84.5241C130.907 90.4865 130.268 89.1834 130.686 90.2406C128.891 91.0478 127.143 91.9548 125.449 92.9575C124.699 91.1749 123.58 87.9048 123.826 86.0239ZM149.643 49.2169V50.7659C145.955 51.2453 145.955 51.9952 145.955 51.5158C147.959 50.3725 149.25 50.0651 149.655 49.1431L149.643 49.2169ZM144.824 58.7567C144.573 58.5335 144.291 58.3472 143.988 58.2035C143.803 58.1052 143.988 58.2035 143.988 57.9208C144.034 57.6936 144.034 57.4595 143.988 57.2323C144.294 57.3128 144.607 57.3622 144.922 57.3798C144.861 57.7486 144.848 58.265 144.836 58.7075L144.824 58.7567ZM140.816 52.1551C140.423 52.6837 139.956 53.2246 139.587 53.7778C140.131 51.6222 141.263 49.6601 142.857 48.1105C143.382 47.7726 143.883 47.3988 144.357 46.9917C145.881 45.2338 143.127 43.4389 140.89 45.4428C139.227 46.871 138.089 48.8137 137.657 50.9626C137.337 52.5976 137.816 52.4009 137.226 52.2534C136.686 52.0581 136.095 52.0581 135.554 52.2534C135.161 51.0978 132.579 51.1101 131.707 51.7371C131.35 51.9952 131.596 51.9461 131.313 51.7371C130.763 51.5824 130.185 51.5518 129.622 51.6475C129.059 51.7431 128.524 51.9627 128.055 52.2903C127.945 52.364 127.551 52.8558 127.33 53.0894C126.846 53.0652 126.363 53.1492 125.916 53.3352C125.454 53.547 125.092 53.9307 124.908 54.4048V54.6875C124.689 54.6476 124.464 54.6476 124.244 54.6875C123.416 55.033 122.758 55.6912 122.413 56.5193C122.212 56.8961 122.155 57.333 122.253 57.7486C121.183 58.3264 120.064 59.1624 120.249 60.3672C120.352 60.6697 120.506 60.9525 120.704 61.2031C120.396 61.4244 119.56 61.5228 119.733 63.3914L118.811 63.3176C118.171 60.0844 117.778 40.0336 118.098 39.8123C119.56 39.1361 142.291 39.0501 144.639 39.7016C144.916 42.4791 145.031 45.2704 144.984 48.0613C143.334 49.1073 141.919 50.4846 140.828 52.1059L140.816 52.1551ZM148.598 71.2101C147.088 71.6135 145.537 71.8485 143.976 71.9109C144.192 71.7529 144.357 71.5342 144.449 71.2825C144.541 71.0307 144.556 70.7574 144.492 70.4971C144.733 70.4514 144.959 70.3482 145.152 70.1962C145.345 70.0443 145.498 69.8481 145.598 69.6243C145.734 69.2595 145.734 68.8581 145.598 68.4933C145.525 68.3211 145.451 68.4933 145.832 68.2843C146.061 68.1762 146.264 68.0203 146.427 67.8272C146.59 67.634 146.711 67.4081 146.779 67.1646C146.848 66.9212 146.864 66.6658 146.825 66.4157C146.787 66.1656 146.696 65.9266 146.557 65.7149C146.746 65.4969 146.868 65.2285 146.907 64.9426C146.947 64.6566 146.902 64.3654 146.779 64.1044C146.577 63.7473 146.267 63.4632 145.893 63.2931C146.077 62.9861 146.154 62.6275 146.114 62.2723C146.074 61.917 145.919 61.5847 145.672 61.3261C145.672 60.2688 145.77 58.9411 145.82 57.4536C147.087 57.4656 148.331 57.7998 149.434 58.4248C149.36 60.4286 149.09 69.3415 148.61 71.161L148.598 71.2101ZM79.5202 71.2101C77.8729 64.1413 76.8648 3.97643 77.922 2.8946C79.9628 0.657161 144.246 -0.16651 148.807 2.05863C149.032 2.86182 149.176 3.68549 149.237 4.51735C150.122 13.5531 149.864 38.9394 149.704 48.2457C149.127 46.8811 147.307 47.0163 145.93 47.545C145.962 44.8264 145.826 42.1085 145.525 39.4066C145.511 39.272 145.459 39.1443 145.374 39.0394C145.288 38.9344 145.174 38.8569 145.045 38.8165C142.894 38.042 118.798 38.5583 117.839 39.4681C117.249 40.0459 117.458 61.5965 118.098 63.7233C118.136 63.8136 118.199 63.8913 118.28 63.9478C118.36 64.0042 118.454 64.0372 118.552 64.043C118.897 64.043 119.696 64.1536 119.966 64.1659C120.175 64.547 120.507 64.6208 120.691 64.7806C120.583 64.8707 120.498 64.9863 120.444 65.1171C120.39 65.2479 120.37 65.3899 120.384 65.5305C120.451 66.1684 120.698 66.774 121.097 67.2762C121.687 67.9769 122.228 67.7679 122.831 67.7679C122.954 68.7883 123.212 70.4725 123.593 72.3412C114.791 72.3534 83.5033 71.8863 79.5325 71.1241L79.5202 71.2101ZM130.994 79.8157C130.855 79.7014 130.681 79.6403 130.502 79.6435C129.436 79.6237 128.394 79.3272 127.478 78.783C126.503 77.7941 125.723 76.6305 125.179 75.3531C124.223 72.1082 123.622 68.7695 123.384 65.3953C123.494 63.8709 125.031 61.9899 127.809 61.4121C130 61.027 132.257 61.3053 134.288 62.2112C135.923 62.8628 138.185 65.469 139.095 66.8828C139.137 66.9414 139.2 66.9817 139.271 66.9954C139.342 67.0091 139.415 66.9952 139.476 66.9566C139.862 66.7074 140.274 66.5013 140.705 66.3419C141.072 66.2562 141.458 66.3176 141.779 66.513C142.101 66.7083 142.333 67.0221 142.427 67.3868C143.066 68.8375 140.669 71.2593 140.337 71.7265C140.29 71.8493 140.29 71.9847 140.337 72.1076C141.015 75.4162 141.499 78.7617 141.787 82.1269C141.382 82.3604 140.878 82.7415 136.685 85.8887C134.882 87.0394 133.157 88.3084 131.522 89.6874C131.067 88.2368 129.912 85.6797 129.322 84.3889C131.264 80.0369 131.289 80.0615 131.006 79.7788L130.994 79.8157ZM100.444 113.5C105.361 104.182 113.057 90.5357 123.384 86.3436C123.336 88.9591 123.865 91.553 124.933 93.941C124.974 93.9993 125.028 94.047 125.091 94.0799C125.154 94.1127 125.224 94.1299 125.295 94.1299C125.367 94.1299 125.437 94.1127 125.5 94.0799C125.563 94.047 125.617 93.9993 125.658 93.941C126.131 93.5369 126.656 93.1979 127.219 92.9329C127.449 93.817 127.841 94.6507 128.375 95.3917C128.105 96.9407 123.175 117.225 123.458 118.418C124.329 120.676 125.481 122.815 126.887 124.786C127.158 125.154 127.453 125.437 127.834 125.13C129.689 123.251 131.232 121.089 132.407 118.725C132.481 118.467 132.506 118.639 131.657 95.8342C132.063 95.3671 132.887 94.3836 133.268 93.8181C134.276 95.2318 133.71 95.0474 134.067 95.3302C134.423 95.6129 134.632 95.4531 134.94 95.3302C136.956 94.1746 147.233 86.2329 148.844 84.6962C150.845 85.6098 152.758 86.7044 154.56 87.9663C162.637 93.1296 164.395 102.165 165.243 111.681C165.809 118.368 164.961 124.048 160.019 128.302C156.755 130.947 152.914 132.788 148.807 133.674C146.127 134.338 134.473 136.047 132.26 136.354C131.289 133.312 130.164 130.321 128.891 127.392C132.911 125.646 140.128 123.077 144.234 121.688C144.305 121.668 144.367 121.624 144.41 121.564C144.453 121.503 144.473 121.43 144.467 121.356C144.197 117.914 143.84 108.927 145.168 105.731C145.266 105.509 144.91 105.362 144.812 105.583C143.385 108.841 143.582 117.582 143.779 121.134C139.562 122.487 132.592 124.823 128.535 126.581C128.363 126.212 128.35 126.04 128.006 126.003C126.961 125.917 122.941 127.625 122.388 128.67C122.142 129.125 122.892 131.424 123.15 132.248C120.593 132.469 117.003 133.317 115.307 135.284C114.074 134.934 112.88 134.461 111.742 133.871C112.283 130.183 115.258 124.318 117.126 121.208C117.839 119.979 118.737 112 118.823 110.685C118.891 109.51 118.891 108.332 118.823 107.157C118.812 107.114 118.787 107.077 118.753 107.05C118.718 107.023 118.676 107.009 118.632 107.009C118.589 107.009 118.546 107.023 118.512 107.05C118.477 107.077 118.453 107.114 118.442 107.157C118.368 107.919 118.233 108.804 118.073 109.812C117.999 110.365 117.126 119.352 116.229 120.876C113.377 124.921 108.103 132.322 105.054 136.231C104.943 135.739 101.28 119.34 100.567 118.897C99.8356 118.666 99.0718 118.554 98.3048 118.565C98.9057 116.832 99.6203 115.14 100.444 113.5ZM71.6154 120.311C75.4633 119.917 98.6613 118.749 100.173 119.499C100.247 120.077 101.858 124.318 103.247 130.92C104.292 135.838 105.706 140.755 105.976 142.39C105.337 142.39 79.3235 141.357 78.1187 141.161C77.1844 139.059 72.2424 122.77 71.6154 120.311ZM18.4948 154.782C17.7572 153.553 15.2247 142.366 16.2942 140.866C17.6711 138.948 19.9823 145.906 20.7445 147.271C22.2197 150.16 24.7768 149.496 31.0343 148.5C31.2555 149.152 31.3293 149.729 31.8948 149.729C31.9894 149.728 32.0822 149.703 32.1653 149.658C32.2485 149.613 32.3195 149.548 32.3726 149.47C32.4256 149.392 32.459 149.302 32.47 149.208C32.481 149.114 32.4692 149.019 32.4357 148.93C32.3374 148.684 32.2636 148.451 32.2021 148.254C36.9106 147.504 36.4066 147.467 36.4188 147.664C36.4188 147.817 36.4797 147.964 36.5881 148.073C36.6964 148.181 36.8434 148.242 36.9966 148.242C37.1499 148.242 37.2969 148.181 37.4052 148.073C37.5136 147.964 37.5744 147.817 37.5744 147.664V147.381C40.7216 146.816 43.8565 146.152 47.0036 145.623C47.0036 145.795 47.0897 145.955 47.1512 146.115C47.2017 146.26 47.3078 146.379 47.4461 146.446C47.5845 146.513 47.7437 146.522 47.8888 146.472C48.0339 146.421 48.1529 146.315 48.2198 146.177C48.2867 146.038 48.2958 145.879 48.2453 145.734C48.2453 145.623 48.2453 145.513 48.1469 145.414C51.5769 144.775 54.5519 144.185 57.8958 143.742V144.578C57.9022 144.654 57.9236 144.728 57.9586 144.796C57.9936 144.863 58.0415 144.923 58.0998 144.973C58.158 145.022 58.2253 145.059 58.2979 145.082C58.3705 145.105 58.4469 145.113 58.5227 145.107C58.5986 145.101 58.6725 145.079 58.7401 145.044C58.8077 145.009 58.8678 144.961 58.9169 144.903C58.966 144.845 59.0031 144.777 59.0262 144.705C59.0493 144.632 59.0578 144.556 59.0514 144.48V143.583C65.1982 142.685 66.3169 142.796 69.2796 142.353L69.4886 142.931C69.5602 143.054 69.6739 143.147 69.8087 143.193C69.9435 143.239 70.0903 143.234 70.2221 143.18C70.3539 143.126 70.4617 143.027 70.5257 142.9C70.5898 142.772 70.6057 142.626 70.5705 142.488C70.5242 142.384 70.4831 142.277 70.4475 142.169C72.6727 141.8 74.8855 141.333 77.123 140.939C77.5164 141.972 77.4672 141.96 78.6719 142.058C78.8072 142.058 79.2497 147.086 80.8725 156.11C67.0545 156.872 40.5618 157.339 27.5183 155.274C26.7315 155.151 25.5021 155.102 25.6251 155.102C24.2113 153.221 21.6173 149.643 20.5109 151.684C19.9983 152.662 19.8294 153.783 20.0315 154.868C19.5178 154.877 19.0042 154.848 18.4948 154.782ZM32.1776 156.798C30.7409 157.155 29.3283 157.602 27.9486 158.138C27.3653 157.489 26.8194 156.808 26.3135 156.097C27.592 156.22 28.3911 156.454 32.153 156.798H32.1776ZM10.3072 211.419C10.0368 212.156 8.04521 211.935 7.04943 211.222C6.27494 210.656 6.01677 213.226 11.4997 179.05C13.2017 179.391 14.9214 179.637 16.6507 179.787C13.0487 198.203 10.8973 209.784 10.3072 211.419ZM46.4873 209.575C46.4873 210.128 46.6471 210.312 46.0816 210.73C45.1104 211.431 43.0943 211.689 42.8115 210.939C42.1968 209.292 39.7996 196.384 36.4926 179.394C38.2048 179.117 39.8999 178.743 41.5699 178.275C42.9713 187.04 46.4012 208.616 46.4873 209.513V209.575ZM26.8175 173.653C19.7856 173.653 4.812 173.395 1.27144 167.285C3.09089 160.142 13.0856 157.831 20.4126 157.081C21.0289 159.459 21.7842 161.799 22.6746 164.088C23.1087 165.161 23.9228 166.036 24.9612 166.547C25.7973 166.766 26.6715 166.799 27.5215 166.641C28.3715 166.484 29.1764 166.141 29.8787 165.637C46.979 163.867 40.4757 165.047 52.9906 164.617C48.4543 171.637 35.3124 173.604 26.8298 173.591L26.8175 173.653ZM38.017 163.978C37.7097 163.978 29.7065 164.629 29.4115 164.801C28.8208 165.229 28.1466 165.528 27.4329 165.678C26.7191 165.829 25.9817 165.827 25.2686 165.674C24.4694 165.257 23.8458 164.568 23.5106 163.732C22.7607 161.851 19.6135 153.245 21.3592 152.163C22.6746 152.336 26.6086 158.691 27.5675 159.146C27.6455 159.186 27.7318 159.207 27.8195 159.207C27.9071 159.207 27.9935 159.186 28.0715 159.146C30.3062 158.271 32.6086 157.581 34.9559 157.081C50.2591 157.88 65.5965 157.757 80.8848 156.712C81.0265 157.584 81.2236 158.447 81.4749 159.294C81.4953 159.344 81.527 159.389 81.5675 159.425C81.608 159.462 81.6562 159.488 81.7085 159.503C82.9378 159.896 84.4499 160.388 86.3309 160.917C53.8266 164.937 46.8684 163.252 38.0293 163.916L38.017 163.978ZM88.7158 205.604C88.4454 206.341 86.4415 206.108 85.458 205.395C84.6958 204.854 84.3147 208.026 90.4492 169.854C91.9982 170.333 93.7439 170.788 95.6002 171.182C91.4081 192.609 89.3428 203.907 88.7281 205.542L88.7158 205.604ZM128.707 205.296C128.633 206.071 126.654 206.378 125.511 205.948C124.601 205.604 125.043 208.271 121.282 172.657C123.003 172.46 124.736 172.239 126.482 171.993C127.908 192.253 128.879 203.538 128.719 205.272L128.707 205.296ZM149.323 166.399C150.958 165.76 152.581 165.072 154.155 164.322L159.576 185.75C158.1 186.014 156.655 186.426 155.261 186.979C153.724 181.496 150.86 171.649 149.336 166.338L149.323 166.399ZM164.494 186.254C167.453 186.363 170.382 186.885 173.197 187.803C174.197 188.08 175.182 188.409 176.148 188.786C179.162 190.163 181.87 192.127 184.114 194.564C186.302 197.146 186.794 200.502 186.573 203.907C186.413 205.96 185.085 207.3 183.475 208.603C183.303 207.214 181.016 206.145 179.688 205.936C179.492 205.936 179.467 206.009 179.996 205.714C180.941 205.19 181.698 204.381 182.16 203.403C182.332 203.219 182.049 202.961 181.889 203.145C180.549 204.067 179.836 204.805 178.029 205.936C177.906 205.936 177.93 206.231 177.144 206.194C176.048 205.935 174.925 205.811 173.8 205.825C173.244 204.425 173.034 202.912 173.188 201.414C173.342 199.916 173.856 198.477 174.685 197.22C176.799 194.38 177.599 195.412 177.599 194.884C177.599 194.06 172.214 195.548 172.275 202.112C172.321 203.41 172.684 204.676 173.333 205.8C171.87 205.873 170.431 206.197 169.079 206.759C168.796 206.501 167.616 207.116 166.854 206.759C167.504 204.56 167.746 202.26 167.567 199.973C167.383 198.609 166.807 197.327 165.907 196.285C164.903 195.141 163.638 194.255 162.219 193.704C159.293 192.646 158.298 194.134 156.564 194.687C156.277 194.784 155.966 194.784 155.679 194.687C154.573 194.331 151.585 193.458 150.934 194.453C150.43 195.203 151.167 196.31 151.647 197.146C152.126 197.982 152.286 198.031 151.487 200.059C151.249 200.732 150.936 201.375 150.553 201.977C149.926 202.629 147.823 203.108 147.43 203.87C146.631 205.346 149.667 206.833 150.233 207.558C150.799 208.284 151.782 209.624 152.311 210.189C154.314 212.378 159.22 212.882 161.764 212.07C162.992 211.683 164.101 210.989 164.985 210.054C165.76 210.706 165.612 211.726 165.403 212.746C165.28 213.336 164.653 213.681 164.174 213.976C162.595 214.996 160.725 215.471 158.851 215.328C158.363 215.17 157.889 214.968 157.437 214.726C156.21 214.433 155.039 213.943 153.97 213.275C153.042 212.335 151.956 211.566 150.762 211.001C144.947 209.513 143.84 202.53 145.672 197.047C147.934 190.089 156.994 186.057 164.506 186.192L164.494 186.254ZM160.486 211.738C161.715 209.624 161.015 206.821 159.687 204.854C158.089 202.395 156.663 203.256 155.568 202.69C154.019 201.879 153.786 200.969 153.171 200.527C152.876 200.334 152.552 200.189 152.212 200.096C152.499 199.471 152.678 198.802 152.741 198.117C152.655 197.281 151.303 195.486 151.512 195.08C152.163 194.773 154.585 195.449 155.273 195.683C156.589 196.125 158.101 194.884 159.257 194.453C161.162 193.827 163.83 195.437 165.121 196.912C167.223 199.371 166.756 202.383 166.129 205.518C165.961 207.008 165.326 208.406 164.315 209.513C163.303 210.619 161.967 211.377 160.498 211.677L160.486 211.738ZM158.101 207.927C158.199 208.099 157.966 208.333 157.757 208.112C157.597 207.954 157.479 207.759 157.412 207.545C157.346 207.33 157.333 207.103 157.376 206.882C157.396 206.663 157.48 206.453 157.618 206.281C157.755 206.108 157.94 205.98 158.15 205.911C158.482 205.8 158.519 206.108 158.396 206.206C158.224 206.442 158.109 206.715 158.06 207.003C158.011 207.291 158.029 207.586 158.113 207.866L158.101 207.927ZM194.269 214.689C194.269 215.377 194.416 216.459 193.961 216.902C193.728 217.135 190.507 216.631 187.212 217.111C185.983 217.295 184.667 217.578 183.401 217.75C176.308 218.758 178.484 217.934 167.899 221.131C166.202 221.635 164.469 221.967 162.76 222.421C159.441 223.319 158.003 224.413 155.605 225.003C151.782 225.962 151.118 223.872 149.213 221.561C146.533 218.291 145.758 214.381 143.508 211.197C139.083 204.94 137.927 205.874 135.653 203.932C135.205 203.563 134.837 203.107 134.571 202.592C134.532 202.527 134.511 202.452 134.511 202.377C134.511 202.301 134.532 202.227 134.571 202.162C135.17 201.42 135.874 200.77 136.661 200.231C137.657 199.57 138.706 198.99 139.796 198.498C141.492 197.576 143.767 196.162 145.242 195.523C142.451 201.424 143.447 210.275 150.405 211.947C150.849 212.098 151.265 212.323 151.634 212.611C152.497 213.407 153.445 214.104 154.462 214.689C155.298 215.058 156.245 215.254 157.081 215.562C157.762 215.965 158.528 216.203 159.318 216.256C160.108 216.309 160.9 216.177 161.629 215.869C162.981 215.462 164.235 214.784 165.317 213.877C165.544 213.642 165.701 213.348 165.772 213.029C165.993 211.8 166.092 210.656 165.157 209.894C165.817 209.085 166.317 208.16 166.633 207.165C167.061 207.323 167.523 207.365 167.973 207.288C166.129 208.8 166.67 210.103 169.042 210.706C171.329 211.272 173.701 211.41 176.037 211.111C178.348 210.902 181.459 211.038 183.327 209.611C185.196 208.185 187.089 206.526 187.323 203.981C187.556 201.436 187.188 200.846 187.556 201.645C188.282 203.194 188.847 204.829 189.683 206.292C191.109 208.751 193.765 210.177 194.146 213.078C194.229 213.591 194.279 214.108 194.293 214.627L194.269 214.689ZM215.475 208.751C215.475 208.677 215.475 208.751 215.475 208.751C215.721 209.206 197.551 210.693 193.224 209.366C193.039 209.144 192.855 208.923 192.646 208.702C191.417 204.608 189.806 193.495 189.314 189.745C198.786 189.78 208.25 189.218 217.651 188.061C217.516 191.552 216.164 206.833 215.487 208.689L215.475 208.751ZM219.163 182.639C219.649 184.171 219.649 185.816 219.163 187.348C218.647 188.159 190.077 189.204 187.901 188.651C187.303 187.223 187.079 185.666 187.249 184.127C187.249 184.127 187.815 183.869 188.405 183.733C194.539 182.307 218.573 181.619 219.225 182.578L219.163 182.639ZM201.51 181.582C198.203 181.717 190.999 182.098 187.888 182.897C187.335 183.045 186.561 183.266 186.413 183.77C186.044 184.938 186.475 188.454 187.298 189.339C187.556 189.634 188.294 189.659 188.835 189.696C189.29 194.257 190.347 202.702 191.294 207.202C189.265 204.817 188.835 202.137 187.151 199.494C186.843 197.466 185.993 195.559 184.692 193.974C182.356 191.417 179.53 189.356 176.381 187.913C175.447 187.532 174.476 187.237 173.345 186.893C169.179 185.448 164.734 184.998 160.363 185.577C160.056 184.348 156.06 169.829 154.474 164.125C162.379 160.216 167.174 153.147 170.136 144.837C170.868 146.721 171.769 148.536 172.829 150.258C174.181 152.471 186.266 164.887 191.011 167.002C193.045 167.843 195.242 168.221 197.44 168.108C198.198 168.086 198.953 168.021 199.702 167.912C199.973 169.067 200.661 172.337 201.571 181.521L201.51 181.582ZM230.879 149.729C225.716 157.179 221.13 158.691 213.52 162.466C209.551 164.371 205.4 165.871 201.129 166.94C202.296 164.076 205.603 160.499 207.693 158.335C212.847 153.108 218.298 148.182 224.019 143.583C224.058 143.553 224.084 143.51 224.091 143.461C224.098 143.413 224.085 143.364 224.056 143.324C224.027 143.285 223.983 143.259 223.935 143.252C223.886 143.246 223.837 143.258 223.798 143.288C211.984 151.303 202.899 161.728 200.747 165.736C200.776 164.231 200.69 162.727 200.489 161.236C200.974 158.987 201.755 156.813 202.813 154.77C204.047 152.628 205.475 150.603 207.079 148.721C211.369 142.783 219.975 134.571 226.982 136.919C232.698 138.776 234.321 144.787 230.941 149.668L230.879 149.729Z" fill="currentcolor"/>
<path d="M53.6422 148.045C53.7404 148.044 53.8368 148.018 53.9225 147.97C54.0083 147.922 54.0807 147.854 54.1332 147.77C54.1857 147.687 54.2166 147.593 54.2232 147.495C54.2298 147.397 54.2118 147.298 54.1708 147.209C53.9373 146.693 53.8143 146.201 53.4824 145.599C53.4072 145.465 53.2831 145.366 53.1363 145.323C52.9894 145.279 52.8314 145.294 52.6956 145.365C52.6284 145.401 52.5689 145.45 52.5208 145.509C52.4726 145.569 52.4366 145.637 52.4149 145.71C52.3931 145.783 52.3861 145.86 52.3942 145.936C52.4023 146.012 52.4254 146.085 52.462 146.152C53.0029 147.148 52.9907 148.045 53.6422 148.045ZM42.7009 149.361C42.7104 149.513 42.7784 149.655 42.8907 149.758C43.003 149.862 43.1509 149.917 43.3033 149.914C43.3792 149.911 43.4537 149.893 43.5226 149.861C43.5915 149.829 43.6534 149.783 43.7048 149.727C43.7562 149.671 43.7961 149.606 43.8221 149.534C43.8481 149.463 43.8598 149.387 43.8565 149.311C43.8565 148.082 44.127 147.099 43.2049 147.037C43.0504 147.053 42.9083 147.128 42.8094 147.248C42.7104 147.368 42.6626 147.522 42.6763 147.676C42.7378 148.266 42.6763 148.721 42.7009 149.361ZM64.2885 146.152C64.2949 146.228 64.3163 146.302 64.3513 146.369C64.3863 146.437 64.4343 146.497 64.4925 146.546C64.5507 146.595 64.618 146.632 64.6906 146.655C64.7632 146.678 64.8396 146.687 64.9154 146.681C64.9913 146.674 65.0652 146.653 65.1328 146.618C65.2005 146.583 65.2605 146.535 65.3096 146.477C65.3587 146.418 65.3958 146.351 65.4189 146.278C65.442 146.206 65.4505 146.129 65.4441 146.054C65.4441 145.476 65.4441 144.959 65.3457 144.296C65.305 144.158 65.2157 144.04 65.0945 143.964C64.9733 143.888 64.8285 143.858 64.687 143.881C64.5455 143.903 64.4171 143.976 64.3257 144.087C64.2343 144.197 64.1861 144.337 64.1901 144.48C64.2762 145.033 64.2393 145.55 64.2885 146.152Z" fill="currentcolor"/>
</svg>
