<svg width="260" height="301" viewBox="0 0 260 301" fill="none" xmlns="http://www.w3.org/2000/svg">
<path fill-rule="evenodd" clip-rule="evenodd" d="M155.484 288.985C158.969 285.611 170.578 273.147 174.332 270.233C174.447 270.109 174.602 270.031 174.769 270.011C174.937 269.992 175.106 270.032 175.246 270.125C175.387 270.218 175.49 270.358 175.537 270.52C175.584 270.681 175.572 270.855 175.504 271.009C173.635 274.382 157.337 289.698 156.387 290.601C155.738 291.408 152.95 294.766 152.19 295.463C152.214 296.094 152.049 296.717 151.716 297.253C151.383 297.789 150.897 298.214 150.321 298.472C148.281 299.165 146.282 299.974 144.334 300.895C144.049 301.149 143.717 300.895 143.796 300.626C144.772 299.403 145.591 298.062 146.235 296.635C146.374 295.691 146.853 294.83 147.582 294.215C148.311 293.599 149.24 293.271 150.194 293.293C150.305 293.087 154.502 289.634 155.484 288.985ZM150.147 293.546C149.291 293.596 148.482 293.951 147.865 294.547C147.249 295.143 146.867 295.94 146.789 296.793C146.432 297.868 145.897 298.874 145.205 299.771C149.212 298.108 150.574 298.345 151.446 296.999C151.721 296.552 151.894 296.049 151.952 295.526C150.844 295.225 150.068 293.356 150.147 293.546ZM155.168 289.571C153.932 290.696 152.649 291.899 150.765 293.531C151.041 294.081 151.456 294.55 151.968 294.893L156.102 290.474C155.737 290.239 155.425 289.932 155.183 289.571H155.168ZM148.12 270.914C149.925 269.726 174.427 253.602 174.665 254.394C174.902 255.186 150.622 273.559 150.416 273.685C149.387 274.857 142.497 282.285 141.594 282.602C140.445 282.56 139.357 282.078 138.553 281.256C137.452 280.13 136.637 278.756 136.177 277.249C135.877 276.172 147.138 271.325 148.12 270.914ZM136.954 277.962C137.265 278.966 137.829 279.873 138.592 280.597C139.355 281.32 140.29 281.836 141.309 282.095C140.169 281.018 137.761 278.722 136.954 277.962ZM141.705 274.303C139.966 275.132 138.298 276.101 136.716 277.201C136.922 277.882 136.716 277.201 138.3 278.516C139.585 279.524 140.712 280.72 141.642 282.064C142.434 281.478 145.649 278.278 145.459 278.453C144.272 276.998 143.002 275.613 141.658 274.303H141.705ZM148.183 271.135C145.57 272.355 143.827 273.21 141.848 274.176C143.419 275.18 144.693 276.585 145.538 278.247C146.488 277.296 149.719 274.018 150.194 273.495C149.735 273.052 148.531 271.674 148.135 271.167L148.183 271.135ZM186.559 253.032C187.367 245.937 188.555 237.115 189.521 237.067C190.487 237.02 189.442 245.937 188.444 253.08C191.611 253.349 195.381 255.091 194.779 258.1C194.808 258.636 194.738 259.173 194.573 259.684C196.157 270.438 194.747 272.656 194.858 272.482C193.936 273.592 192.782 274.488 191.477 275.106C190.172 275.725 188.747 276.051 187.303 276.061C185.854 276.069 184.419 275.767 183.094 275.177C181.77 274.588 180.586 273.723 179.622 272.64C178.307 270.66 179.147 262.298 179.4 259.969C179.26 259.479 179.18 258.974 179.163 258.465C178.972 257.632 179.079 256.758 179.467 255.997C179.855 255.235 180.499 254.634 181.285 254.299C182.905 253.43 184.721 252.994 186.559 253.032ZM194.272 266.938C193.021 269.504 189.521 270.312 186.702 270.312C186.663 271.071 186.579 271.827 186.448 272.577C186.322 273.178 186.179 273.701 185.561 273.685C184.67 273.505 183.885 272.982 183.376 272.228C182.964 271.61 183.059 271.294 183.581 269.932C182.895 269.752 182.256 269.426 181.709 268.974C181.162 268.523 180.72 267.958 180.414 267.318C180.42 268.733 180.564 270.144 180.841 271.531C181.175 272.161 181.653 272.704 182.235 273.115C185.815 276.029 190.154 275.206 193.781 272.086C193.94 270.914 194.161 268.617 194.272 266.938ZM179.733 260.603C179.622 262.519 179.194 270.613 180.271 272.196C181.1 273.16 182.149 273.909 183.328 274.382C182.092 273.779 181.085 272.789 180.461 271.563C180.189 269.867 180.099 268.147 180.192 266.431C180.092 265.951 180.11 265.453 180.246 264.981C180.381 264.509 180.629 264.078 180.968 263.723C182.093 262.424 182.362 263.169 181.332 262.456C180.659 262.001 180.109 261.386 179.733 260.666V260.603ZM183.993 269.947C183.801 270.461 183.658 270.991 183.566 271.531C183.566 272.07 184.991 273.273 185.625 273.21C185.846 273.21 185.91 272.878 185.989 272.482C186.129 271.765 186.225 271.04 186.274 270.312C185.505 270.297 184.74 270.196 183.993 270.011V269.947ZM194.383 260.223C193.839 261.226 193.006 262.043 191.992 262.567C193.813 263.137 195.017 264.357 194.526 266.21C194.526 267.207 194.526 268.189 194.431 269.076C194.272 272.387 194.161 272.244 194.32 272.006C195.064 269.187 194.684 263.264 194.383 260.286V260.223ZM191.722 262.709C190.241 263.426 188.617 263.8 186.971 263.802C186.973 264.749 186.85 265.691 186.607 266.606C186.671 267.66 186.671 268.718 186.607 269.773C188.59 269.841 190.552 269.341 192.261 268.332C194.779 266.748 195.175 263.881 191.722 262.773V262.709ZM185.181 266.669C185.086 266.891 184.294 269.092 184.152 269.488C184.862 269.661 185.59 269.751 186.322 269.757C186.322 268.981 186.48 267.492 186.464 266.716C186.042 266.809 185.605 266.815 185.181 266.732V266.669ZM182.219 262.994C179.178 265.085 180.461 268.411 183.803 269.425C184.136 268.585 184.658 267.413 185.039 266.606C185.082 265.66 185.188 264.718 185.355 263.786C184.272 263.703 183.212 263.436 182.219 262.994ZM185.498 263.802L185.355 266.368C185.625 266.368 186.496 266.495 186.401 266.368C186.306 266.241 186.607 264.879 186.717 263.834C186.306 263.866 185.894 263.85 185.498 263.818V263.802ZM194.114 259.605C191.295 263.137 182.774 263.184 179.859 259.605C180.167 260.399 180.674 261.1 181.332 261.641C181.989 262.182 182.775 262.544 183.613 262.693C187.224 263.675 192.657 262.884 194.114 259.621V259.605ZM188.206 254.727C187.731 258.005 187.319 260.666 187.177 261.537C189.568 261.537 192.768 260.666 193.876 258.734C193.528 256.263 190.709 254.98 188.206 254.743V254.727ZM186.369 254.727C185.061 254.791 183.795 255.206 182.703 255.928C181.611 256.649 180.732 257.651 180.16 258.829C181.174 260.413 183.724 261.284 185.688 261.474C185.767 260.603 186.021 257.974 186.369 254.743V254.727ZM186.527 253.333C184.801 253.396 183.118 253.892 181.633 254.774C180.224 255.677 179.273 257.071 180.05 258.576C180.59 257.328 181.471 256.257 182.591 255.487C183.712 254.717 185.026 254.278 186.385 254.22L186.527 253.333ZM188.444 253.491C188.444 253.761 188.365 254.03 188.317 254.299C190.93 254.537 193.67 255.883 194.098 258.417C194.668 256.976 193.718 255.677 192.388 254.838C191.185 254.11 189.84 253.651 188.444 253.491ZM203.617 259.922C202.872 256.231 196.854 228.736 198.865 227.137C199.58 226.743 200.357 226.475 201.162 226.345C203.379 225.869 217.523 223.969 218.172 225.885C218.822 227.802 215.005 256.992 214.72 258.56C214.72 259.621 214.324 262.583 214.324 262.583C213.912 263.442 213.303 264.191 212.547 264.768C211.79 265.346 210.907 265.736 209.97 265.906C209.033 266.076 208.069 266.021 207.157 265.747C206.246 265.472 205.412 264.984 204.726 264.325C204.197 262.902 203.825 261.425 203.617 259.922ZM217.365 229.401C211.299 229.482 205.248 230.012 199.261 230.985C199.752 237.637 202.635 253.159 203.886 259.779C205.535 260.681 207.414 261.073 209.286 260.907C211.158 260.741 212.939 260.023 214.403 258.845C214.577 257.499 217.238 231.175 217.365 229.401ZM215.939 238.588C215.939 238.588 216.034 237.511 214.704 237.78C213.373 238.049 210.95 240.33 207.972 240.076C204.995 239.823 202.16 238.16 201.273 239.269C200.386 240.377 204.14 243.878 209.002 243.054C214.577 242.12 216.05 239.823 215.939 238.588ZM200.259 227.342C200.022 227.342 199.372 227.596 199.309 227.802C199.174 228.806 199.174 229.823 199.309 230.827L200.893 230.526C200.535 229.499 200.321 228.428 200.259 227.342ZM202.999 226.756C202.191 226.899 201.241 227.073 200.465 227.279C200.7 228.324 200.875 229.382 200.988 230.447C201.59 230.336 203.268 230.051 203.759 230.003C203.712 229.892 203.332 228.578 202.999 226.756ZM206.024 226.36C205.027 226.471 204.076 226.598 203.205 226.725C203.593 227.784 203.827 228.893 203.902 230.019L206.563 229.687C206.468 229.164 206.135 227.517 206.024 226.36ZM208.986 226.075C208.448 226.075 207.307 226.202 206.23 226.329C206.564 227.411 206.729 228.538 206.721 229.671L209.572 229.401C209.525 229.132 209.192 227.707 209.034 226.075H208.986ZM212.154 225.869L209.192 226.06C209.534 227.136 209.715 228.256 209.73 229.386C210.649 229.386 211.663 229.259 212.566 229.227C212.566 229.196 212.201 226.075 212.201 225.869H212.154ZM215.987 225.869C215.93 226.979 215.808 228.084 215.622 229.18H217.38C217.38 228.784 217.65 226.123 217.38 226.012C216.921 225.921 216.454 225.879 215.987 225.885V225.869ZM215.781 225.869H212.375C212.682 226.961 212.8 228.096 212.724 229.227H215.48C215.432 228.1 215.533 226.971 215.781 225.869ZM96.5818 247.679C98.6566 247.679 100.351 248.439 100.351 249.405C100.351 250.371 98.6566 251.132 96.5818 251.132C94.507 251.132 92.8281 250.355 92.8281 249.405C92.8281 248.455 94.4436 247.679 96.5818 247.679ZM56.5426 238.556C56.5426 238.904 55.8933 239.221 55.0697 239.253C54.2461 239.285 53.4858 239.015 53.4858 238.651C53.5175 237.812 56.511 237.653 56.5426 238.556Z" fill="#3AAFA9"/>
<path d="M71.5413 278.532C72.556 278.532 73.3786 278.043 73.3786 277.439C73.3786 276.835 72.556 276.346 71.5413 276.346C70.5267 276.346 69.7041 276.835 69.7041 277.439C69.7041 278.043 70.5267 278.532 71.5413 278.532Z" fill="#3AAFA9"/>
<path fill-rule="evenodd" clip-rule="evenodd" d="M150.638 224.983C152.222 224.983 153.584 225.442 153.584 225.996C153.584 226.551 152.269 227.026 150.638 227.026C149.007 227.026 147.708 226.566 147.708 225.996C147.708 225.426 149.022 224.983 150.638 224.983ZM49.7956 184.547C49.7956 184.943 49.558 187.937 49.6847 192.308C49.6847 192.894 49.7956 194.89 49.7956 194.89C49.7956 194.89 49.9857 195.001 49.9857 194.89C49.9857 194.779 50.0807 192.894 50.0965 192.308C50.1916 188.665 49.9857 184.389 49.9857 184.547C49.9857 184.522 49.9756 184.498 49.9578 184.48C49.94 184.462 49.9158 184.452 49.8906 184.452C49.8654 184.452 49.8412 184.462 49.8234 184.48C49.8056 184.498 49.7956 184.522 49.7956 184.547ZM115.762 11.4825C117.742 12.021 121.242 13.1455 122.509 14.7769C122.555 14.8368 122.58 14.9098 122.58 14.985C122.581 15.0602 122.557 15.1336 122.512 15.1941C122.468 15.2547 122.405 15.2993 122.333 15.3211C122.261 15.343 122.184 15.341 122.113 15.3154C115.778 12.7338 105.689 16.0281 99.2902 18.6889C96.7561 19.7501 111.961 2.59725 122.889 5.28976C122.964 5.31253 123.029 5.35868 123.076 5.42141C123.122 5.48414 123.147 5.56014 123.147 5.6382C123.147 5.71626 123.122 5.79226 123.076 5.85499C123.029 5.91773 122.964 5.96388 122.889 5.98664C120.405 6.56921 117.965 7.32604 115.588 8.25152C117.409 8.33071 121.606 8.59996 123.016 9.83535C123.072 9.88367 123.112 9.94723 123.133 10.0183C123.153 10.0893 123.152 10.1647 123.13 10.2352C123.109 10.3058 123.067 10.3685 123.01 10.4156C122.953 10.4627 122.883 10.4922 122.81 10.5006C120.445 10.706 118.093 11.0338 115.762 11.4825ZM121.02 5.73323C117.909 5.72186 114.85 6.53035 112.151 8.0773C107.321 10.6397 103.021 14.0955 99.4803 18.2613C105.546 15.6322 114.178 12.6546 120.656 14.1434C118.613 13.0997 116.44 12.3327 114.194 11.8626C114.112 11.8453 114.039 11.8005 113.987 11.7356C113.934 11.6707 113.905 11.5898 113.905 11.5063C113.905 11.4228 113.934 11.3418 113.987 11.277C114.039 11.2121 114.112 11.1672 114.194 11.1499C116.607 10.4997 119.071 10.0547 121.559 9.81951C119.13 9.24672 116.642 8.95969 114.147 8.96424C114.065 8.96657 113.985 8.94163 113.92 8.89338C113.855 8.84514 113.807 8.77637 113.785 8.69803C113.763 8.61969 113.768 8.53629 113.799 8.46111C113.83 8.38593 113.886 8.3233 113.956 8.2832C116.208 7.17136 118.578 6.31601 121.02 5.73323ZM14.0644 138.22C12.4893 138.427 10.9015 138.522 9.31295 138.506C9.23226 138.509 9.15297 138.484 9.08862 138.435C9.02427 138.386 8.97886 138.317 8.96016 138.238C8.94146 138.16 8.95062 138.077 8.98608 138.004C9.02154 137.932 9.08109 137.874 9.15456 137.84C11.1185 136.779 15.7433 135.734 18.119 134.087L23.995 130.159C24.0069 130.145 24.0216 130.134 24.0379 130.127C24.0543 130.12 24.0721 130.116 24.0901 130.116C24.108 130.116 24.1258 130.12 24.1422 130.127C24.1586 130.134 24.1732 130.145 24.1851 130.159C24.3593 130.365 23.995 130.38 22.0152 132.994C20.701 134.612 19.6336 136.416 18.8476 138.347C17.9982 140.367 17.2528 142.428 16.6144 144.524C16.6144 144.999 15.474 145.348 15.7908 142.75C15.9219 141.781 16.1016 140.819 16.3293 139.868C14.6861 141.054 12.9547 142.113 11.1502 143.035C11.0852 143.073 11.0102 143.089 10.9356 143.082C10.8609 143.075 10.7902 143.046 10.733 142.997C10.6759 142.949 10.6351 142.884 10.6162 142.811C10.5973 142.739 10.6013 142.662 10.6275 142.592C11.4376 140.9 12.6111 139.407 14.0644 138.22ZM23.0289 131.204C15.2681 136.668 18.7367 134.689 10.9918 137.777C12.4739 137.774 13.9472 137.549 15.3632 137.112L15.5374 136.969C15.8858 136.7 16.5035 137.238 15.8225 137.682C14.3001 138.879 12.9561 140.287 11.8312 141.863C13.5853 140.966 15.2279 139.865 16.7253 138.585C16.781 138.52 16.8577 138.477 16.942 138.463C17.0263 138.449 17.1129 138.465 17.1865 138.508C17.2601 138.552 17.3161 138.62 17.3447 138.7C17.3733 138.781 17.3727 138.869 17.343 138.949C17.0154 140.143 16.751 141.354 16.551 142.576C17.803 138.336 20.0203 134.443 23.0289 131.204ZM24.1059 123.808C26.7918 119.456 30.6288 115.931 35.1927 113.624C41.338 110.725 43.587 113.814 40.7994 119.357C38.4258 123.785 35.0327 127.586 30.9005 130.444C31.3657 132.069 31.5531 133.761 31.4549 135.449C31.0431 137.033 23.2982 139.693 22.237 139.567C22.1566 139.563 22.0787 139.537 22.0118 139.493C21.9448 139.448 21.8913 139.386 21.8569 139.313C21.6985 138.949 22.0628 138.616 22.4112 138.347C24.3448 136.935 26.3714 135.654 28.4773 134.514L28.3664 131.885L27.4636 132.329C27.4048 132.345 27.3427 132.344 27.284 132.328C27.2253 132.311 27.1724 132.278 27.131 132.234L22.142 127.371C22.1186 127.345 22.1057 127.311 22.1057 127.276C22.1057 127.241 22.1186 127.207 22.142 127.181C22.142 127.181 22.3003 126.849 22.6329 126.263H19.8612C19.4494 127.118 16.6936 132.693 15.8066 133.073C15.7429 133.104 15.6727 133.119 15.602 133.117C15.5312 133.115 15.462 133.096 15.3999 133.062C15.3379 133.028 15.285 132.98 15.2455 132.921C15.206 132.862 15.1812 132.795 15.1731 132.725C14.9831 131.537 17.3271 123.792 18.8793 123.332C20.6027 123.174 22.3404 123.292 24.0267 123.681C24.0516 123.691 24.0727 123.709 24.087 123.731C24.1012 123.754 24.1078 123.781 24.1059 123.808ZM30.5521 130.555C29.9234 130.974 29.2731 131.36 28.604 131.711L28.9366 134.704C28.9366 134.942 28.9366 134.799 25.7689 136.89C24.8028 137.508 23.8208 138.157 23.1556 138.648C25.5588 137.986 27.8764 137.045 30.0611 135.845C30.2353 135.734 30.6946 135.417 30.758 135.211C30.9253 133.658 30.8559 132.088 30.5521 130.555ZM23.5674 125.376C22.9497 126.294 22.5696 126.959 22.427 127.229L27.3369 131.774C27.9071 131.489 28.5248 131.141 29.1742 130.745C27.1285 129.149 25.25 127.35 23.5674 125.376ZM23.9634 124.029C22.3296 123.798 20.6714 123.798 19.0377 124.029C18.4833 124.219 17.533 126.738 17.3588 127.197C16.7995 128.688 16.3496 130.218 16.0125 131.774C16.9628 130.365 19.5603 125.756 19.4494 125.977C19.4709 125.933 19.5048 125.896 19.547 125.871C19.5892 125.846 19.6379 125.833 19.687 125.835L22.7755 125.993C23.0923 125.391 23.4724 124.774 23.9634 124.029ZM32.6903 115.809C29.1001 118.246 26.0489 121.394 23.7258 125.059C25.8289 126.673 27.7512 128.511 29.4592 130.539C33.0734 128.157 36.1751 125.077 38.5821 121.479L32.6903 115.809ZM29.8552 119.785C29.5505 120.104 29.3116 120.48 29.1523 120.892C28.993 121.303 28.9163 121.742 28.9266 122.183C28.9369 122.625 29.034 123.059 29.2123 123.463C29.3907 123.867 29.6468 124.231 29.9661 124.536C30.2853 124.841 30.6615 125.08 31.0731 125.239C31.4846 125.398 31.9236 125.475 32.3648 125.465C32.806 125.454 33.2409 125.357 33.6445 125.179C34.0482 125.001 34.4128 124.745 34.7175 124.425C35.3329 123.781 35.667 122.918 35.6462 122.027C35.6254 121.136 35.2515 120.289 34.6067 119.674C33.9619 119.058 33.0991 118.724 32.208 118.745C31.3169 118.766 30.4706 119.14 29.8552 119.785ZM34.2741 120.038C34.7839 120.562 35.0693 121.263 35.0693 121.994C35.0693 122.725 34.7839 123.427 34.2741 123.95C33.7742 124.414 33.1162 124.669 32.4344 124.664C31.7526 124.659 31.0983 124.394 30.6052 123.924C30.1121 123.453 29.8173 122.811 29.7809 122.131C29.7445 121.45 29.9694 120.781 30.4095 120.26C30.8996 119.73 31.5762 119.41 32.297 119.369C33.0179 119.327 33.7266 119.567 34.2741 120.038ZM33.403 120.941C33.6186 121.165 33.7637 121.447 33.8201 121.752C33.8765 122.058 33.8418 122.374 33.7202 122.66C33.5987 122.946 33.3957 123.189 33.1365 123.361C32.8773 123.532 32.5734 123.624 32.2626 123.624C31.9518 123.624 31.6479 123.532 31.3888 123.361C31.1296 123.189 30.9266 122.946 30.805 122.66C30.6834 122.374 30.6487 122.058 30.7051 121.752C30.7615 121.447 30.9066 121.165 31.1223 120.941C31.27 120.788 31.4471 120.666 31.6431 120.582C31.839 120.499 32.0497 120.456 32.2626 120.456C32.4755 120.456 32.6862 120.499 32.8822 120.582C33.0781 120.666 33.2552 120.788 33.403 120.941Z" fill="#3AAFA9"/>
<path fill-rule="evenodd" clip-rule="evenodd" d="M83.5468 13.3673C83.402 13.2445 83.2884 13.0891 83.2151 12.9139C83.1419 12.7386 83.1111 12.5486 83.1253 12.3592C83.1396 12.1699 83.1984 11.9865 83.2971 11.8243C83.3957 11.662 83.5314 11.5254 83.6929 11.4256C83.8545 11.3257 84.0374 11.2656 84.2266 11.2499C84.4159 11.2343 84.6062 11.2637 84.7819 11.3357C84.9576 11.4076 85.1138 11.5202 85.2378 11.6641C85.3617 11.808 85.4498 11.9792 85.4949 12.1636C85.5063 12.363 85.4705 12.5622 85.3903 12.7451C85.31 12.9279 85.1877 13.0892 85.0333 13.2158C84.8789 13.3425 84.6968 13.4308 84.5018 13.4736C84.3067 13.5165 84.1043 13.5126 83.9111 13.4624C83.9111 13.6207 83.6735 15.3788 83.1984 17.4378C85.399 17.4462 87.5234 18.2442 89.1852 19.6868C89.2093 19.6426 89.2488 19.6088 89.2961 19.5918C101.65 17.8496 102.933 21.9358 98.9574 25.2144C94.4911 28.9047 80.7751 33.1335 73.2044 32.1357C71.2246 31.8981 68.152 30.9795 68.1203 29.1106C68.1203 26.7032 74.5665 24.0265 74.8199 23.8998C75.8524 21.285 77.8475 19.1652 80.395 17.9763C79.2705 16.7567 78.0984 14.9828 77.8292 14.6819C76.4829 15.4105 75.2159 13.6841 76.2454 12.7972C76.4722 12.5983 76.7677 12.496 77.0689 12.5121C77.3201 12.4612 77.581 12.4965 77.8097 12.6121C78.0384 12.7277 78.2214 12.9169 78.3294 13.1493C78.4373 13.3817 78.4639 13.6436 78.4047 13.8929C78.3456 14.1423 78.2042 14.3644 78.0034 14.5235C78.5363 14.9074 79.0111 15.3661 79.413 15.8856C81.6937 18.6415 79.7615 17.6912 82.5807 17.4694C82.6645 16.0567 82.9913 14.669 83.5468 13.3673ZM74.5507 24.3433C73.1252 25.0401 68.5321 27.5109 68.5955 29.0947C68.5955 29.6174 69.0548 30.1401 69.8942 30.5994C75.786 33.767 93.319 28.7938 98.4031 24.66C101.302 22.3318 101.001 20.0986 95.4889 19.7026C93.3753 19.6069 91.2576 19.6704 89.1535 19.8927C88.7576 20.8113 84.9406 28.0336 74.5507 24.3433ZM72.9668 28.1128C72.8979 28.2593 72.8605 28.4187 72.8571 28.5806C72.8537 28.7425 72.8843 28.9034 72.947 29.0527C73.0097 29.202 73.1031 29.3365 73.2211 29.4474C73.3391 29.5583 73.4791 29.6432 73.632 29.6966C73.7839 29.7344 73.9417 29.7419 74.0965 29.7186C74.2512 29.6952 74.3998 29.6415 74.5337 29.5606C74.6677 29.4796 74.7843 29.373 74.8769 29.2469C74.9695 29.1207 75.0362 28.9775 75.0733 28.8255C75.1678 28.5462 75.1475 28.2407 75.0168 27.9764C74.8861 27.712 74.6558 27.5104 74.3764 27.4159C74.0971 27.3214 73.7917 27.3417 73.5273 27.4724C73.2629 27.6031 73.0613 27.8334 72.9668 28.1128ZM74.2656 27.6693C74.9625 27.9861 74.4873 29.2531 73.8221 29.0631C73.1569 28.873 73.5053 27.5268 74.2656 27.6693ZM85.194 26.7665C85.082 26.6831 84.9527 26.6258 84.8156 26.5989C84.6786 26.5721 84.5372 26.5762 84.402 26.6112C84.2667 26.6461 84.1411 26.711 84.0342 26.8009C83.9273 26.8908 83.8419 27.0035 83.7844 27.1308C83.6628 27.4147 83.6506 27.7335 83.75 28.0259C83.8494 28.3183 84.0535 28.5636 84.3229 28.7146C84.4515 28.7943 84.5964 28.8441 84.7468 28.8605C84.8973 28.8768 85.0494 28.8593 85.1922 28.8092C85.335 28.7591 85.4647 28.6776 85.5719 28.5708C85.6791 28.464 85.761 28.3346 85.8117 28.192C85.9005 27.9199 85.8867 27.6248 85.7729 27.3622C85.6591 27.0996 85.4532 26.8877 85.194 26.7665ZM85.0673 26.9882C85.7008 27.4634 85.289 28.5721 84.6238 28.192C83.9586 27.8118 84.307 26.6715 85.0673 27.0041V26.9882ZM93.5408 22.4585C93.4487 22.3723 93.3384 22.308 93.218 22.2703C93.0977 22.2326 92.9704 22.2226 92.8456 22.2408C92.7208 22.2591 92.6018 22.3052 92.4973 22.3758C92.3928 22.4464 92.3055 22.5396 92.242 22.6486C92.1195 22.9021 92.0938 23.1917 92.1696 23.4629C92.2454 23.7341 92.4176 23.9683 92.6538 24.1215C92.7593 24.2075 92.8827 24.269 93.0149 24.3015C93.1471 24.334 93.2849 24.3368 93.4183 24.3095C93.5517 24.2822 93.6773 24.2256 93.7862 24.1438C93.895 24.062 93.9843 23.957 94.0476 23.8364C94.106 23.7129 94.1392 23.5789 94.1452 23.4424C94.1513 23.3059 94.1301 23.1695 94.083 23.0412C94.0358 22.913 93.9636 22.7954 93.8705 22.6953C93.7774 22.5953 93.6653 22.5148 93.5408 22.4585ZM93.414 22.6644C93.8892 23.1079 93.5566 23.9948 93.0023 23.6147C92.4479 23.2346 92.7647 22.3476 93.414 22.6644ZM77.0689 12.7496C77.2739 12.7572 77.4686 12.8409 77.6151 12.9844C77.7615 13.128 77.8492 13.321 77.8609 13.5257C77.8527 13.7092 77.774 13.8824 77.6412 14.0093C77.5084 14.1362 77.3318 14.2069 77.1481 14.2068C77.0525 14.212 76.9567 14.1983 76.8663 14.1665C76.7759 14.1346 76.6927 14.0853 76.6214 14.0214C76.4773 13.8922 76.3905 13.711 76.38 13.5178C76.3695 13.3246 76.4362 13.1351 76.5654 12.991C76.6946 12.847 76.8757 12.7601 77.0689 12.7496ZM84.0853 11.4034C84.2902 11.4109 84.485 11.4947 84.6314 11.6382C84.7779 11.7817 84.8655 11.9747 84.8772 12.1795C84.8691 12.3629 84.7904 12.5362 84.6576 12.6631C84.5248 12.79 84.3482 12.8607 84.1645 12.8605C84.0623 12.8804 83.9571 12.8781 83.8559 12.8539C83.7546 12.8296 83.6598 12.784 83.5777 12.72C83.4956 12.656 83.4281 12.5752 83.3799 12.483C83.3317 12.3907 83.3037 12.2892 83.298 12.1853C83.2923 12.0814 83.309 11.9774 83.3468 11.8805C83.3846 11.7835 83.4428 11.6958 83.5174 11.6232C83.592 11.5506 83.6813 11.4948 83.7793 11.4596C83.8772 11.4245 83.9816 11.4107 84.0853 11.4192V11.4034ZM162.247 90.0404C162.99 88.6633 164.209 87.6035 165.676 87.0588C167.143 86.5141 168.758 86.5216 170.22 87.08C171.682 87.6384 172.891 88.7095 173.621 90.0935C174.352 91.4775 174.553 93.0799 174.189 94.6019C176.519 95.7354 178.745 97.0709 180.841 98.5931C181.76 99.4167 181.633 100.177 180.002 100.066C177.169 99.8133 174.368 99.2828 171.639 98.4822C170.766 99.12 169.747 99.5279 168.675 99.6684C167.603 99.8089 166.513 99.6775 165.505 99.2864C164.497 98.8952 163.603 98.2568 162.907 97.4298C162.21 96.6029 161.733 95.6141 161.519 94.5544C159.935 93.7941 154.439 90.9591 154.106 89.3594C153.995 88.7734 154.566 88.5041 155.167 88.4408C157.601 88.5688 159.995 89.1097 162.247 90.0404ZM174.063 94.9345C173.753 96.0106 173.169 96.9877 172.368 97.7695C175.06 98.5454 177.816 99.0755 180.604 99.3533C179.701 98.1813 175.361 95.6789 174.063 94.9345ZM162.089 94.7919C162.346 95.6831 162.805 96.503 163.43 97.1881C164.055 97.8731 164.83 98.4048 165.694 98.7418C166.558 99.0789 167.488 99.2122 168.412 99.1315C169.336 99.0508 170.229 98.7581 171.022 98.2763C167.962 97.3378 164.976 96.1731 162.089 94.7919ZM171.877 97.627C172.99 96.6353 173.699 95.2684 173.868 93.7872C174.038 92.3061 173.656 90.8144 172.796 89.597C172.344 88.9321 171.762 88.3662 171.085 87.934C170.407 87.5018 169.649 87.2123 168.855 87.0834C168.062 86.9544 167.251 86.9886 166.472 87.1838C165.692 87.3791 164.961 87.7314 164.322 88.219C163.462 88.8522 162.783 89.7009 162.355 90.6796C161.927 91.6583 161.764 92.7325 161.883 93.7941C165.106 95.3388 168.448 96.6206 171.877 97.627ZM162.089 90.3572C160.917 89.9771 155.753 88.4883 154.819 89.2169C155.183 90.3572 160.331 93.0339 161.519 93.5249C161.428 92.4373 161.625 91.3451 162.089 90.3572ZM47.2613 187.969C49.1735 189.226 51.1866 190.322 53.2798 191.247C53.3002 191.253 53.3221 191.253 53.342 191.245C53.3619 191.238 53.3787 191.223 53.3896 191.205C53.4006 191.187 53.4051 191.166 53.4024 191.144C53.3998 191.123 53.3901 191.104 53.3749 191.089C51.4604 189.835 49.4477 188.739 47.3563 187.81C47.336 187.804 47.3141 187.804 47.2942 187.812C47.2743 187.82 47.2575 187.834 47.2465 187.852C47.2356 187.87 47.2311 187.892 47.2337 187.913C47.2364 187.934 47.2461 187.954 47.2613 187.969ZM12.9239 48.9084C12.9239 45.0756 13.1457 41.4644 13.1457 41.6228C13.1561 41.5911 13.1762 41.5635 13.2032 41.544C13.2303 41.5244 13.2628 41.5139 13.2961 41.5139C13.3295 41.5139 13.362 41.5244 13.389 41.544C13.416 41.5635 13.4362 41.5911 13.4466 41.6228C13.4466 42.779 13.6525 43.8085 13.6683 49.1618C14.8387 48.4001 16.0495 47.7022 17.2953 47.0712C17.3119 47.0608 17.3304 47.0538 17.3498 47.0505C17.3691 47.0473 17.389 47.0479 17.4081 47.0523C17.4272 47.0567 17.4453 47.0648 17.4612 47.0762C17.4772 47.0876 17.4908 47.1021 17.5012 47.1187C17.5116 47.1353 17.5186 47.1539 17.5218 47.1732C17.5251 47.1926 17.5245 47.2124 17.5201 47.2315C17.5157 47.2506 17.5075 47.2687 17.4961 47.2846C17.4847 47.3006 17.4703 47.3142 17.4537 47.3246C16.4398 48.1563 15.3824 48.9334 14.286 49.6528C16.5667 50.904 17.026 51.2367 18.1189 51.9019C19.2117 52.5671 19.2276 52.5671 19.1484 52.7255C19.0692 52.8838 18.99 52.8205 17.8971 52.3137C16.8043 51.8068 16.0599 51.4901 13.6683 50.1755C13.6683 56.2416 13.4307 59.0133 13.4307 58.8549C13.4203 58.8866 13.4002 58.9141 13.3732 58.9337C13.3461 58.9533 13.3136 58.9638 13.2803 58.9638C13.2469 58.9638 13.2144 58.9533 13.1874 58.9337C13.1604 58.9141 13.1402 58.8866 13.1298 58.8549C13.1298 57.7145 12.9081 56.7167 12.9081 50.5398C11.6722 51.3585 10.3927 52.1093 9.07521 52.7888C9.05857 52.7992 9.04005 52.8062 9.0207 52.8095C9.00135 52.8127 8.98154 52.8121 8.96242 52.8077C8.94331 52.8033 8.92524 52.7951 8.90927 52.7838C8.89329 52.7724 8.87972 52.7579 8.86932 52.7413C8.85892 52.7247 8.85189 52.7061 8.84865 52.6868C8.84541 52.6674 8.84602 52.6476 8.85043 52.6285C8.85484 52.6094 8.86298 52.5913 8.87437 52.5753C8.88576 52.5594 8.90019 52.5458 8.91683 52.5354C10.1639 51.5142 11.4702 50.5675 12.8289 49.7003C11.546 48.9876 11.1342 48.7342 10.1205 48.1165C9.10689 47.4988 8.77429 47.3088 8.85348 47.1345C8.88335 47.1127 8.9194 47.1009 8.95642 47.1009C8.99345 47.1009 9.02951 47.1127 9.05937 47.1345C11.055 47.8789 12.2429 48.56 12.9239 48.9084Z" fill="#3AAFA9"/>
<path fill-rule="evenodd" clip-rule="evenodd" d="M47.3566 191.247C49.1309 190.317 50.8121 189.219 52.3773 187.969C52.4882 187.969 52.3773 187.747 52.2823 187.81C50.5092 188.743 48.8282 189.84 47.2615 191.089C47.1665 191.152 47.2615 191.31 47.3566 191.247ZM96.4552 95.7422C96.4552 100.193 96.6136 100.906 96.6136 101.713C96.6069 101.73 96.6044 101.748 96.6063 101.766C96.6083 101.784 96.6146 101.802 96.6248 101.817C96.6349 101.832 96.6486 101.844 96.6646 101.852C96.6806 101.861 96.6984 101.865 96.7166 101.865C96.7347 101.865 96.7525 101.861 96.7685 101.852C96.7845 101.844 96.7982 101.832 96.8084 101.817C96.8185 101.802 96.8248 101.784 96.8268 101.766C96.8287 101.748 96.8262 101.73 96.8195 101.713C96.8195 101.872 96.9937 99.3058 96.9937 95.473C98.2215 96.1674 99.485 96.7965 100.779 97.3577C100.906 97.3577 101.017 97.231 100.89 97.1677C99.775 96.4227 98.6226 95.7354 97.4372 95.1087C98.2217 94.6243 98.9779 94.0955 99.7021 93.5249C99.7236 93.5085 99.7383 93.4848 99.7435 93.4583C99.7488 93.4318 99.7442 93.4042 99.7306 93.3809C99.7169 93.3575 99.6953 93.34 99.6696 93.3315C99.6439 93.323 99.6161 93.3242 99.5912 93.3348C99.5912 93.3348 98.2925 94 96.9937 94.8395C96.9937 90.8957 96.8353 90.088 96.8353 89.4228C96.8353 89.3934 96.8237 89.3652 96.8029 89.3444C96.7821 89.3236 96.7539 89.3119 96.7245 89.3119C96.6951 89.3119 96.6669 89.3236 96.6461 89.3444C96.6253 89.3652 96.6136 89.3934 96.6136 89.4228C96.6136 89.2644 96.4711 91.9727 96.4552 94.6652C95.9959 94.4277 95.0773 93.9367 93.6835 93.3348C93.5568 93.3348 93.4459 93.4615 93.5727 93.5249C93.6994 93.5882 94.7447 94.3326 96.3919 95.2354C95.4166 95.826 94.4753 96.4711 93.5727 97.1677C93.4459 97.1677 93.5727 97.4369 93.6835 97.3577C93.5251 97.4369 94.713 96.8509 96.4552 95.7422ZM136.273 207.656C134.546 206.943 116.332 205.818 116.174 205.802C115.683 205.802 112.135 206.515 111.898 206.579C111.66 206.642 111.898 206.578 111.898 206.658C113.282 207.29 114.711 207.82 116.174 208.242C117.758 208.574 120.925 208.606 135.94 210.221C136.225 210.221 136.827 209.239 136.479 207.814C136.463 207.766 136.352 207.703 136.273 207.656ZM116.095 208.083L113.703 207.244C113.796 207.118 113.855 206.971 113.878 206.816C113.9 206.661 113.883 206.504 113.83 206.357C114.604 206.201 115.387 206.089 116.174 206.024C116.554 206.404 115.54 206.547 116.301 207.038C116.396 207.038 116.411 207.038 116.301 207.149C116.26 207.169 116.225 207.197 116.195 207.231C116.166 207.265 116.144 207.305 116.131 207.348C116.118 207.391 116.113 207.436 116.118 207.481C116.123 207.525 116.136 207.569 116.158 207.608C116.285 207.83 116.427 207.925 116.095 208.083ZM116.285 208.083C116.728 207.846 116.126 207.481 116.427 207.291C117.092 206.832 113.925 206.959 134.847 208.875C134.803 209.201 134.876 209.532 135.053 209.81L116.285 208.083ZM134.863 208.748C134.15 208.669 116.617 207.006 116.506 206.911C116.396 206.816 116.111 206.737 116.253 206.547C116.396 206.357 116.475 206.183 116.253 205.992C116.411 205.992 131.949 207.228 135.259 207.782C135.028 208.066 134.89 208.415 134.863 208.78V208.748ZM135.877 209.841C135.766 209.73 135.75 209.762 135.639 209.445C135.528 209.128 135.639 208.051 136.146 208.051C136.224 208.358 136.24 208.676 136.194 208.989C136.147 209.302 136.04 209.602 135.877 209.873V209.841ZM146.884 163.102C146.867 163.044 146.836 162.99 146.796 162.945C146.755 162.9 146.704 162.865 146.648 162.841C146.592 162.818 146.531 162.807 146.47 162.81C146.409 162.813 146.35 162.83 146.296 162.858C146.243 162.887 146.196 162.927 146.16 162.976C146.123 163.025 146.098 163.081 146.086 163.141C146.074 163.201 146.076 163.262 146.091 163.321C146.105 163.38 146.133 163.435 146.172 163.483C146.33 163.736 146.488 163.989 146.663 164.243C146.687 164.297 146.722 164.346 146.767 164.386C146.812 164.425 146.865 164.455 146.922 164.472C146.979 164.489 147.039 164.493 147.099 164.485C147.158 164.476 147.214 164.455 147.264 164.422C147.314 164.389 147.357 164.346 147.388 164.296C147.42 164.245 147.44 164.188 147.448 164.129C147.456 164.07 147.45 164.01 147.432 163.953C147.414 163.896 147.384 163.843 147.344 163.799C147.264 163.578 147.027 163.34 146.884 163.102ZM127.15 129.462C127.245 128.718 128.116 124.932 127.783 124.853C127.765 124.846 127.745 124.842 127.725 124.843C127.705 124.844 127.685 124.849 127.667 124.858C127.649 124.867 127.633 124.88 127.621 124.895C127.608 124.911 127.599 124.929 127.593 124.948C127.144 126.054 126.799 127.199 126.564 128.369C126.474 128.781 126.416 129.199 126.39 129.62C126.392 129.685 126.41 129.748 126.444 129.803C126.477 129.859 126.524 129.905 126.58 129.937C126.977 130.14 127.405 130.274 127.847 130.333C128.195 130.333 129.431 130.428 129.288 130.095C129.145 129.763 128.955 130.365 127.15 129.462ZM134.261 127.165V126.342C134.261 125.772 133.469 125.692 133.453 126.342V127.245C133.449 127.304 133.458 127.364 133.479 127.421C133.5 127.477 133.534 127.527 133.577 127.569C133.62 127.611 133.671 127.643 133.728 127.663C133.784 127.683 133.845 127.69 133.904 127.684C133.964 127.679 134.022 127.66 134.073 127.629C134.125 127.599 134.169 127.557 134.203 127.508C134.237 127.458 134.26 127.402 134.27 127.343C134.28 127.284 134.277 127.223 134.261 127.165ZM135.307 131.537C134.8 133.437 134.119 133.722 133.295 133.817C133.126 133.831 132.957 133.831 132.788 133.817C132.75 133.805 132.709 133.808 132.674 133.826C132.638 133.843 132.611 133.875 132.598 133.912C132.586 133.95 132.589 133.992 132.606 134.027C132.624 134.063 132.655 134.09 132.693 134.103C134.071 134.894 135.956 133.928 135.607 131.537C135.597 131.505 135.577 131.477 135.55 131.458C135.523 131.438 135.49 131.428 135.457 131.428C135.424 131.428 135.391 131.438 135.364 131.458C135.337 131.477 135.317 131.505 135.307 131.537ZM141.262 151.335C141.252 151.283 141.233 151.233 141.204 151.188C141.176 151.144 141.139 151.106 141.095 151.075C141.052 151.045 141.003 151.024 140.951 151.013C140.9 151.002 140.846 151.001 140.794 151.01C140.742 151.019 140.693 151.039 140.648 151.067C140.604 151.096 140.566 151.133 140.535 151.176C140.505 151.22 140.484 151.269 140.473 151.32C140.461 151.372 140.46 151.425 140.47 151.477C140.538 151.772 140.622 152.063 140.723 152.348C140.728 152.409 140.746 152.468 140.777 152.521C140.807 152.574 140.849 152.619 140.899 152.654C140.949 152.689 141.006 152.712 141.066 152.722C141.127 152.732 141.188 152.729 141.247 152.712C141.306 152.695 141.36 152.666 141.406 152.625C141.451 152.585 141.488 152.535 141.512 152.479C141.536 152.423 141.547 152.362 141.545 152.301C141.543 152.24 141.527 152.181 141.499 152.127C141.404 151.857 141.325 151.588 141.262 151.335ZM125.677 124.805C125.689 124.746 125.687 124.684 125.672 124.625C125.658 124.566 125.63 124.511 125.591 124.464C125.553 124.417 125.504 124.379 125.449 124.353C125.394 124.327 125.334 124.313 125.273 124.313C125.212 124.313 125.152 124.327 125.097 124.353C125.042 124.379 124.993 124.417 124.955 124.464C124.916 124.511 124.888 124.566 124.874 124.625C124.859 124.684 124.857 124.746 124.869 124.805V125.708C124.857 125.768 124.859 125.83 124.874 125.889C124.888 125.948 124.916 126.003 124.955 126.05C124.993 126.097 125.042 126.135 125.097 126.161C125.152 126.187 125.212 126.2 125.273 126.2C125.334 126.2 125.394 126.187 125.449 126.161C125.504 126.135 125.553 126.097 125.591 126.05C125.63 126.003 125.658 125.948 125.672 125.889C125.687 125.83 125.689 125.768 125.677 125.708C125.658 125.408 125.658 125.106 125.677 124.805ZM250.878 191.152C250.783 191.168 250.878 191.152 250.878 191.152V191.152Z" fill="#3AAFA9"/>
<path fill-rule="evenodd" clip-rule="evenodd" d="M258.782 190.138C257.024 189.283 252.842 189.996 250.863 190.408C250.135 189.595 249.218 188.976 248.192 188.606C247.167 188.235 246.065 188.125 244.986 188.285C243.213 188.729 242.785 190.914 242.864 192.752C241.724 192.546 240.488 192.403 239.348 192.292C239.443 191.944 239.744 191.453 239.649 191.104C239.598 190.98 239.52 190.868 239.421 190.777C239.323 190.685 239.206 190.616 239.078 190.574C238.95 190.532 238.814 190.518 238.681 190.533C238.547 190.548 238.418 190.592 238.303 190.661C237.987 190.913 237.695 191.194 237.432 191.5C237.432 190.946 237.891 190.059 237.337 189.917C236.782 189.774 235.056 191.326 234.565 191.881C230.928 191.48 227.258 191.48 223.621 191.881C218.859 192.222 214.371 194.236 210.95 197.567C230.209 175.393 238.667 160.156 238.445 141.166C238.224 122.176 215.654 113.117 206.373 112.879C197.361 112.657 188.064 117.631 187.589 117.631C179.448 119.215 158.098 116.855 153.615 118.724C153.67 116.717 153.311 114.72 152.558 112.859C151.806 110.997 150.678 109.311 149.244 107.906C146.678 105.103 142.576 104.057 138.411 104.232C132.471 104.501 126.58 106.987 123.634 112.151C122.657 113.823 122.082 115.699 121.955 117.631C121.955 118.122 120.941 126.199 123.539 132.313C124.124 133.861 125.062 135.252 126.276 136.376C127.491 137.5 128.95 138.326 130.539 138.791C127.979 142.185 125.63 145.734 123.507 149.418C123.016 150.448 123.38 151.002 124.093 151.002C124.806 151.002 125.756 150.812 126.421 150.844C125.376 153.71 122.715 161.186 122.066 164.148C118.809 166.341 115.877 168.98 113.355 171.988C108.603 177.436 106.386 183.344 101.001 186.496L99.4169 187.383C101.571 180.841 105.641 167.854 104.168 167.838C102.695 167.822 99.116 180.319 96.8353 188.792C94.3961 190.138 93.1608 190.994 92.3055 193.654C92.0267 194.327 91.8831 195.048 91.8831 195.777C91.8831 196.505 92.0267 197.226 92.3055 197.899C92.4071 198.115 92.5624 198.301 92.7565 198.44C92.9506 198.578 93.177 198.665 93.4142 198.691C93.6042 198.691 93.6042 198.517 93.0816 199.673C92.8325 199.745 92.597 199.857 92.3847 200.006L84.7665 195.365C84.5923 195.365 86.7779 195.064 40.4193 201.098C39.5482 200.449 38.6296 199.768 37.6793 199.024C14.9038 181.301 89.2804 162.279 95.2356 138.062C100.573 116.379 69.8943 112.008 76.7048 91.6401C83.5152 71.2721 128.052 76.9739 169.976 74.5348C211.9 72.0957 228.578 29.7758 198.058 7.7289C167.537 -14.318 136.178 16.9943 128.765 24.9926C121.353 32.991 112.8 43.4601 88.7894 42.4147C64.7786 41.3694 33.3554 45.4398 21.841 80.2524C16.2976 96.9143 21.2708 108.603 28.6673 117.868C31.1446 115.348 34.2084 113.481 37.5842 112.436C39.5482 111.961 41.4963 112.214 42.0506 114.162C43.096 117.742 38.7563 123.301 36.238 126.073C42.5733 132.186 48.6552 137.349 51.0468 142.687C55.038 151.651 35.9054 158.288 27.8279 163.53C19.7503 168.773 7.41231 184.991 14.983 200.734C15.5517 201.94 16.1862 203.114 16.8836 204.25C0.82359 206.325 0.26925 206.325 0.110867 206.42C-0.0475153 206.515 -4.83818e-07 206.8 0.110867 206.959H0C1.42545 208.542 43.381 268.506 69.1341 298.979L69.5934 299.074C75.1685 296.397 176.343 247.283 170.958 244.258C170.958 244.258 96.9936 202.967 95.2356 201.922C95.5105 201.45 95.7488 200.958 95.9483 200.449C96.0359 200.442 96.1184 200.406 96.1819 200.345C96.2455 200.284 96.286 200.204 96.2967 200.116V199.261C97.2787 199.594 98.815 198.644 99.6069 197.931C101.191 196.474 103.567 192.419 105.325 191.881C108.831 191.007 112.288 189.95 115.683 188.713C129.795 183.423 135.655 177.499 141.8 167.933C142.816 166.439 143.68 164.847 144.382 163.182C147.968 167.055 152.328 170.131 157.179 172.209C144.382 186.987 146.393 196.363 151.018 201.479C155.247 206.151 162.105 204.504 163.229 204.155C163.229 211.187 165.605 226.804 166.397 228.372C166.809 229.275 165.431 229.956 165.146 231.746C164.996 232.655 165.114 233.588 165.485 234.432C165.856 235.276 166.465 235.993 167.236 236.497C168.994 237.606 171.988 237.669 170.816 235.911C170.425 235.409 169.984 234.947 169.501 234.533C169.961 234.676 170.467 234.866 171.085 235.087C176.866 237.352 177.626 238.382 178.687 238.081C178.83 238.048 178.963 237.984 179.078 237.893C179.193 237.803 179.287 237.689 179.353 237.558C179.479 237.646 179.623 237.705 179.774 237.734C179.925 237.762 180.08 237.758 180.23 237.722C180.379 237.686 180.519 237.619 180.641 237.526C180.763 237.432 180.864 237.313 180.936 237.178C180.991 237.076 181.019 236.961 181.019 236.845C181.019 236.73 180.991 236.615 180.936 236.513C181.137 236.175 181.205 235.774 181.127 235.388C181.127 233.963 175.678 229.306 174.57 228.388C174.728 226.804 175.567 223.288 177.658 213.943C188.46 226.123 224.777 209.192 226.757 208.337C227.089 208.685 240.504 202.967 242.056 202.144C241.898 202.144 259.067 194.383 259.716 191.532C259.716 190.867 259.288 190.439 258.782 190.138ZM197.519 46.7386C197.781 46.7469 198.029 46.8578 198.21 47.0475C198.391 47.2371 198.49 47.4903 198.485 47.7522C198.49 47.8825 198.468 48.0123 198.421 48.1341C198.375 48.2559 198.305 48.3672 198.215 48.4615C198.125 48.5559 198.017 48.6314 197.898 48.6836C197.778 48.7359 197.65 48.7638 197.519 48.7659C197.388 48.7638 197.259 48.736 197.139 48.6839C197.018 48.6318 196.909 48.5566 196.818 48.4625C196.727 48.3683 196.655 48.2572 196.607 48.1353C196.559 48.0134 196.535 47.8833 196.537 47.7522C196.535 47.6212 196.559 47.491 196.607 47.3692C196.655 47.2473 196.727 47.1361 196.818 47.042C196.909 46.9479 197.018 46.8726 197.139 46.8206C197.259 46.7685 197.388 46.7406 197.519 46.7386ZM188.571 19.0849C188.699 19.0849 188.826 19.1104 188.944 19.16C189.062 19.2095 189.169 19.2821 189.259 19.3735C189.349 19.4649 189.42 19.5733 189.468 19.6923C189.515 19.8114 189.539 19.9387 189.537 20.0669C189.554 20.2031 189.543 20.3414 189.502 20.4727C189.462 20.604 189.395 20.7253 189.304 20.8284C189.213 20.9315 189.102 21.0141 188.977 21.0707C188.851 21.1272 188.716 21.1565 188.578 21.1565C188.441 21.1565 188.305 21.1272 188.18 21.0707C188.055 21.0141 187.944 20.9315 187.853 20.8284C187.762 20.7253 187.695 20.604 187.655 20.4727C187.614 20.3414 187.603 20.2031 187.62 20.0669C187.618 19.94 187.641 19.814 187.688 19.696C187.734 19.5779 187.804 19.4703 187.892 19.3791C187.98 19.2879 188.086 19.215 188.202 19.1645C188.318 19.114 188.444 19.087 188.571 19.0849ZM158.795 62.7828C158.681 62.7622 158.579 62.7026 158.505 62.6143C158.432 62.526 158.391 62.4147 158.391 62.2997C158.391 62.1847 158.432 62.0734 158.505 61.9851C158.579 61.8968 158.681 61.8372 158.795 61.8166C158.927 61.8166 159.054 61.8692 159.147 61.9627C159.241 62.0563 159.293 62.1832 159.293 62.3155C159.293 62.4478 159.241 62.5747 159.147 62.6683C159.054 62.7619 158.927 62.8144 158.795 62.8144V62.7828ZM154.487 19.275C154.487 18.6415 156.07 18.3247 156.767 18.2297C157.918 18.0776 159.085 18.0776 160.236 18.2297C160.95 16.9196 161.828 15.7061 162.849 14.6185C163.182 14.3493 163.483 14.2543 163.784 14.6185C164.5 16.065 164.96 17.6242 165.146 19.2275C167.601 19.861 171.022 21.0331 168.963 22.506C168.329 22.9653 167.205 23.4405 165.985 24.0898C166.122 25.3679 166.164 26.6543 166.112 27.9385C166.112 28.5246 165.954 29.4115 165.367 29.5224C164.18 29.7283 163.261 28.0811 161.392 26.4656C159.602 27.3525 156.023 29.3165 155.944 27.4317C156.138 25.8242 156.615 24.2637 157.353 22.8228C155.532 21.0964 154.376 20.257 154.487 19.3067V19.275ZM152.903 48.4016C152.899 49.5071 152.611 50.593 152.065 51.5545C151.519 52.516 150.735 53.3205 149.788 53.8905C148.84 54.4605 147.762 54.7766 146.657 54.8083C145.552 54.8401 144.457 54.5864 143.479 54.0717L152.697 46.7544C152.838 47.303 152.913 47.8667 152.919 48.4333L152.903 48.4016ZM152.507 46.1684C149.973 48.1165 146.567 50.9199 143.162 53.8816C142.906 53.7272 142.662 53.5524 142.434 53.359C145.744 50.0171 148.991 46.2476 151.002 43.856C151.664 44.5247 152.182 45.3227 152.523 46.2001L152.507 46.1684ZM150.654 43.5234C150.02 44.2045 144.508 50.4131 142.133 53.0264C141.456 52.4054 140.917 51.6502 140.549 50.809C142.956 49.0668 146.235 46.6435 149.878 43.7768L150.448 43.3175L150.654 43.5234ZM146.488 41.9396C147.759 41.9383 149 42.319 150.052 43.0324L147.819 44.6162C147.312 44.9964 143.463 48.0215 140.422 50.3972C140.1 49.4319 140.01 48.4039 140.161 47.3974C140.312 46.3908 140.699 45.4343 141.291 44.6062C141.883 43.7781 142.662 43.1019 143.566 42.6329C144.469 42.1639 145.47 41.9154 146.488 41.9079V41.9396ZM131.22 39.3421C131.412 39.3358 131.602 39.3871 131.765 39.4893C131.928 39.5916 132.057 39.7401 132.135 39.916C132.213 40.0919 132.237 40.2871 132.203 40.4765C132.169 40.666 132.08 40.8411 131.946 40.9794C131.812 41.1177 131.64 41.2129 131.452 41.2528C131.264 41.2928 131.068 41.2756 130.89 41.2035C130.711 41.1314 130.559 41.0076 130.451 40.8481C130.343 40.6886 130.286 40.5006 130.286 40.3082C130.302 40.0673 130.409 39.8416 130.585 39.6769C130.762 39.5121 130.995 39.4208 131.236 39.4213L131.22 39.3421ZM122.493 63.3213C122.863 63.3337 123.221 63.4547 123.523 63.6692C123.824 63.8837 124.056 64.1823 124.189 64.5276C124.322 64.8729 124.35 65.2497 124.27 65.611C124.191 65.9724 124.006 66.3022 123.74 66.5595C123.474 66.8168 123.139 66.9901 122.775 67.0579C122.411 67.1256 122.035 67.0848 121.695 66.9404C121.354 66.7961 121.063 66.5547 120.859 66.2462C120.654 65.9378 120.545 65.576 120.545 65.206C120.558 64.6991 120.769 64.2173 121.133 63.8647C121.498 63.5121 121.986 63.317 122.493 63.3213ZM97.8489 58.8549C98.5299 58.8549 98.5299 60.0744 97.8489 60.0744C97.1678 60.0744 97.152 58.8549 97.8489 58.8549ZM33.4346 93.8733C33.3595 93.8865 33.2823 93.8831 33.2086 93.8634C33.1349 93.8436 33.0664 93.808 33.008 93.7589C32.9495 93.7098 32.9025 93.6486 32.8703 93.5794C32.838 93.5103 32.8213 93.4349 32.8213 93.3586C32.8213 93.2822 32.838 93.2069 32.8703 93.1377C32.9025 93.0685 32.9495 93.0073 33.008 92.9582C33.0664 92.9092 33.1349 92.8735 33.2086 92.8537C33.2823 92.834 33.3595 92.8306 33.4346 92.8438C33.5098 92.8306 33.5869 92.834 33.6606 92.8537C33.7343 92.8735 33.8028 92.9092 33.8613 92.9582C33.9197 93.0073 33.9667 93.0685 33.999 93.1377C34.0312 93.2069 34.0479 93.2822 34.0479 93.3586C34.0479 93.4349 34.0312 93.5103 33.999 93.5794C33.9667 93.6486 33.9197 93.7098 33.8613 93.7589C33.8028 93.808 33.7343 93.8436 33.6606 93.8634C33.5869 93.8831 33.5098 93.8865 33.4346 93.8733ZM67.4869 156.054C67.2741 156.03 67.0729 155.944 66.9077 155.808C66.7425 155.671 66.6204 155.49 66.5561 155.286C66.4918 155.081 66.4881 154.863 66.5454 154.656C66.6027 154.45 66.7186 154.265 66.8791 154.123C67.0395 153.981 67.2377 153.888 67.4496 153.857C67.6614 153.825 67.878 153.855 68.0729 153.944C68.2679 154.033 68.433 154.176 68.5483 154.357C68.6635 154.537 68.724 154.747 68.7223 154.962C68.7019 155.27 68.5607 155.557 68.3294 155.762C68.098 155.967 67.7953 156.072 67.4869 156.054ZM71.2406 50.128C71.4574 50.1248 71.6702 50.1862 71.852 50.3044C72.0338 50.4226 72.1763 50.5921 72.2615 50.7915C72.3466 50.9909 72.3705 51.2111 72.3302 51.4241C72.2898 51.6372 72.187 51.8334 72.0348 51.9878C71.8826 52.1422 71.6879 52.2479 71.4755 52.2914C71.2631 52.3348 71.0426 52.3141 70.8419 52.2319C70.6413 52.1497 70.4697 52.0096 70.3489 51.8296C70.2281 51.6495 70.1636 51.4376 70.1636 51.2208C70.1636 50.9337 70.2765 50.6581 70.478 50.4536C70.6796 50.2491 70.9535 50.1321 71.2406 50.128ZM72.1592 107.003C72.1577 107.158 72.1119 107.309 72.0271 107.438C71.9423 107.568 71.8221 107.67 71.6809 107.733C71.5396 107.796 71.3832 107.817 71.2303 107.794C71.0773 107.771 70.9343 107.704 70.8181 107.602C70.7019 107.5 70.6175 107.367 70.5749 107.218C70.5324 107.069 70.5334 106.911 70.5779 106.763C70.6224 106.615 70.7085 106.483 70.826 106.382C70.9434 106.282 71.0873 106.217 71.2406 106.195C71.3519 106.187 71.4638 106.201 71.5692 106.238C71.6746 106.274 71.7713 106.333 71.8532 106.408C71.935 106.484 72.0002 106.576 72.0447 106.679C72.0892 106.781 72.112 106.892 72.1117 107.003H72.1592ZM72.5235 130.396C73.4738 129.652 76.2772 127.34 77.1166 128.068C77.956 128.797 77.2274 130.333 77.1166 132.519C78.8746 133.358 82.5174 134.958 81.092 135.971C79.6961 136.654 78.1981 137.103 76.6573 137.302C76.388 139.598 76.4039 140.77 75.6278 141.166C75.0893 141.42 73.9014 140.454 73.4579 140.042C72.6059 139.315 71.8595 138.473 71.2406 137.539C69.794 137.714 68.3316 137.714 66.8851 137.539C66.5049 137.444 66.2198 137.27 66.299 136.89C66.4733 136.019 68.4372 134.166 69.0866 133.548C68.6748 132.645 67.7086 130.381 68.0412 129.478C68.5164 128.227 70.5595 129.604 72.476 130.396H72.5235ZM67.376 79.3654C67.7086 79.3654 67.8829 79.603 67.8354 80.0148C67.5038 81.1901 67.0023 82.3107 66.3465 83.3408C67.0257 84.052 67.6063 84.851 68.0729 85.7166C69.6568 88.7734 67.4552 87.9973 64.1925 87.3004C63.4232 88.4442 62.4453 89.4329 61.31 90.2147C59.837 90.9432 59.5044 87.8389 59.251 86.0809C57.0178 85.4949 55.2439 85.574 54.7846 84.6713C54.3253 83.7685 57.7464 82.3905 58.7283 81.9471C58.6175 80.3632 57.9364 78.2409 59.2985 78.3043C60.6789 78.7214 61.9463 79.4471 63.0047 80.4266C64.3964 79.8437 65.8719 79.4856 67.376 79.3654ZM47.1981 123.618C47.0215 123.646 46.8407 123.636 46.6684 123.588C46.4961 123.54 46.3363 123.455 46.2001 123.339C46.0639 123.223 45.9544 123.079 45.8794 122.916C45.8044 122.754 45.7655 122.577 45.7655 122.398C45.7655 122.219 45.8044 122.042 45.8794 121.88C45.9544 121.718 46.0639 121.573 46.2001 121.457C46.3363 121.341 46.4961 121.256 46.6684 121.208C46.8407 121.16 47.0215 121.15 47.1981 121.178C47.3747 121.15 47.5554 121.16 47.7277 121.208C47.9 121.256 48.0598 121.341 48.1961 121.457C48.3323 121.573 48.4417 121.718 48.5168 121.88C48.5918 122.042 48.6306 122.219 48.6306 122.398C48.6306 122.577 48.5918 122.754 48.5168 122.916C48.4417 123.079 48.3323 123.223 48.1961 123.339C48.0598 123.455 47.9 123.54 47.7277 123.588C47.5554 123.636 47.3747 123.646 47.1981 123.618ZM38.2653 75.7701C38.2069 75.7557 38.1551 75.7221 38.118 75.6747C38.081 75.6273 38.0609 75.5689 38.0609 75.5088C38.0609 75.4487 38.081 75.3903 38.118 75.3429C38.1551 75.2956 38.2069 75.262 38.2653 75.2475C41.7339 75.0099 45.6776 74.899 49.1462 74.899C46.2554 72.8715 43.1607 71.1517 39.9125 69.7674C39.8437 69.7463 39.7854 69.6999 39.7494 69.6376C39.7134 69.5752 39.7023 69.5016 39.7183 69.4314C39.7344 69.3612 39.7764 69.2997 39.8359 69.2592C39.8954 69.2187 39.968 69.2023 40.0392 69.2131C43.6394 69.2515 47.1809 70.1301 50.3816 71.7789C48.2763 69.681 46.0499 67.7084 43.7136 65.8712C43.6636 65.8307 43.6297 65.7735 43.6182 65.7102C43.6067 65.6468 43.6183 65.5814 43.6508 65.5258C43.6834 65.4703 43.7348 65.4282 43.7957 65.4073C43.8567 65.3864 43.9231 65.388 43.9829 65.4119C47.9752 66.6993 51.723 68.6481 55.0697 71.177C58.3734 73.5979 61.2391 76.5654 63.5432 79.9515C63.5432 80.094 63.4006 80.2049 63.3056 80.0623C61.003 76.6982 58.1427 73.7521 54.848 71.3513C51.913 69.1987 48.6796 67.4859 45.25 66.2672C46.4062 67.2016 51.0943 71.0187 51.712 72.4283C51.8387 72.6817 51.5219 72.9193 51.2527 72.7609C49.5612 71.8188 47.7643 71.0798 45.8993 70.5594C44.4459 70.1246 42.9472 69.8589 41.4329 69.7674C43.2543 70.6385 48.9086 73.4102 50.0648 75.0574C50.0944 75.1015 50.1111 75.153 50.113 75.206C50.1149 75.2591 50.102 75.3116 50.0756 75.3577C50.0493 75.4038 50.0106 75.4417 49.9639 75.467C49.9172 75.4922 49.8644 75.504 49.8114 75.5009C49.6372 75.5009 45.2658 75.5009 40.6252 75.6593C46.1052 76.7046 53.2958 78.7161 57.8731 81.9946C57.9998 82.0896 57.8731 82.2797 57.7147 82.1847C52.7415 78.7161 44.1413 76.5621 38.2653 75.7701ZM127.942 108.476C133.342 104.406 144.049 103.329 148.737 108.476C150.118 109.822 151.203 111.442 151.923 113.23C152.643 115.019 152.982 116.939 152.919 118.866C152.549 122.359 151.048 125.635 148.642 128.195C148.357 128.48 148.357 128.195 148.452 128.052C148.725 127.661 148.905 127.213 148.98 126.742C149.056 126.271 149.023 125.789 148.886 125.332C148.749 124.876 148.511 124.456 148.189 124.104C147.867 123.752 147.47 123.478 147.027 123.301C144.033 121.939 143.131 126.959 140.945 127.577C139.044 128.132 139.757 123.697 139.9 120.735C140.099 119.433 139.799 118.104 139.06 117.013C137.745 115.601 136.118 114.517 134.309 113.845C131.137 112.568 127.693 112.116 124.299 112.531C125.225 110.946 126.465 109.567 127.942 108.476ZM124.188 132.091C121.575 125.914 122.715 117.71 122.715 117.71C122.843 116.044 123.323 114.424 124.125 112.958C127.547 112.611 131.002 113.156 134.15 114.542C135.863 115.184 137.407 116.207 138.664 117.536C140.248 119.626 138.664 123.618 139.171 126.738C139.361 127.957 139.931 128.733 141.119 128.322C143.574 127.625 144.398 122.968 146.758 124.045C149.117 125.122 148.69 128.211 145.902 129.383C144.825 129.842 144.92 130.872 145.744 130.967C146.171 130.967 147.011 130.729 148.294 129.699C150.173 127.863 151.65 125.658 152.633 123.222C154.836 123.687 156.966 124.443 158.969 125.471C161.788 126.754 165.114 128.543 167.743 130.08C163.736 131.035 160.084 133.11 157.212 136.063C154.34 139.016 152.368 142.725 151.525 146.757C150.923 146.757 150.97 145.902 150.559 145.585C150.147 145.269 149.893 145.585 149.402 145.744C149.412 145.354 149.325 144.967 149.149 144.619C149.149 143.701 147.644 144.239 146.773 144.524C146.784 144.131 146.725 143.74 146.599 143.368C146.963 142.196 144.841 142.782 143.653 143.115C143.743 142.665 143.743 142.202 143.653 141.752C143.764 140.834 141.753 141.42 140.913 141.752C140.985 141.223 140.953 140.685 140.818 140.169C140.375 139.551 138.031 140.85 137.936 140.264C137.944 139.829 138.029 139.4 138.189 138.997C138.458 138.03 137.144 138.632 136.764 138.569C136.749 138.577 136.733 138.582 136.716 138.582C136.699 138.582 136.683 138.577 136.669 138.569V138.379C137.993 138.016 139.265 137.483 140.454 136.795C141.058 137.685 141.964 138.327 143.004 138.601C143.949 138.882 144.955 138.885 145.901 138.608C146.847 138.331 147.693 137.787 148.337 137.041C148.981 136.294 149.396 135.378 149.532 134.402C149.667 133.425 149.518 132.43 149.102 131.537C149.102 131.363 148.753 131.537 148.832 131.648C149.037 132.254 149.118 132.896 149.068 133.535C149.019 134.174 148.841 134.796 148.545 135.364C148.249 135.932 147.842 136.434 147.347 136.841C146.852 137.247 146.279 137.55 145.665 137.729L141.832 135.37C141.689 135.275 141.705 135.37 140.866 135.908C140.339 134.868 140.198 133.676 140.467 132.542C140.737 131.408 141.4 130.406 142.339 129.715C143.445 128.973 144.761 128.607 146.092 128.67C146.124 128.66 146.152 128.639 146.171 128.612C146.191 128.585 146.201 128.553 146.201 128.52C146.201 128.486 146.191 128.454 146.171 128.427C146.152 128.4 146.124 128.379 146.092 128.369C144.666 128.197 143.223 128.503 141.99 129.24C140.871 129.984 140.068 131.117 139.737 132.419C139.406 133.722 139.571 135.101 140.2 136.288C137.393 137.886 134.172 138.608 130.951 138.363C129.407 137.929 127.988 137.134 126.812 136.044C125.636 134.953 124.737 133.598 124.188 132.091ZM148.848 146.155C149.264 146.066 149.668 145.928 150.052 145.744C150.749 145.49 150.559 146.884 151.446 146.9C151.287 147.644 151.192 148.23 151.145 148.595C150.4 148.325 149.703 148.024 149.007 147.739C149.037 147.206 148.984 146.672 148.848 146.155ZM148.848 145.807C148.848 145.807 148.848 145.728 149.007 145.189C149.046 145.389 149.127 145.578 149.244 145.744L148.848 145.791V145.807ZM148.69 146.108C148.609 146.633 148.609 147.167 148.69 147.692C147.581 147.232 146.552 146.757 145.522 146.282C145.521 145.983 145.462 145.687 145.348 145.411C146.076 145.411 148.516 144.239 148.626 144.587C148.737 144.936 148.167 145.791 148.69 146.108ZM145.19 145.3C145.186 145.547 145.224 145.794 145.3 146.029C144.889 145.839 143.194 144.983 142.766 144.762C142.759 144.423 142.705 144.088 142.608 143.764C143.557 143.633 144.495 143.426 145.411 143.146C145.522 143.146 146.235 143.051 146.171 143.146C146.108 143.605 144.493 144.936 145.19 145.3ZM142.418 144.572C141.61 144.144 140.834 143.732 140.232 143.352C140.243 143.016 140.183 142.682 140.058 142.37C140.313 142.414 140.576 142.369 140.802 142.243C141.53 141.912 142.315 141.724 143.115 141.689C142.78 142.075 142.492 142.501 142.259 142.956C142.197 143.5 142.251 144.051 142.418 144.572ZM139.868 143.146L138.11 142.085C138.146 141.616 138.097 141.144 137.967 140.691C138.474 140.802 139.789 140.279 140.391 140.327C140.104 140.715 139.845 141.123 139.614 141.547C139.614 142.09 139.7 142.63 139.868 143.146ZM140.549 140.85C140.509 141.165 140.509 141.484 140.549 141.8C140.438 141.8 140.074 141.974 140.042 141.8C140.01 141.626 140.359 141.04 140.549 140.85ZM143.336 142.212C143.327 142.522 143.364 142.831 143.447 143.13C143.204 143.22 142.947 143.268 142.687 143.273C142.687 143.273 142.624 143.051 143.336 142.212ZM146.377 143.796C146.398 144.056 146.457 144.312 146.552 144.556C146.236 144.676 145.913 144.776 145.585 144.857C145.776 144.572 146.029 144.207 146.377 143.78V143.796ZM137.65 140.501C137.643 140.977 137.701 141.451 137.825 141.911C137.555 141.746 137.291 141.571 137.033 141.388L136.669 138.727C137.064 138.727 137.888 138.49 137.888 138.727C137.888 138.965 137.223 140.01 137.65 140.485V140.501ZM141.04 136.225C141.262 136.082 141.499 135.908 141.721 135.734L145.205 137.872C144.432 138.028 143.631 137.962 142.894 137.681C142.157 137.401 141.514 136.918 141.04 136.288V136.225ZM124.077 150.289C123.697 150.178 125.883 146.789 126.136 146.393C126.912 145.142 130.666 139.345 130.983 138.87C132.291 138.947 133.605 138.867 134.895 138.632C135.148 148.009 136.843 151.905 138.902 155.563C137.841 155.231 136.764 155.722 135.829 155.389C134.514 154.946 134.562 153.045 132.661 152.934C131.42 153.081 130.225 153.497 129.161 154.154C128.734 154.328 128.639 154.154 128.528 153.964C128.371 152.893 128.138 151.834 127.831 150.796C127.102 149.545 124.821 150.543 124.077 150.289ZM84.5923 195.777L92.0679 200.291C91.6324 200.702 91.1606 201.073 90.6583 201.399C89.4388 202.049 88.1717 201.558 88.1559 202.524C81.3296 205.137 71.0505 217.19 83.8637 228.198C100.24 242.246 118.882 247.853 101.539 261.252C96.7877 264.974 91.8937 264.42 86.2394 260.761C80.0308 256.691 80.0942 238.762 74.139 227.691C64.2401 209.271 60.1538 215.48 41.0211 201.637L84.5923 195.777ZM106.592 262.298C106.571 262.298 106.55 262.293 106.531 262.285C106.512 262.278 106.494 262.266 106.48 262.251C106.465 262.236 106.453 262.219 106.445 262.2C106.437 262.181 106.433 262.16 106.433 262.139C106.433 262.118 106.437 262.098 106.445 262.079C106.453 262.059 106.465 262.042 106.48 262.027C106.494 262.012 106.512 262.001 106.531 261.993C106.55 261.985 106.571 261.981 106.592 261.981C106.623 261.991 106.651 262.011 106.67 262.038C106.69 262.065 106.701 262.098 106.701 262.131C106.701 262.165 106.69 262.197 106.67 262.224C106.651 262.251 106.623 262.271 106.592 262.282V262.298ZM98.4824 267.049C98.4161 267.062 98.3478 267.059 98.2824 267.042C98.2171 267.025 98.1562 266.994 98.1043 266.951C98.0523 266.908 98.0105 266.854 97.9818 266.793C97.9531 266.732 97.9382 266.665 97.9382 266.598C97.9382 266.53 97.9531 266.463 97.9818 266.402C98.0105 266.341 98.0523 266.287 98.1043 266.244C98.1562 266.201 98.2171 266.17 98.2824 266.153C98.3478 266.136 98.4161 266.134 98.4824 266.146C98.6105 266.146 98.7334 266.197 98.824 266.288C98.9146 266.378 98.9655 266.501 98.9655 266.629C98.9655 266.757 98.9146 266.88 98.824 266.971C98.7334 267.061 98.6105 267.112 98.4824 267.112V267.049ZM78.0827 265.94C78.245 265.47 78.486 265.031 78.7954 264.642C78.0827 263.66 77.6551 263.169 78.8905 263.232C79.2524 263.259 79.6093 263.333 79.9516 263.454C81.2187 262.06 81.4404 262.155 81.3929 264.056C81.7097 264.214 82.4541 264.594 82.5966 264.911C82.7392 265.228 81.9314 265.418 81.3612 265.592C81.3612 265.972 81.2187 267.176 80.8544 267.176C80.4901 267.176 80.2842 266.59 79.8091 265.988C79.1597 266.162 78.0035 266.574 78.0827 266.004V265.94ZM77.8768 245.762C77.8105 245.775 77.7422 245.773 77.6768 245.756C77.6115 245.739 77.5506 245.708 77.4987 245.665C77.4467 245.621 77.4049 245.567 77.3762 245.506C77.3475 245.445 77.3326 245.379 77.3326 245.311C77.3326 245.243 77.3475 245.177 77.3762 245.116C77.4049 245.055 77.4467 245.001 77.4987 244.957C77.5506 244.914 77.6115 244.883 77.6768 244.866C77.7422 244.849 77.8105 244.847 77.8768 244.86C78.0049 244.86 78.1278 244.911 78.2184 245.001C78.309 245.092 78.3599 245.215 78.3599 245.343C78.3599 245.471 78.309 245.594 78.2184 245.684C78.1278 245.775 78.0049 245.826 77.8768 245.826V245.762ZM58.7442 222.797C58.6778 222.809 58.6095 222.807 58.5442 222.79C58.4788 222.773 58.418 222.742 58.366 222.699C58.3141 222.656 58.2722 222.602 58.2435 222.541C58.2148 222.48 58.1999 222.413 58.1999 222.346C58.1999 222.278 58.2148 222.211 58.2435 222.15C58.2722 222.089 58.3141 222.035 58.366 221.992C58.418 221.949 58.4788 221.918 58.5442 221.901C58.6095 221.884 58.6778 221.882 58.7442 221.894C58.8105 221.882 58.8788 221.884 58.9442 221.901C59.0095 221.918 59.0704 221.949 59.1223 221.992C59.1743 222.035 59.2161 222.089 59.2448 222.15C59.2735 222.211 59.2884 222.278 59.2884 222.346C59.2884 222.413 59.2735 222.48 59.2448 222.541C59.2161 222.602 59.1743 222.656 59.1223 222.699C59.0704 222.742 59.0095 222.773 58.9442 222.79C58.8788 222.807 58.8105 222.809 58.7442 222.797ZM52.4089 212.914C52.3425 212.926 52.2742 212.924 52.2089 212.907C52.1435 212.89 52.0827 212.859 52.0307 212.816C51.9788 212.773 51.9369 212.719 51.9082 212.658C51.8795 212.597 51.8646 212.53 51.8646 212.462C51.8646 212.395 51.8795 212.328 51.9082 212.267C51.9369 212.206 51.9788 212.152 52.0307 212.109C52.0827 212.066 52.1435 212.035 52.2089 212.018C52.2742 212.001 52.3425 211.999 52.4089 212.011C52.4743 211.996 52.5423 211.995 52.6081 212.009C52.6739 212.022 52.7359 212.05 52.7897 212.091C52.8434 212.131 52.8877 212.183 52.9193 212.242C52.951 212.301 52.9692 212.367 52.9727 212.434C52.9763 212.501 52.965 212.568 52.9398 212.631C52.9146 212.693 52.8759 212.749 52.8267 212.795C52.7775 212.84 52.7188 212.875 52.6548 212.895C52.5908 212.916 52.5231 212.922 52.4564 212.914H52.4089ZM33.8306 209.746C33.8969 209.734 33.9652 209.736 34.0306 209.753C34.0959 209.77 34.1567 209.801 34.2087 209.844C34.2607 209.887 34.3025 209.941 34.3312 210.002C34.3599 210.063 34.3748 210.13 34.3748 210.198C34.3748 210.265 34.3599 210.332 34.3312 210.393C34.3025 210.454 34.2607 210.508 34.2087 210.551C34.1567 210.594 34.0959 210.625 34.0306 210.642C33.9652 210.659 33.8969 210.661 33.8306 210.649C33.7639 210.657 33.6961 210.651 33.6322 210.63C33.5682 210.61 33.5095 210.575 33.4602 210.53C33.411 210.484 33.3724 210.428 33.3472 210.366C33.3219 210.303 33.3107 210.236 33.3142 210.169C33.3178 210.102 33.336 210.036 33.3676 209.977C33.3992 209.918 33.4435 209.866 33.4973 209.826C33.5511 209.785 33.613 209.757 33.6788 209.744C33.7446 209.73 33.8126 209.731 33.8781 209.746H33.8306ZM23.3931 178.07C24.0481 177.542 24.7943 177.14 25.5947 176.882C25.5947 174.823 25.4363 173.714 27.0676 174.934C27.5441 175.322 27.9698 175.769 28.3347 176.264C29.0699 176.042 29.8317 175.919 30.5996 175.9C30.8213 175.9 30.9638 176.026 30.948 176.248C30.6774 177.066 30.2704 177.831 29.7443 178.513C30.2012 179.224 30.4834 180.032 30.5679 180.873C30.4253 181.649 29.2058 180.968 28.2238 180.683C27.7962 181.19 26.4816 182.869 25.9906 182.488C25.4996 182.108 25.7689 181.126 25.7055 179.796C24.7394 179.448 22.7754 178.814 23.4407 178.07H23.3931ZM17.5647 192.039C17.631 192.026 17.6993 192.029 17.7646 192.046C17.83 192.063 17.8908 192.094 17.9428 192.137C17.9948 192.18 18.0366 192.234 18.0653 192.295C18.094 192.356 18.1089 192.423 18.1089 192.49C18.1089 192.558 18.094 192.625 18.0653 192.686C18.0366 192.747 17.9948 192.801 17.9428 192.844C17.8908 192.887 17.83 192.918 17.7646 192.935C17.6993 192.952 17.631 192.954 17.5647 192.942C17.498 192.95 17.4302 192.944 17.3662 192.923C17.3023 192.903 17.2436 192.868 17.1943 192.823C17.1451 192.777 17.1065 192.721 17.0813 192.658C17.056 192.596 17.0448 192.529 17.0483 192.462C17.0518 192.395 17.0701 192.329 17.1017 192.27C17.1333 192.211 17.1776 192.159 17.2314 192.119C17.2851 192.078 17.3471 192.05 17.4129 192.036C17.4787 192.023 17.5467 192.024 17.6122 192.039H17.5647ZM170.325 244.638C164.528 252.193 77.9718 294.196 69.5459 298.266C49.7639 274.778 18.9743 231.951 0.91862 206.959L17.232 204.82C27.4002 220.865 42.9851 217.143 51.3477 222.243C60.7556 227.992 65.6022 232.332 68.453 243.482C72.3334 258.639 67.4394 265.18 78.7796 270.011C89.6447 274.62 111.216 272.767 119.959 257.768C128.702 242.769 111.581 236.212 96.2017 229.259C80.8227 222.306 83.5311 212.676 85.6217 209.952C87.2181 207.879 89.07 206.017 91.1335 204.409C91.9138 204.411 92.6812 204.209 93.3593 203.823C94.0373 203.437 94.6023 202.88 94.998 202.207C96.8511 203.205 167.141 242.816 170.372 244.638H170.325ZM111.723 263.311C111.744 263.311 111.765 263.315 111.784 263.323C111.803 263.331 111.821 263.343 111.835 263.358C111.85 263.372 111.862 263.39 111.87 263.409C111.878 263.428 111.882 263.449 111.882 263.47C111.882 263.49 111.878 263.511 111.87 263.53C111.862 263.549 111.85 263.567 111.835 263.582C111.821 263.596 111.803 263.608 111.784 263.616C111.765 263.624 111.744 263.628 111.723 263.628C111.702 263.627 111.682 263.622 111.663 263.613C111.644 263.604 111.628 263.591 111.614 263.576C111.6 263.561 111.589 263.543 111.582 263.523C111.575 263.503 111.572 263.482 111.573 263.462C111.574 263.441 111.579 263.42 111.588 263.402C111.597 263.383 111.609 263.366 111.625 263.352C111.64 263.338 111.658 263.327 111.678 263.32C111.697 263.313 111.718 263.31 111.739 263.311H111.723ZM115.778 247.267C115.588 247.394 115.303 247.267 114.859 247.045C114.162 247.821 113.83 248.043 113.909 246.729C113.228 246.507 112.848 246.396 113.481 246.032C113.671 245.928 113.874 245.848 114.083 245.794C114.257 244.701 114.4 244.685 115.002 245.604C115.293 245.532 115.597 245.532 115.889 245.604C116.11 245.731 115.746 246.032 115.493 246.333C115.588 246.554 115.968 247.156 115.794 247.267H115.778ZM92.4005 203.458C91.7895 203.66 91.1339 203.685 90.5092 203.531C89.8844 203.377 89.3158 203.05 88.8686 202.587H89.0111C92.0046 202.128 91.5611 200.893 93.1132 200.132C93.2558 200.291 93.1133 200.243 95.6315 200.433C94.9956 201.828 93.8343 202.916 92.4005 203.458ZM96.0592 197.123C95.8299 197.549 95.7412 198.037 95.8058 198.517C95.8058 198.628 95.6949 199.134 95.6315 199.61L93.921 199.467C93.921 199.388 95.0455 196.711 95.1247 196.458H96.2017L96.0592 197.123ZM95.7424 192.672C94.6496 194.716 94.1586 198.517 93.1924 197.852C92.8549 197.503 92.6624 197.038 92.6539 196.553C92.603 195.639 92.7322 194.724 93.0341 193.86C93.2923 192.954 93.7468 192.115 94.3654 191.403C94.9839 190.691 95.7514 190.124 96.6135 189.742C95.7741 192.973 96.0117 192.245 95.7424 192.736V192.672ZM96.8828 195.064C97.1362 194.32 97.4846 193.227 97.9756 191.801C98.1815 191.691 98.229 191.801 98.4983 192.467C98.9259 193.575 96.4234 196.394 96.4234 196.394C96.5818 195.935 96.7561 195.492 96.8828 195.127V195.064ZM141.61 167.616C136.019 176.026 131.87 179.796 125.344 183.455C118.983 186.839 112.219 189.404 105.214 191.089C102.394 191.96 100.035 198.216 96.9461 198.501C96.5977 198.501 96.3601 198.501 96.6452 197.709C97.3579 195.729 99.9395 194.082 99.1951 192.197C99.1006 191.914 98.973 191.643 98.815 191.39C98.6866 191.183 98.4909 191.026 98.2607 190.946C98.3557 190.629 98.6725 189.711 99.1001 188.412C99.4644 188.159 99.7178 188.079 101.381 187.097C106.956 183.803 109.142 177.895 113.83 172.368C116.306 169.339 119.196 166.673 122.414 164.449C122.652 164.306 122.256 164.544 124.093 158.747C125.154 155.405 126.389 151.873 126.754 150.828C126.822 150.837 126.888 150.862 126.945 150.901C127.003 150.939 127.051 150.99 127.086 151.049C127.498 151.826 127.419 153.314 127.767 154.217C128.591 156.213 130.634 153.536 132.519 153.584C134.103 153.584 134.103 155.405 135.687 155.864C136.874 156.213 138.062 155.484 139.171 156.007C140.623 158.477 142.333 160.786 144.271 162.897C143.551 164.578 142.66 166.181 141.61 167.68V167.616ZM151.335 168.123C146.54 164.696 142.534 160.284 139.583 155.183C137.635 151.794 135.829 148.009 135.211 138.506C135.585 138.44 135.955 138.356 136.32 138.252L136.653 141.42C138.397 142.741 140.24 143.927 142.164 144.968C142.164 144.968 140.818 152.586 146.916 162.39C149.846 167.205 151.335 168.187 151.335 168.187V168.123ZM180.778 188.555C181.063 192.007 177.927 210.855 177.5 213.421C177.474 213.43 177.451 213.445 177.432 213.464C177.413 213.483 177.398 213.506 177.389 213.532C177.595 212.755 174.031 224.745 173.762 228.499C173.762 228.8 173.762 228.657 176.47 231.001C177.389 231.809 180.541 234.486 180.699 235.42C180.772 235.663 180.772 235.922 180.699 236.164C179.284 234.665 177.596 233.451 175.726 232.585C175.692 232.564 175.652 232.557 175.613 232.566C175.574 232.575 175.541 232.599 175.52 232.632C175.499 232.666 175.492 232.707 175.501 232.745C175.51 232.784 175.534 232.817 175.567 232.838L176.85 233.884C178.133 234.755 179.313 235.77 180.366 236.909C180.208 237.305 179.86 237.336 179.448 237.226C179.448 236.402 175.837 234.406 174.696 233.725C174.522 233.63 174.364 233.884 174.538 233.979C176.128 234.897 177.611 235.992 178.957 237.241C178.45 238.382 176.914 236.75 171.323 234.454C170.315 234.001 169.249 233.692 168.155 233.535C168.081 233.53 168.007 233.549 167.944 233.589C167.882 233.629 167.833 233.688 167.807 233.757C167.664 234.169 168.107 234.153 169.533 235.594C169.836 235.86 170.098 236.17 170.309 236.513C169.36 236.625 168.402 236.401 167.601 235.879C166.966 235.455 166.465 234.859 166.157 234.161C165.848 233.462 165.745 232.691 165.858 231.936C166.128 230.352 167.696 229.544 167.046 228.134C166.397 226.725 165.067 217.57 164.876 216.256C163.118 204.361 163.784 204.108 163.451 204.013C163.451 187.509 163.974 187.446 163.847 186.591C163.847 186.416 160.299 162.057 160.268 161.867C161.313 161.867 162.057 163.023 162.643 163.974C163.499 165.336 164.227 166.223 165.938 165.7C167.648 165.177 169.105 163.736 170.689 163.166C172.273 162.596 173.112 163.166 174.839 163.72C175.504 164.038 176.255 164.128 176.976 163.976C177.698 163.824 178.349 163.439 178.83 162.881C181.586 160.584 180.287 160.014 185.926 162.231C184.833 166.492 182.378 178.529 182.33 178.719C181.33 181.903 180.807 185.217 180.778 188.555ZM160.077 161.091C158.835 161.539 157.624 162.068 156.451 162.675C156.181 162.675 156.07 162.675 155.991 162.358C155.5 160.093 161.265 133.279 175.631 132.265C182.188 131.822 186.717 143.59 188.697 149.862C190 153.848 191.011 157.924 191.722 162.057C192.007 164.924 183.645 159.555 181.237 160.109C180.287 160.331 179.859 161.138 178.497 162.279C177.135 163.419 176.438 163.419 175.235 162.992C173.813 162.213 172.146 162.009 170.578 162.421C168.899 163.023 167.506 164.433 165.827 164.955C164.401 165.415 163.958 164.433 163.15 163.166C162.342 161.899 161.519 160.822 160.077 161.028V161.091ZM183.677 176.042C184.342 173.413 185.514 167.965 186.385 162.263C187.842 162.833 191.025 164.227 192.087 163.213C192.245 163.044 192.359 162.838 192.42 162.615C192.48 162.391 192.486 162.156 192.435 161.93C191.861 158.587 191.067 155.286 190.059 152.047C187.937 144.999 182.98 131.458 175.599 131.917C160.616 132.962 154.772 159.998 155.278 162.437C155.293 162.594 155.344 162.745 155.426 162.88C155.508 163.014 155.62 163.127 155.753 163.211C155.886 163.296 156.037 163.348 156.194 163.365C156.35 163.382 156.509 163.362 156.656 163.308C157.559 163.087 158.842 162.105 160.014 161.835C160.188 164.718 160.521 168.551 161.218 173.508C158.546 172.457 155.966 171.186 153.505 169.707C148.535 164.881 145.032 158.748 143.4 152.016C142.843 149.812 142.524 147.556 142.449 145.284C145.325 146.89 148.31 148.293 151.382 149.481C151.433 149.502 151.488 149.509 151.543 149.504C151.597 149.499 151.65 149.481 151.696 149.452C151.742 149.422 151.781 149.382 151.809 149.335C151.837 149.288 151.854 149.235 151.857 149.181C152.436 144.706 154.333 140.505 157.306 137.112C160.335 133.756 164.359 131.458 168.789 130.555C168.86 130.543 168.926 130.509 168.978 130.458C169.029 130.407 169.063 130.341 169.075 130.27C169.088 130.198 169.077 130.125 169.046 130.059C169.014 129.994 168.963 129.94 168.899 129.905C165.762 128.095 162.526 126.461 159.206 125.011C157.15 124.056 154.993 123.333 152.776 122.857C153.205 121.676 153.492 120.448 153.631 119.199C156.799 117.852 172.78 119.832 183.55 118.708C185.181 118.607 186.799 118.347 188.381 117.932C198.089 117.662 212.708 129.604 215.401 134.989C218.093 140.374 217.665 147.106 211.694 155.484C206.072 163.324 185.862 174.759 183.692 175.979L183.677 176.042ZM226.772 208.02C228.974 201.083 225.49 194.589 224.238 192.577L234.723 192.292C236.073 193.091 237.103 194.334 237.638 195.808C238.497 198.016 238.953 200.361 238.984 202.73C235.848 204.139 230.035 206.8 226.772 207.956V208.02ZM239.665 202.302C239.578 199.982 239.04 197.701 238.081 195.587C237.446 194.095 236.331 192.858 234.913 192.071C235.545 191.392 236.311 190.853 237.162 190.487C237.162 190.994 236.545 192.071 237.289 192.182C238.033 192.292 238.113 191.564 238.572 191.326C238.762 191.231 239.142 191.215 238.984 191.627C238.825 192.039 238.477 192.657 238.841 193.211C239.11 193.527 239.479 193.739 239.887 193.813C239.982 193.813 239.348 194.256 239.174 194.763C239.132 194.883 239.139 195.014 239.192 195.129C239.245 195.245 239.341 195.335 239.459 195.381C239.997 195.587 240.932 195.048 241.518 195.634C241.755 195.888 241.629 196.125 241.328 196.299C240.599 196.759 240.504 197.297 241.185 197.883C241.527 198.121 241.832 198.41 242.088 198.739C241.591 198.735 241.106 198.897 240.71 199.198C240.635 199.256 240.573 199.33 240.531 199.415C240.489 199.5 240.467 199.594 240.467 199.689C240.467 199.784 240.489 199.878 240.531 199.963C240.573 200.048 240.635 200.122 240.71 200.18C241.059 200.481 241.914 200.798 242.104 201.067C241.35 201.569 240.529 201.964 239.665 202.239V202.302ZM258.877 191.342C258.227 193.987 243.973 200.37 242.959 200.845C242.785 200.227 241.787 199.926 241.375 199.626C241.819 199.388 242.706 199.483 242.88 198.929C243.054 198.374 241.819 197.456 241.534 197.091C241.803 196.838 242.769 196.379 242.342 195.508C242.147 195.18 241.854 194.922 241.504 194.772C241.154 194.621 240.765 194.585 240.393 194.668H240.156C240.504 194.225 241.074 193.654 240.552 193.274C240.029 192.894 239.681 193.274 239.411 192.752C240.916 192.942 242.151 193.148 243.102 193.354C243.133 193.358 243.166 193.356 243.196 193.347C243.227 193.338 243.255 193.322 243.279 193.301C243.304 193.28 243.323 193.254 243.336 193.225C243.349 193.195 243.355 193.164 243.355 193.132C243.355 193.765 242.912 189.473 245.161 188.966C246.165 188.86 247.18 189.003 248.116 189.381C249.052 189.759 249.881 190.362 250.53 191.136C250.567 191.182 250.616 191.217 250.672 191.237C250.728 191.257 250.789 191.26 250.847 191.247C251.433 191.136 256.295 190.138 258.243 190.851C258.465 190.835 258.924 191.057 258.877 191.279V191.342Z" fill="#3AAFA9"/>
</svg>
