<svg width="157" height="148" viewBox="0 0 157 148" fill="none" xmlns="http://www.w3.org/2000/svg">
<g clip-path="url(#clip0_21_671)">
<path d="M60.6704 126.798C54.4195 124.437 48.8315 121.115 43.3367 117.621C42.0858 116.825 40.9197 115.896 39.6879 115.069C37.8411 113.828 37.0041 112.215 36.9404 109.891C36.9059 108.632 35.9651 107.302 35.1785 106.185C34.0103 104.525 32.4899 103.114 31.3471 101.44C29.5024 98.7382 29.8929 96.2131 31.9623 93.7839C34.8849 90.3531 37.5877 86.732 40.5433 83.3317C41.2859 82.4773 42.5758 81.9572 43.713 81.6201C48.9332 80.0723 54.1922 78.6571 59.4283 77.1626C60.5956 76.8295 61.7268 76.3686 63.034 75.9108C62.0952 74.3809 61.3426 73.0636 60.5041 71.8039C56.881 66.3606 55.8686 60.6877 58.4641 54.4434C60.4328 49.7071 63.8525 46.5419 68.189 44.1353C74.7844 40.4752 81.8354 39.8856 88.755 42.2953C98.7168 45.7644 105.137 52.6486 103.02 64.6222C102.784 65.9539 102.071 67.1929 101.688 68.5069C100.672 71.9903 101.453 73.1479 103.709 74.451C106.857 76.269 109.712 78.5954 112.733 80.6434C113.376 81.0791 114.286 81.6355 114.915 81.4829C117.81 80.7818 119.532 82.7424 121.444 84.1869C122.921 85.3023 124.307 86.5731 125.575 87.9244C127.146 89.5983 128.639 91.3628 130.01 93.2053C131.528 95.245 131.003 97.1182 129.297 98.9899C127.68 100.765 125.619 101.462 123.57 102.31C120.921 103.407 119.248 105.103 119.464 108.245C119.652 110.97 118.243 112.549 115.74 113.594C113.235 114.64 110.929 116.161 108.504 117.414C104.603 119.431 100.687 121.42 96.7562 123.379C93.8723 124.816 90.9809 126.243 88.044 127.566C85.6749 128.632 83.2877 129.732 80.8011 130.432C79.4591 130.81 77.8919 130.375 76.4259 130.314C75.9092 130.293 75.3899 130.266 74.8745 130.293C73.3581 130.373 71.7188 130.898 70.3523 130.49C67.0964 129.517 63.9696 128.108 60.6704 126.798ZM88.2187 59.7503C90.0042 61.1687 90.1676 63.064 89.9427 65.1679C89.6263 68.1278 89.4587 71.1039 89.1931 74.5143C90.72 73.9928 91.906 73.7161 92.9756 73.1971C95.6041 71.9217 96.8775 69.5191 97.9156 66.9304C100.575 60.2997 98.3952 53.4822 93.9201 49.9679C89.377 46.4001 84.0056 44.6401 78.2132 45.5079C71.4604 46.5196 65.7527 49.2056 62.5016 55.9603C59.7844 61.6059 62.1207 68.5103 65.9512 72.4813C67.0058 73.5745 68.2145 73.0701 69.2293 72.5825C69.656 72.3775 69.9654 71.3482 69.8839 70.7553C69.5702 68.4733 68.9739 66.2291 68.6899 63.9449C68.5254 62.6222 68.4916 61.1644 68.8884 59.9257C69.2343 58.8465 70.1332 57.3353 71.6256 58.1151C74.3881 59.5584 77.2855 59.3454 80.1981 59.3916C82.7843 59.4326 85.3696 59.5265 88.2187 59.7503ZM57.3033 96.9687C53.0647 94.4162 48.8693 91.785 44.5459 89.3868C43.805 88.9757 42.1363 89.1697 41.5506 89.7505C39.2123 92.0693 37.1107 94.6327 34.9819 97.1569C34.6852 97.5088 34.4519 98.3956 34.6502 98.616C37.8138 102.133 39.7317 106.818 44.2618 109.058C45.8077 109.823 47.3899 110.527 48.8785 111.392C52.8844 113.721 56.8458 116.128 60.8312 118.493C62.6283 119.559 64.1081 119.075 65.2957 117.443C67.0659 115.01 69.0136 112.706 70.907 110.364C71.5943 109.514 72.3425 108.714 73.2676 107.657C67.8938 104.057 62.7148 100.587 57.3033 96.9687ZM105.696 93.3165C104.6 93.878 103.518 94.471 102.405 94.9956C97.1417 97.4759 91.8642 99.9261 86.6032 102.411C84.394 103.455 82.213 104.559 79.8856 105.701C82.9159 108.583 85.649 111.288 88.5303 113.823C89.0427 114.274 90.3517 114.364 90.9853 114.031C94.538 112.161 97.9553 110.033 101.498 108.142C105.596 105.955 109.753 103.876 113.926 101.838C117.477 100.103 121.109 98.5355 124.661 96.8024C125.94 96.1784 126.101 95.0094 125.113 94.0184C122.787 91.6876 120.39 89.4254 117.936 87.2328C117.579 86.9145 116.612 86.8858 116.16 87.1402C112.711 89.0812 109.32 91.1258 105.696 93.3165ZM48.8742 87.8098C51.3398 88.966 53.8983 89.9598 56.248 91.3185C59.3413 93.1071 62.2887 95.155 65.2646 97.1433C67.78 98.8239 70.181 100.687 72.7564 102.264C74.6828 103.445 76.1917 103.038 77.8991 101.126C76.4784 100.207 75.1001 99.3273 73.7339 98.429C72.3878 97.5439 70.9665 96.7464 69.7322 95.7229C66.9008 93.3752 67.1018 90.1079 67.4967 86.9314C67.6934 85.35 67.6159 83.9768 66.707 82.6624C66.1182 81.811 65.5873 80.9193 65.0918 80.142C58.673 82.1852 52.2936 84.2158 45.6206 86.3399C46.8239 86.8821 47.7207 87.2862 48.8742 87.8098ZM94.714 93.5464C97.0331 92.4322 99.3796 91.3716 101.664 90.1896C104.237 88.8581 106.755 87.4183 109.295 86.0232C109.869 85.708 110.437 85.3828 111.188 84.961C110.644 84.4679 110.323 84.1048 109.936 83.8382C107.857 82.406 105.784 80.962 103.664 79.5929C101.963 78.4941 100.205 77.4818 98.4569 76.4576C96.6686 75.4097 95.3515 76.0264 94.121 77.5517C93.4819 78.344 92.4825 78.8429 91.6459 79.4743C91.4324 79.3468 91.2189 79.2193 91.0054 79.0919C91.0054 80.1053 90.5902 81.4437 91.0792 82.0743C92.9279 84.4586 92.2456 87.0592 92.1605 89.6265C92.1143 91.0204 91.9915 92.4117 91.8895 94.021C92.9614 93.8348 93.6825 93.7095 94.714 93.5464ZM73.4856 66.4891C73.7947 68.5788 74.0467 70.679 74.4262 72.7558C75.0174 75.991 75.6382 79.2239 76.3923 82.4231C76.518 82.9562 77.3511 83.636 77.9127 83.6925C79.762 83.8787 81.6372 83.7918 83.5015 83.8454C84.5957 83.8768 85.1072 83.3115 85.1885 82.2909C85.243 81.6073 85.2365 80.9179 85.2385 80.231C85.2509 76.0582 85.2347 71.8851 85.2824 67.7127C85.2948 66.6306 85.5015 65.5506 85.6157 64.4998C81.2487 64.4998 77.1474 64.4998 72.9762 64.4998C73.0722 64.9084 73.225 65.559 73.4856 66.4891ZM106.71 113.437C108.902 112.194 111.002 110.723 113.315 109.781C115.076 109.064 115.47 108.166 114.853 106.227C112.137 107.513 109.399 108.633 106.834 110.065C102.517 112.475 98.3843 115.221 94.0372 117.57C89.574 119.981 89.3648 121.264 85.1213 116.569C83.3468 114.606 81.2999 112.882 79.2909 111.149C78.8799 110.795 77.9936 110.661 77.4992 110.859C77.1707 110.991 77.008 111.899 77.0233 112.453C77.0472 113.316 77.3431 114.167 77.4223 115.033C77.7009 118.076 77.8434 121.136 78.2197 124.166C78.4821 126.281 79.155 126.697 81.1266 125.909C83.5301 124.949 85.829 123.724 88.1698 122.606C91.2428 121.138 94.3299 119.699 97.3787 118.182C100.423 116.668 103.427 115.073 106.71 113.437ZM86.0275 88.4793C84.734 88.4456 83.4359 88.4698 82.148 88.3663C79.2465 88.1333 76.3462 87.8715 73.453 87.552C71.9657 87.3878 71.4104 88.0009 71.4551 89.4447C71.5275 91.7871 72.526 93.007 74.9979 93.0456C78.6822 93.1032 82.3703 92.9121 86.0567 92.8246C86.1802 92.8217 86.3068 92.8096 86.4257 92.778C87.8671 92.3946 87.7626 91.2107 87.858 90.0816C87.9577 88.9026 87.3896 88.507 86.0275 88.4793ZM72.3037 126.972C73.063 127.224 73.8223 127.476 74.5816 127.728C74.6385 126.925 74.7692 126.12 74.7334 125.321C74.6889 124.33 74.4899 123.347 74.3871 122.358C74.1073 119.665 73.8429 116.971 73.5724 114.277C73.4046 114.239 73.2368 114.202 73.069 114.164C70.7081 117.098 68.3289 120.018 66.0397 123.008C65.9237 123.159 66.4741 124.122 66.9014 124.346C68.5991 125.233 70.3712 125.976 72.3037 126.972Z" fill="#14b8a6"/>
<path d="M68.9316 18.6164C69.715 20.9331 70.4545 23.1109 71.175 25.295C71.5938 26.5644 71.0548 27.5211 70.0343 28.1804C69.0852 28.7936 68.2845 28.578 67.401 27.7451C64.9235 25.4097 64.674 22.245 64.0353 19.2254C63.7915 18.0729 63.5295 16.8178 63.753 15.7064C63.9264 14.8439 64.6977 13.7203 65.4607 13.4519C66.5372 13.0733 67.3574 13.9174 67.6798 15.1454C67.9786 16.2838 68.472 17.3706 68.9316 18.6164Z" fill="#14b8a6"/>
<path d="M106.552 35.5457C103.745 34.1553 103.738 32.0896 106.324 29.7028C108.478 27.7142 111.006 26.4914 113.812 25.7987C115.196 25.4572 116.491 25.5619 117.083 27.1079C117.622 28.5136 116.765 29.2191 115.629 29.9027C112.61 31.7181 109.664 33.6561 106.552 35.5457Z" fill="#14b8a6"/>
<path d="M111.852 65.5982C112.016 63.1226 112.535 62.765 114.664 62.3327C117.295 61.7986 119.434 62.6427 121.35 64.2459C121.798 64.6202 122.111 65.5737 121.969 66.1255C121.823 66.6878 121.085 67.4153 120.527 67.4918C118.634 67.7515 116.707 67.8015 114.791 67.8421C113.346 67.8726 112.293 67.214 111.852 65.5982Z" fill="#14b8a6"/>
<path d="M35.4918 76.6373C34.5915 76.5708 33.7823 76.6696 33.1391 76.3869C31.6844 75.7476 31.5928 73.3213 33.1183 72.8012C35.3491 72.0408 37.7392 71.648 40.0921 71.4224C40.7305 71.3612 42.0616 72.4869 42.0414 73.0291C42.0111 73.846 41.2397 75.0072 40.4834 75.346C38.9833 76.0179 37.2785 76.2282 35.4918 76.6373Z" fill="#14b8a6"/>
<path d="M35.9995 48.1979C38.6455 46.0146 40.5166 47.85 42.5816 50.0993C42.9823 50.5359 43.3253 51.2033 43.3428 51.775C43.367 52.5649 43.2982 53.6182 42.8156 54.0827C42.4133 54.4698 41.2107 54.4436 40.6213 54.1219C39.2779 53.3887 38.0608 52.4028 36.8542 51.4414C35.8578 50.6476 35.3413 49.6274 35.9995 48.1979Z" fill="#14b8a6"/>
</g>
<defs>
<clipPath id="clip0_21_671">
<rect width="157" height="148" fill="white"/>
</clipPath>
</defs>
</svg>
